G04 #@! TF.GenerationSoftware,KiCad,Pcbnew,7.0.5*
G04 #@! TF.CreationDate,2023-09-06T13:33:27-04:00*
G04 #@! TF.ProjectId,untitled,756e7469-746c-4656-942e-6b696361645f,rev?*
G04 #@! TF.SameCoordinates,Original*
G04 #@! TF.FileFunction,Soldermask,Top*
G04 #@! TF.FilePolarity,Negative*
%FSLAX46Y46*%
G04 Gerber Fmt 4.6, Leading zero omitted, Abs format (unit mm)*
G04 Created by KiCad (PCBNEW 7.0.5) date 2023-09-06 13:33:27*
%MOMM*%
%LPD*%
G01*
G04 APERTURE LIST*
G04 Aperture macros list*
%AMRoundRect*
0 Rectangle with rounded corners*
0 $1 Rounding radius*
0 $2 $3 $4 $5 $6 $7 $8 $9 X,Y pos of 4 corners*
0 Add a 4 corners polygon primitive as box body*
4,1,4,$2,$3,$4,$5,$6,$7,$8,$9,$2,$3,0*
0 Add four circle primitives for the rounded corners*
1,1,$1+$1,$2,$3*
1,1,$1+$1,$4,$5*
1,1,$1+$1,$6,$7*
1,1,$1+$1,$8,$9*
0 Add four rect primitives between the rounded corners*
20,1,$1+$1,$2,$3,$4,$5,0*
20,1,$1+$1,$4,$5,$6,$7,0*
20,1,$1+$1,$6,$7,$8,$9,0*
20,1,$1+$1,$8,$9,$2,$3,0*%
G04 Aperture macros list end*
%ADD10RoundRect,0.250000X0.475000X-0.337500X0.475000X0.337500X-0.475000X0.337500X-0.475000X-0.337500X0*%
%ADD11R,1.600000X1.600000*%
%ADD12O,1.600000X1.600000*%
%ADD13C,3.100000*%
%ADD14RoundRect,0.250000X0.337500X0.475000X-0.337500X0.475000X-0.337500X-0.475000X0.337500X-0.475000X0*%
%ADD15RoundRect,0.250000X0.600000X-0.600000X0.600000X0.600000X-0.600000X0.600000X-0.600000X-0.600000X0*%
%ADD16C,1.700000*%
%ADD17C,2.603200*%
%ADD18RoundRect,0.250000X-0.350000X-0.450000X0.350000X-0.450000X0.350000X0.450000X-0.350000X0.450000X0*%
%ADD19C,4.000000*%
%ADD20RoundRect,0.250000X-0.475000X0.337500X-0.475000X-0.337500X0.475000X-0.337500X0.475000X0.337500X0*%
%ADD21R,1.308000X1.308000*%
%ADD22C,1.308000*%
%ADD23RoundRect,0.101600X0.800000X-0.500000X0.800000X0.500000X-0.800000X0.500000X-0.800000X-0.500000X0*%
%ADD24RoundRect,0.101600X3.100000X-2.700000X3.100000X2.700000X-3.100000X2.700000X-3.100000X-2.700000X0*%
%ADD25O,3.251200X1.727200*%
G04 APERTURE END LIST*
D10*
X95631000Y-114808000D03*
X95631000Y-112733000D03*
D11*
X98552000Y-104394000D03*
D12*
X101092000Y-104394000D03*
X103632000Y-104394000D03*
X106172000Y-104394000D03*
X108712000Y-104394000D03*
X111252000Y-104394000D03*
X113792000Y-104394000D03*
X116332000Y-104394000D03*
X116332000Y-96774000D03*
X113792000Y-96774000D03*
X111252000Y-96774000D03*
X108712000Y-96774000D03*
X106172000Y-96774000D03*
X103632000Y-96774000D03*
X101092000Y-96774000D03*
X98552000Y-96774000D03*
D13*
X220501100Y-114046000D03*
D14*
X150114000Y-112776000D03*
X148039000Y-112776000D03*
D15*
X80645000Y-111887000D03*
D16*
X80645000Y-109347000D03*
X83185000Y-111887000D03*
X83185000Y-109347000D03*
X85725000Y-111887000D03*
X85725000Y-109347000D03*
X88265000Y-111887000D03*
X88265000Y-109347000D03*
D17*
X91251100Y-87503600D03*
X81501100Y-91003600D03*
X79751100Y-87503600D03*
X79751100Y-83003600D03*
X79751100Y-78503600D03*
X81501100Y-75003600D03*
X85501100Y-74003600D03*
X89501100Y-75003600D03*
X91251100Y-78503600D03*
X91251100Y-83003600D03*
X89501100Y-91003600D03*
X85501100Y-92003600D03*
D18*
X144907000Y-91059000D03*
X146907000Y-91059000D03*
D13*
X76501100Y-114046000D03*
D10*
X184658000Y-109855000D03*
X184658000Y-107780000D03*
D14*
X189484000Y-114681000D03*
X187409000Y-114681000D03*
D19*
X189501100Y-83003600D03*
D20*
X184023000Y-112903000D03*
X184023000Y-114978000D03*
D19*
X159501100Y-83003600D03*
D18*
X218948000Y-91186000D03*
X220948000Y-91186000D03*
D17*
X113251100Y-87503600D03*
X103501100Y-91003600D03*
X101751100Y-87503600D03*
X101751100Y-83003600D03*
X101751100Y-78503600D03*
X103501100Y-75003600D03*
X107501100Y-74003600D03*
X111501100Y-75003600D03*
X113251100Y-78503600D03*
X113251100Y-83003600D03*
X111501100Y-91003600D03*
X107501100Y-92003600D03*
D11*
X180594000Y-104394000D03*
D12*
X183134000Y-104394000D03*
X185674000Y-104394000D03*
X188214000Y-104394000D03*
X190754000Y-104394000D03*
X193294000Y-104394000D03*
X195834000Y-104394000D03*
X198374000Y-104394000D03*
X198374000Y-96774000D03*
X195834000Y-96774000D03*
X193294000Y-96774000D03*
X190754000Y-96774000D03*
X188214000Y-96774000D03*
X185674000Y-96774000D03*
X183134000Y-96774000D03*
X180594000Y-96774000D03*
D11*
X128524000Y-104394000D03*
D12*
X131064000Y-104394000D03*
X133604000Y-104394000D03*
X136144000Y-104394000D03*
X138684000Y-104394000D03*
X141224000Y-104394000D03*
X143764000Y-104394000D03*
X146304000Y-104394000D03*
X146304000Y-96774000D03*
X143764000Y-96774000D03*
X141224000Y-96774000D03*
X138684000Y-96774000D03*
X136144000Y-96774000D03*
X133604000Y-96774000D03*
X131064000Y-96774000D03*
X128524000Y-96774000D03*
D14*
X126111000Y-114808000D03*
X124036000Y-114808000D03*
D11*
X202565000Y-104394000D03*
D12*
X205105000Y-104394000D03*
X207645000Y-104394000D03*
X210185000Y-104394000D03*
X212725000Y-104394000D03*
X215265000Y-104394000D03*
X217805000Y-104394000D03*
X220345000Y-104394000D03*
X220345000Y-96774000D03*
X217805000Y-96774000D03*
X215265000Y-96774000D03*
X212725000Y-96774000D03*
X210185000Y-96774000D03*
X207645000Y-96774000D03*
X205105000Y-96774000D03*
X202565000Y-96774000D03*
D19*
X137501100Y-83003600D03*
D21*
X122501100Y-74463600D03*
D22*
X122501100Y-79543600D03*
D23*
X181711000Y-112516000D03*
X181711000Y-107956000D03*
D24*
X174411000Y-110236000D03*
D13*
X220501100Y-73003600D03*
D17*
X195251100Y-87503600D03*
X185501100Y-91003600D03*
X183751100Y-87503600D03*
X183751100Y-83003600D03*
X183751100Y-78503600D03*
X185501100Y-75003600D03*
X189501100Y-74003600D03*
X193501100Y-75003600D03*
X195251100Y-78503600D03*
X195251100Y-83003600D03*
X193501100Y-91003600D03*
X189501100Y-92003600D03*
D18*
X167259000Y-91313000D03*
X169259000Y-91313000D03*
D17*
X217251100Y-87503600D03*
X207501100Y-91003600D03*
X205751100Y-87503600D03*
X205751100Y-83003600D03*
X205751100Y-78503600D03*
X207501100Y-75003600D03*
X211501100Y-74003600D03*
X215501100Y-75003600D03*
X217251100Y-78503600D03*
X217251100Y-83003600D03*
X215501100Y-91003600D03*
X211501100Y-92003600D03*
D18*
X114935000Y-91186000D03*
X116935000Y-91186000D03*
D13*
X76501100Y-73003600D03*
D19*
X85501100Y-83003600D03*
D17*
X165251100Y-87503600D03*
X155501100Y-91003600D03*
X153751100Y-87503600D03*
X153751100Y-83003600D03*
X153751100Y-78503600D03*
X155501100Y-75003600D03*
X159501100Y-74003600D03*
X163501100Y-75003600D03*
X165251100Y-78503600D03*
X165251100Y-83003600D03*
X163501100Y-91003600D03*
X159501100Y-92003600D03*
D19*
X107501100Y-83003600D03*
D11*
X76596000Y-104384000D03*
D12*
X79136000Y-104384000D03*
X81676000Y-104384000D03*
X84216000Y-104384000D03*
X86756000Y-104384000D03*
X89296000Y-104384000D03*
X91836000Y-104384000D03*
X94376000Y-104384000D03*
X94376000Y-96764000D03*
X91836000Y-96764000D03*
X89296000Y-96764000D03*
X86756000Y-96764000D03*
X84216000Y-96764000D03*
X81676000Y-96764000D03*
X79136000Y-96764000D03*
X76596000Y-96764000D03*
D11*
X150622000Y-104394000D03*
D12*
X153162000Y-104394000D03*
X155702000Y-104394000D03*
X158242000Y-104394000D03*
X160782000Y-104394000D03*
X163322000Y-104394000D03*
X165862000Y-104394000D03*
X168402000Y-104394000D03*
X168402000Y-96774000D03*
X165862000Y-96774000D03*
X163322000Y-96774000D03*
X160782000Y-96774000D03*
X158242000Y-96774000D03*
X155702000Y-96774000D03*
X153162000Y-96774000D03*
X150622000Y-96774000D03*
D18*
X196723000Y-91313000D03*
X198723000Y-91313000D03*
D17*
X143251100Y-87503600D03*
X133501100Y-91003600D03*
X131751100Y-87503600D03*
X131751100Y-83003600D03*
X131751100Y-78503600D03*
X133501100Y-75003600D03*
X137501100Y-74003600D03*
X141501100Y-75003600D03*
X143251100Y-78503600D03*
X143251100Y-83003600D03*
X141501100Y-91003600D03*
X137501100Y-92003600D03*
D19*
X211501100Y-83003600D03*
D21*
X174501100Y-74463600D03*
D22*
X174501100Y-79543600D03*
D21*
X122501100Y-86463600D03*
D22*
X122501100Y-91543600D03*
D18*
X92964000Y-91313000D03*
X94964000Y-91313000D03*
D21*
X174501100Y-86463600D03*
D22*
X174501100Y-91543600D03*
D11*
X150622000Y-107315000D03*
D12*
X153162000Y-107315000D03*
X155702000Y-107315000D03*
X158242000Y-107315000D03*
X160782000Y-107315000D03*
X163322000Y-107315000D03*
X165862000Y-107315000D03*
X168402000Y-107315000D03*
X168402000Y-114935000D03*
X165862000Y-114935000D03*
X163322000Y-114935000D03*
X160782000Y-114935000D03*
X158242000Y-114935000D03*
X155702000Y-114935000D03*
X153162000Y-114935000D03*
X150622000Y-114935000D03*
D11*
X128524000Y-107315000D03*
D12*
X131064000Y-107315000D03*
X133604000Y-107315000D03*
X136144000Y-107315000D03*
X138684000Y-107315000D03*
X141224000Y-107315000D03*
X143764000Y-107315000D03*
X146304000Y-107315000D03*
X146304000Y-114935000D03*
X143764000Y-114935000D03*
X141224000Y-114935000D03*
X138684000Y-114935000D03*
X136144000Y-114935000D03*
X133604000Y-114935000D03*
X131064000Y-114935000D03*
X128524000Y-114935000D03*
D11*
X98567000Y-107315000D03*
D12*
X101107000Y-107315000D03*
X103647000Y-107315000D03*
X106187000Y-107315000D03*
X108727000Y-107315000D03*
X111267000Y-107315000D03*
X113807000Y-107315000D03*
X116347000Y-107315000D03*
X116347000Y-114935000D03*
X113807000Y-114935000D03*
X111267000Y-114935000D03*
X108727000Y-114935000D03*
X106187000Y-114935000D03*
X103647000Y-114935000D03*
X101107000Y-114935000D03*
X98567000Y-114935000D03*
D25*
X188225000Y-112310000D03*
X212725000Y-111760000D03*
X212725000Y-109220000D03*
X188225000Y-109770000D03*
X188225000Y-107230000D03*
D11*
X191566800Y-107289600D03*
D12*
X194106800Y-107289600D03*
X196646800Y-107289600D03*
X199186800Y-107289600D03*
X201726800Y-107289600D03*
X204266800Y-107289600D03*
X206806800Y-107289600D03*
X209346800Y-107289600D03*
X209346800Y-114909600D03*
X206806800Y-114909600D03*
X204266800Y-114909600D03*
X201726800Y-114909600D03*
X199186800Y-114909600D03*
X196646800Y-114909600D03*
X194106800Y-114909600D03*
X191566800Y-114909600D03*
M02*
