G04 #@! TF.GenerationSoftware,KiCad,Pcbnew,7.0.5*
G04 #@! TF.CreationDate,2023-09-06T13:33:27-04:00*
G04 #@! TF.ProjectId,untitled,756e7469-746c-4656-942e-6b696361645f,rev?*
G04 #@! TF.SameCoordinates,Original*
G04 #@! TF.FileFunction,Legend,Top*
G04 #@! TF.FilePolarity,Positive*
%FSLAX46Y46*%
G04 Gerber Fmt 4.6, Leading zero omitted, Abs format (unit mm)*
G04 Created by KiCad (PCBNEW 7.0.5) date 2023-09-06 13:33:27*
%MOMM*%
%LPD*%
G01*
G04 APERTURE LIST*
G04 Aperture macros list*
%AMRoundRect*
0 Rectangle with rounded corners*
0 $1 Rounding radius*
0 $2 $3 $4 $5 $6 $7 $8 $9 X,Y pos of 4 corners*
0 Add a 4 corners polygon primitive as box body*
4,1,4,$2,$3,$4,$5,$6,$7,$8,$9,$2,$3,0*
0 Add four circle primitives for the rounded corners*
1,1,$1+$1,$2,$3*
1,1,$1+$1,$4,$5*
1,1,$1+$1,$6,$7*
1,1,$1+$1,$8,$9*
0 Add four rect primitives between the rounded corners*
20,1,$1+$1,$2,$3,$4,$5,0*
20,1,$1+$1,$4,$5,$6,$7,0*
20,1,$1+$1,$6,$7,$8,$9,0*
20,1,$1+$1,$8,$9,$2,$3,0*%
G04 Aperture macros list end*
%ADD10C,0.100000*%
%ADD11C,0.150000*%
%ADD12C,0.174752*%
%ADD13C,0.101600*%
%ADD14C,0.120000*%
%ADD15C,0.127000*%
%ADD16C,0.203200*%
%ADD17RoundRect,0.250000X0.475000X-0.337500X0.475000X0.337500X-0.475000X0.337500X-0.475000X-0.337500X0*%
%ADD18R,1.600000X1.600000*%
%ADD19O,1.600000X1.600000*%
%ADD20C,3.100000*%
%ADD21RoundRect,0.250000X0.337500X0.475000X-0.337500X0.475000X-0.337500X-0.475000X0.337500X-0.475000X0*%
%ADD22RoundRect,0.250000X0.600000X-0.600000X0.600000X0.600000X-0.600000X0.600000X-0.600000X-0.600000X0*%
%ADD23C,1.700000*%
%ADD24C,2.603200*%
%ADD25RoundRect,0.250000X-0.350000X-0.450000X0.350000X-0.450000X0.350000X0.450000X-0.350000X0.450000X0*%
%ADD26C,4.000000*%
%ADD27RoundRect,0.250000X-0.475000X0.337500X-0.475000X-0.337500X0.475000X-0.337500X0.475000X0.337500X0*%
%ADD28R,1.308000X1.308000*%
%ADD29C,1.308000*%
%ADD30RoundRect,0.101600X0.800000X-0.500000X0.800000X0.500000X-0.800000X0.500000X-0.800000X-0.500000X0*%
%ADD31RoundRect,0.101600X3.100000X-2.700000X3.100000X2.700000X-3.100000X2.700000X-3.100000X-2.700000X0*%
%ADD32O,3.251200X1.727200*%
G04 APERTURE END LIST*
D10*
X214806884Y-109346466D02*
X215568789Y-109346466D01*
X215187836Y-109727419D02*
X215187836Y-108965514D01*
X216568788Y-109727419D02*
X215997360Y-109727419D01*
X216283074Y-109727419D02*
X216283074Y-108727419D01*
X216283074Y-108727419D02*
X216187836Y-108870276D01*
X216187836Y-108870276D02*
X216092598Y-108965514D01*
X216092598Y-108965514D02*
X215997360Y-109013133D01*
X216902122Y-108727419D02*
X217568788Y-108727419D01*
X217568788Y-108727419D02*
X217140217Y-109727419D01*
X218140217Y-108727419D02*
X218235455Y-108727419D01*
X218235455Y-108727419D02*
X218330693Y-108775038D01*
X218330693Y-108775038D02*
X218378312Y-108822657D01*
X218378312Y-108822657D02*
X218425931Y-108917895D01*
X218425931Y-108917895D02*
X218473550Y-109108371D01*
X218473550Y-109108371D02*
X218473550Y-109346466D01*
X218473550Y-109346466D02*
X218425931Y-109536942D01*
X218425931Y-109536942D02*
X218378312Y-109632180D01*
X218378312Y-109632180D02*
X218330693Y-109679800D01*
X218330693Y-109679800D02*
X218235455Y-109727419D01*
X218235455Y-109727419D02*
X218140217Y-109727419D01*
X218140217Y-109727419D02*
X218044979Y-109679800D01*
X218044979Y-109679800D02*
X217997360Y-109632180D01*
X217997360Y-109632180D02*
X217949741Y-109536942D01*
X217949741Y-109536942D02*
X217902122Y-109346466D01*
X217902122Y-109346466D02*
X217902122Y-109108371D01*
X217902122Y-109108371D02*
X217949741Y-108917895D01*
X217949741Y-108917895D02*
X217997360Y-108822657D01*
X217997360Y-108822657D02*
X218044979Y-108775038D01*
X218044979Y-108775038D02*
X218140217Y-108727419D01*
X218759265Y-108727419D02*
X219092598Y-109727419D01*
X219092598Y-109727419D02*
X219425931Y-108727419D01*
X215457693Y-111188038D02*
X215362455Y-111140419D01*
X215362455Y-111140419D02*
X215219598Y-111140419D01*
X215219598Y-111140419D02*
X215076741Y-111188038D01*
X215076741Y-111188038D02*
X214981503Y-111283276D01*
X214981503Y-111283276D02*
X214933884Y-111378514D01*
X214933884Y-111378514D02*
X214886265Y-111568990D01*
X214886265Y-111568990D02*
X214886265Y-111711847D01*
X214886265Y-111711847D02*
X214933884Y-111902323D01*
X214933884Y-111902323D02*
X214981503Y-111997561D01*
X214981503Y-111997561D02*
X215076741Y-112092800D01*
X215076741Y-112092800D02*
X215219598Y-112140419D01*
X215219598Y-112140419D02*
X215314836Y-112140419D01*
X215314836Y-112140419D02*
X215457693Y-112092800D01*
X215457693Y-112092800D02*
X215505312Y-112045180D01*
X215505312Y-112045180D02*
X215505312Y-111711847D01*
X215505312Y-111711847D02*
X215314836Y-111711847D01*
X215933884Y-112140419D02*
X215933884Y-111140419D01*
X215933884Y-111140419D02*
X216505312Y-112140419D01*
X216505312Y-112140419D02*
X216505312Y-111140419D01*
X216981503Y-112140419D02*
X216981503Y-111140419D01*
X216981503Y-111140419D02*
X217219598Y-111140419D01*
X217219598Y-111140419D02*
X217362455Y-111188038D01*
X217362455Y-111188038D02*
X217457693Y-111283276D01*
X217457693Y-111283276D02*
X217505312Y-111378514D01*
X217505312Y-111378514D02*
X217552931Y-111568990D01*
X217552931Y-111568990D02*
X217552931Y-111711847D01*
X217552931Y-111711847D02*
X217505312Y-111902323D01*
X217505312Y-111902323D02*
X217457693Y-111997561D01*
X217457693Y-111997561D02*
X217362455Y-112092800D01*
X217362455Y-112092800D02*
X217219598Y-112140419D01*
X217219598Y-112140419D02*
X216981503Y-112140419D01*
X190121265Y-110187800D02*
X190264122Y-110235419D01*
X190264122Y-110235419D02*
X190502217Y-110235419D01*
X190502217Y-110235419D02*
X190597455Y-110187800D01*
X190597455Y-110187800D02*
X190645074Y-110140180D01*
X190645074Y-110140180D02*
X190692693Y-110044942D01*
X190692693Y-110044942D02*
X190692693Y-109949704D01*
X190692693Y-109949704D02*
X190645074Y-109854466D01*
X190645074Y-109854466D02*
X190597455Y-109806847D01*
X190597455Y-109806847D02*
X190502217Y-109759228D01*
X190502217Y-109759228D02*
X190311741Y-109711609D01*
X190311741Y-109711609D02*
X190216503Y-109663990D01*
X190216503Y-109663990D02*
X190168884Y-109616371D01*
X190168884Y-109616371D02*
X190121265Y-109521133D01*
X190121265Y-109521133D02*
X190121265Y-109425895D01*
X190121265Y-109425895D02*
X190168884Y-109330657D01*
X190168884Y-109330657D02*
X190216503Y-109283038D01*
X190216503Y-109283038D02*
X190311741Y-109235419D01*
X190311741Y-109235419D02*
X190549836Y-109235419D01*
X190549836Y-109235419D02*
X190692693Y-109283038D01*
X191121265Y-110235419D02*
X191121265Y-109235419D01*
X191121265Y-109711609D02*
X191692693Y-109711609D01*
X191692693Y-110235419D02*
X191692693Y-109235419D01*
X192026027Y-109235419D02*
X192597455Y-109235419D01*
X192311741Y-110235419D02*
X192311741Y-109235419D01*
X192930789Y-110235419D02*
X192930789Y-109235419D01*
X192930789Y-109235419D02*
X193168884Y-109235419D01*
X193168884Y-109235419D02*
X193311741Y-109283038D01*
X193311741Y-109283038D02*
X193406979Y-109378276D01*
X193406979Y-109378276D02*
X193454598Y-109473514D01*
X193454598Y-109473514D02*
X193502217Y-109663990D01*
X193502217Y-109663990D02*
X193502217Y-109806847D01*
X193502217Y-109806847D02*
X193454598Y-109997323D01*
X193454598Y-109997323D02*
X193406979Y-110092561D01*
X193406979Y-110092561D02*
X193311741Y-110187800D01*
X193311741Y-110187800D02*
X193168884Y-110235419D01*
X193168884Y-110235419D02*
X192930789Y-110235419D01*
X193835551Y-109235419D02*
X194073646Y-110235419D01*
X194073646Y-110235419D02*
X194264122Y-109521133D01*
X194264122Y-109521133D02*
X194454598Y-110235419D01*
X194454598Y-110235419D02*
X194692694Y-109235419D01*
X195073646Y-110235419D02*
X195073646Y-109235419D01*
X195073646Y-109235419D02*
X195645074Y-110235419D01*
X195645074Y-110235419D02*
X195645074Y-109235419D01*
X190946693Y-111823038D02*
X190851455Y-111775419D01*
X190851455Y-111775419D02*
X190708598Y-111775419D01*
X190708598Y-111775419D02*
X190565741Y-111823038D01*
X190565741Y-111823038D02*
X190470503Y-111918276D01*
X190470503Y-111918276D02*
X190422884Y-112013514D01*
X190422884Y-112013514D02*
X190375265Y-112203990D01*
X190375265Y-112203990D02*
X190375265Y-112346847D01*
X190375265Y-112346847D02*
X190422884Y-112537323D01*
X190422884Y-112537323D02*
X190470503Y-112632561D01*
X190470503Y-112632561D02*
X190565741Y-112727800D01*
X190565741Y-112727800D02*
X190708598Y-112775419D01*
X190708598Y-112775419D02*
X190803836Y-112775419D01*
X190803836Y-112775419D02*
X190946693Y-112727800D01*
X190946693Y-112727800D02*
X190994312Y-112680180D01*
X190994312Y-112680180D02*
X190994312Y-112346847D01*
X190994312Y-112346847D02*
X190803836Y-112346847D01*
X191422884Y-112775419D02*
X191422884Y-111775419D01*
X191422884Y-111775419D02*
X191994312Y-112775419D01*
X191994312Y-112775419D02*
X191994312Y-111775419D01*
X192470503Y-112775419D02*
X192470503Y-111775419D01*
X192470503Y-111775419D02*
X192708598Y-111775419D01*
X192708598Y-111775419D02*
X192851455Y-111823038D01*
X192851455Y-111823038D02*
X192946693Y-111918276D01*
X192946693Y-111918276D02*
X192994312Y-112013514D01*
X192994312Y-112013514D02*
X193041931Y-112203990D01*
X193041931Y-112203990D02*
X193041931Y-112346847D01*
X193041931Y-112346847D02*
X192994312Y-112537323D01*
X192994312Y-112537323D02*
X192946693Y-112632561D01*
X192946693Y-112632561D02*
X192851455Y-112727800D01*
X192851455Y-112727800D02*
X192708598Y-112775419D01*
X192708598Y-112775419D02*
X192470503Y-112775419D01*
X183056884Y-106298466D02*
X183818789Y-106298466D01*
X183437836Y-106679419D02*
X183437836Y-105917514D01*
X184818788Y-106679419D02*
X184247360Y-106679419D01*
X184533074Y-106679419D02*
X184533074Y-105679419D01*
X184533074Y-105679419D02*
X184437836Y-105822276D01*
X184437836Y-105822276D02*
X184342598Y-105917514D01*
X184342598Y-105917514D02*
X184247360Y-105965133D01*
X185199741Y-105774657D02*
X185247360Y-105727038D01*
X185247360Y-105727038D02*
X185342598Y-105679419D01*
X185342598Y-105679419D02*
X185580693Y-105679419D01*
X185580693Y-105679419D02*
X185675931Y-105727038D01*
X185675931Y-105727038D02*
X185723550Y-105774657D01*
X185723550Y-105774657D02*
X185771169Y-105869895D01*
X185771169Y-105869895D02*
X185771169Y-105965133D01*
X185771169Y-105965133D02*
X185723550Y-106107990D01*
X185723550Y-106107990D02*
X185152122Y-106679419D01*
X185152122Y-106679419D02*
X185771169Y-106679419D01*
X186056884Y-105679419D02*
X186390217Y-106679419D01*
X186390217Y-106679419D02*
X186723550Y-105679419D01*
X74725884Y-109346466D02*
X75487789Y-109346466D01*
X75106836Y-109727419D02*
X75106836Y-108965514D01*
X76487788Y-109727419D02*
X75916360Y-109727419D01*
X76202074Y-109727419D02*
X76202074Y-108727419D01*
X76202074Y-108727419D02*
X76106836Y-108870276D01*
X76106836Y-108870276D02*
X76011598Y-108965514D01*
X76011598Y-108965514D02*
X75916360Y-109013133D01*
X76821122Y-108727419D02*
X77487788Y-108727419D01*
X77487788Y-108727419D02*
X77059217Y-109727419D01*
X78059217Y-108727419D02*
X78154455Y-108727419D01*
X78154455Y-108727419D02*
X78249693Y-108775038D01*
X78249693Y-108775038D02*
X78297312Y-108822657D01*
X78297312Y-108822657D02*
X78344931Y-108917895D01*
X78344931Y-108917895D02*
X78392550Y-109108371D01*
X78392550Y-109108371D02*
X78392550Y-109346466D01*
X78392550Y-109346466D02*
X78344931Y-109536942D01*
X78344931Y-109536942D02*
X78297312Y-109632180D01*
X78297312Y-109632180D02*
X78249693Y-109679800D01*
X78249693Y-109679800D02*
X78154455Y-109727419D01*
X78154455Y-109727419D02*
X78059217Y-109727419D01*
X78059217Y-109727419D02*
X77963979Y-109679800D01*
X77963979Y-109679800D02*
X77916360Y-109632180D01*
X77916360Y-109632180D02*
X77868741Y-109536942D01*
X77868741Y-109536942D02*
X77821122Y-109346466D01*
X77821122Y-109346466D02*
X77821122Y-109108371D01*
X77821122Y-109108371D02*
X77868741Y-108917895D01*
X77868741Y-108917895D02*
X77916360Y-108822657D01*
X77916360Y-108822657D02*
X77963979Y-108775038D01*
X77963979Y-108775038D02*
X78059217Y-108727419D01*
X78678265Y-108727419D02*
X79011598Y-109727419D01*
X79011598Y-109727419D02*
X79344931Y-108727419D01*
X88138533Y-104443884D02*
X88138533Y-105205789D01*
X87757580Y-104824836D02*
X88519485Y-104824836D01*
X87757580Y-106205788D02*
X87757580Y-105634360D01*
X87757580Y-105920074D02*
X88757580Y-105920074D01*
X88757580Y-105920074D02*
X88614723Y-105824836D01*
X88614723Y-105824836D02*
X88519485Y-105729598D01*
X88519485Y-105729598D02*
X88471866Y-105634360D01*
X88662342Y-106586741D02*
X88709961Y-106634360D01*
X88709961Y-106634360D02*
X88757580Y-106729598D01*
X88757580Y-106729598D02*
X88757580Y-106967693D01*
X88757580Y-106967693D02*
X88709961Y-107062931D01*
X88709961Y-107062931D02*
X88662342Y-107110550D01*
X88662342Y-107110550D02*
X88567104Y-107158169D01*
X88567104Y-107158169D02*
X88471866Y-107158169D01*
X88471866Y-107158169D02*
X88329009Y-107110550D01*
X88329009Y-107110550D02*
X87757580Y-106539122D01*
X87757580Y-106539122D02*
X87757580Y-107158169D01*
X88757580Y-107443884D02*
X87757580Y-107777217D01*
X87757580Y-107777217D02*
X88757580Y-108110550D01*
X86169961Y-106110693D02*
X86217580Y-106015455D01*
X86217580Y-106015455D02*
X86217580Y-105872598D01*
X86217580Y-105872598D02*
X86169961Y-105729741D01*
X86169961Y-105729741D02*
X86074723Y-105634503D01*
X86074723Y-105634503D02*
X85979485Y-105586884D01*
X85979485Y-105586884D02*
X85789009Y-105539265D01*
X85789009Y-105539265D02*
X85646152Y-105539265D01*
X85646152Y-105539265D02*
X85455676Y-105586884D01*
X85455676Y-105586884D02*
X85360438Y-105634503D01*
X85360438Y-105634503D02*
X85265200Y-105729741D01*
X85265200Y-105729741D02*
X85217580Y-105872598D01*
X85217580Y-105872598D02*
X85217580Y-105967836D01*
X85217580Y-105967836D02*
X85265200Y-106110693D01*
X85265200Y-106110693D02*
X85312819Y-106158312D01*
X85312819Y-106158312D02*
X85646152Y-106158312D01*
X85646152Y-106158312D02*
X85646152Y-105967836D01*
X85217580Y-106586884D02*
X86217580Y-106586884D01*
X86217580Y-106586884D02*
X85217580Y-107158312D01*
X85217580Y-107158312D02*
X86217580Y-107158312D01*
X85217580Y-107634503D02*
X86217580Y-107634503D01*
X86217580Y-107634503D02*
X86217580Y-107872598D01*
X86217580Y-107872598D02*
X86169961Y-108015455D01*
X86169961Y-108015455D02*
X86074723Y-108110693D01*
X86074723Y-108110693D02*
X85979485Y-108158312D01*
X85979485Y-108158312D02*
X85789009Y-108205931D01*
X85789009Y-108205931D02*
X85646152Y-108205931D01*
X85646152Y-108205931D02*
X85455676Y-108158312D01*
X85455676Y-108158312D02*
X85360438Y-108110693D01*
X85360438Y-108110693D02*
X85265200Y-108015455D01*
X85265200Y-108015455D02*
X85217580Y-107872598D01*
X85217580Y-107872598D02*
X85217580Y-107634503D01*
X83629961Y-106110693D02*
X83677580Y-106015455D01*
X83677580Y-106015455D02*
X83677580Y-105872598D01*
X83677580Y-105872598D02*
X83629961Y-105729741D01*
X83629961Y-105729741D02*
X83534723Y-105634503D01*
X83534723Y-105634503D02*
X83439485Y-105586884D01*
X83439485Y-105586884D02*
X83249009Y-105539265D01*
X83249009Y-105539265D02*
X83106152Y-105539265D01*
X83106152Y-105539265D02*
X82915676Y-105586884D01*
X82915676Y-105586884D02*
X82820438Y-105634503D01*
X82820438Y-105634503D02*
X82725200Y-105729741D01*
X82725200Y-105729741D02*
X82677580Y-105872598D01*
X82677580Y-105872598D02*
X82677580Y-105967836D01*
X82677580Y-105967836D02*
X82725200Y-106110693D01*
X82725200Y-106110693D02*
X82772819Y-106158312D01*
X82772819Y-106158312D02*
X83106152Y-106158312D01*
X83106152Y-106158312D02*
X83106152Y-105967836D01*
X82677580Y-106586884D02*
X83677580Y-106586884D01*
X83677580Y-106586884D02*
X82677580Y-107158312D01*
X82677580Y-107158312D02*
X83677580Y-107158312D01*
X82677580Y-107634503D02*
X83677580Y-107634503D01*
X83677580Y-107634503D02*
X83677580Y-107872598D01*
X83677580Y-107872598D02*
X83629961Y-108015455D01*
X83629961Y-108015455D02*
X83534723Y-108110693D01*
X83534723Y-108110693D02*
X83439485Y-108158312D01*
X83439485Y-108158312D02*
X83249009Y-108205931D01*
X83249009Y-108205931D02*
X83106152Y-108205931D01*
X83106152Y-108205931D02*
X82915676Y-108158312D01*
X82915676Y-108158312D02*
X82820438Y-108110693D01*
X82820438Y-108110693D02*
X82725200Y-108015455D01*
X82725200Y-108015455D02*
X82677580Y-107872598D01*
X82677580Y-107872598D02*
X82677580Y-107634503D01*
X88085152Y-114193726D02*
X88186168Y-113621306D01*
X87681091Y-113789665D02*
X88388198Y-113082558D01*
X88388198Y-113082558D02*
X88657572Y-113351932D01*
X88657572Y-113351932D02*
X88691244Y-113452947D01*
X88691244Y-113452947D02*
X88691244Y-113520291D01*
X88691244Y-113520291D02*
X88657572Y-113621306D01*
X88657572Y-113621306D02*
X88556557Y-113722321D01*
X88556557Y-113722321D02*
X88455542Y-113755993D01*
X88455542Y-113755993D02*
X88388198Y-113755993D01*
X88388198Y-113755993D02*
X88287183Y-113722321D01*
X88287183Y-113722321D02*
X88017809Y-113452947D01*
X88859603Y-114833489D02*
X88792259Y-114833489D01*
X88792259Y-114833489D02*
X88657572Y-114766146D01*
X88657572Y-114766146D02*
X88590229Y-114698802D01*
X88590229Y-114698802D02*
X88522885Y-114564115D01*
X88522885Y-114564115D02*
X88522885Y-114429428D01*
X88522885Y-114429428D02*
X88556557Y-114328413D01*
X88556557Y-114328413D02*
X88657572Y-114160054D01*
X88657572Y-114160054D02*
X88758588Y-114059039D01*
X88758588Y-114059039D02*
X88926946Y-113958024D01*
X88926946Y-113958024D02*
X89027962Y-113924352D01*
X89027962Y-113924352D02*
X89162649Y-113924352D01*
X89162649Y-113924352D02*
X89297336Y-113991695D01*
X89297336Y-113991695D02*
X89364679Y-114059039D01*
X89364679Y-114059039D02*
X89432023Y-114193726D01*
X89432023Y-114193726D02*
X89432023Y-114261069D01*
X89432023Y-115540596D02*
X89095305Y-115203878D01*
X89095305Y-115203878D02*
X89802412Y-114496772D01*
X89667725Y-115776298D02*
X90374832Y-115069191D01*
X90071786Y-116180359D02*
X90172801Y-115473252D01*
X90778893Y-115473252D02*
X89970771Y-115473252D01*
X85141091Y-113722321D02*
X85208435Y-113857008D01*
X85208435Y-113857008D02*
X85376794Y-114025367D01*
X85376794Y-114025367D02*
X85477809Y-114059039D01*
X85477809Y-114059039D02*
X85545152Y-114059039D01*
X85545152Y-114059039D02*
X85646168Y-114025367D01*
X85646168Y-114025367D02*
X85713511Y-113958024D01*
X85713511Y-113958024D02*
X85747183Y-113857008D01*
X85747183Y-113857008D02*
X85747183Y-113789665D01*
X85747183Y-113789665D02*
X85713511Y-113688649D01*
X85713511Y-113688649D02*
X85612496Y-113520291D01*
X85612496Y-113520291D02*
X85578824Y-113419275D01*
X85578824Y-113419275D02*
X85578824Y-113351932D01*
X85578824Y-113351932D02*
X85612496Y-113250917D01*
X85612496Y-113250917D02*
X85679839Y-113183573D01*
X85679839Y-113183573D02*
X85780855Y-113149901D01*
X85780855Y-113149901D02*
X85848198Y-113149901D01*
X85848198Y-113149901D02*
X85949213Y-113183573D01*
X85949213Y-113183573D02*
X86117572Y-113351932D01*
X86117572Y-113351932D02*
X86184916Y-113486619D01*
X86218588Y-114867161D02*
X86319603Y-114294741D01*
X85814527Y-114463100D02*
X86521633Y-113755993D01*
X86521633Y-113755993D02*
X86791007Y-114025367D01*
X86791007Y-114025367D02*
X86824679Y-114126382D01*
X86824679Y-114126382D02*
X86824679Y-114193726D01*
X86824679Y-114193726D02*
X86791007Y-114294741D01*
X86791007Y-114294741D02*
X86689992Y-114395756D01*
X86689992Y-114395756D02*
X86588977Y-114429428D01*
X86588977Y-114429428D02*
X86521633Y-114429428D01*
X86521633Y-114429428D02*
X86420618Y-114395756D01*
X86420618Y-114395756D02*
X86151244Y-114126382D01*
X86993038Y-115506924D02*
X86925694Y-115506924D01*
X86925694Y-115506924D02*
X86791007Y-115439581D01*
X86791007Y-115439581D02*
X86723664Y-115372237D01*
X86723664Y-115372237D02*
X86656320Y-115237550D01*
X86656320Y-115237550D02*
X86656320Y-115102863D01*
X86656320Y-115102863D02*
X86689992Y-115001848D01*
X86689992Y-115001848D02*
X86791007Y-114833489D01*
X86791007Y-114833489D02*
X86892023Y-114732474D01*
X86892023Y-114732474D02*
X87060381Y-114631459D01*
X87060381Y-114631459D02*
X87161397Y-114597787D01*
X87161397Y-114597787D02*
X87296084Y-114597787D01*
X87296084Y-114597787D02*
X87430771Y-114665130D01*
X87430771Y-114665130D02*
X87498114Y-114732474D01*
X87498114Y-114732474D02*
X87565458Y-114867161D01*
X87565458Y-114867161D02*
X87565458Y-114934504D01*
X87565458Y-116214031D02*
X87228740Y-115877313D01*
X87228740Y-115877313D02*
X87935847Y-115170207D01*
X87801160Y-116449733D02*
X88508267Y-115742627D01*
X88205221Y-116853794D02*
X88306236Y-116146688D01*
X88912328Y-116146688D02*
X88104206Y-116146688D01*
X82474091Y-113916665D02*
X83181198Y-113209558D01*
X83181198Y-113209558D02*
X83349557Y-113377917D01*
X83349557Y-113377917D02*
X83416901Y-113512604D01*
X83416901Y-113512604D02*
X83416901Y-113647291D01*
X83416901Y-113647291D02*
X83383229Y-113748306D01*
X83383229Y-113748306D02*
X83282213Y-113916665D01*
X83282213Y-113916665D02*
X83181198Y-114017680D01*
X83181198Y-114017680D02*
X83012839Y-114118695D01*
X83012839Y-114118695D02*
X82911824Y-114152367D01*
X82911824Y-114152367D02*
X82777137Y-114152367D01*
X82777137Y-114152367D02*
X82642450Y-114085024D01*
X82642450Y-114085024D02*
X82474091Y-113916665D01*
X83181198Y-114623772D02*
X83888305Y-113916665D01*
X83517915Y-114960489D02*
X84225022Y-114253382D01*
X84225022Y-114253382D02*
X83921976Y-115364550D01*
X83921976Y-115364550D02*
X84629083Y-114657443D01*
X78029091Y-112706321D02*
X78096435Y-112841008D01*
X78096435Y-112841008D02*
X78264794Y-113009367D01*
X78264794Y-113009367D02*
X78365809Y-113043039D01*
X78365809Y-113043039D02*
X78433152Y-113043039D01*
X78433152Y-113043039D02*
X78534168Y-113009367D01*
X78534168Y-113009367D02*
X78601511Y-112942024D01*
X78601511Y-112942024D02*
X78635183Y-112841008D01*
X78635183Y-112841008D02*
X78635183Y-112773665D01*
X78635183Y-112773665D02*
X78601511Y-112672649D01*
X78601511Y-112672649D02*
X78500496Y-112504291D01*
X78500496Y-112504291D02*
X78466824Y-112403275D01*
X78466824Y-112403275D02*
X78466824Y-112335932D01*
X78466824Y-112335932D02*
X78500496Y-112234917D01*
X78500496Y-112234917D02*
X78567839Y-112167573D01*
X78567839Y-112167573D02*
X78668855Y-112133901D01*
X78668855Y-112133901D02*
X78736198Y-112133901D01*
X78736198Y-112133901D02*
X78837213Y-112167573D01*
X78837213Y-112167573D02*
X79005572Y-112335932D01*
X79005572Y-112335932D02*
X79072916Y-112470619D01*
X78702527Y-113447100D02*
X79409633Y-112739993D01*
X79072916Y-113076711D02*
X79476977Y-113480772D01*
X79106588Y-113851161D02*
X79813694Y-113144054D01*
X80049397Y-113379756D02*
X80453458Y-113783817D01*
X79544320Y-114288894D02*
X80251427Y-113581787D01*
X79982053Y-114726627D02*
X80689160Y-114019520D01*
X80689160Y-114019520D02*
X80857519Y-114187878D01*
X80857519Y-114187878D02*
X80924862Y-114322565D01*
X80924862Y-114322565D02*
X80924862Y-114457252D01*
X80924862Y-114457252D02*
X80891191Y-114558268D01*
X80891191Y-114558268D02*
X80790175Y-114726627D01*
X80790175Y-114726627D02*
X80689160Y-114827642D01*
X80689160Y-114827642D02*
X80520801Y-114928657D01*
X80520801Y-114928657D02*
X80419786Y-114962329D01*
X80419786Y-114962329D02*
X80285099Y-114962329D01*
X80285099Y-114962329D02*
X80150412Y-114894985D01*
X80150412Y-114894985D02*
X79982053Y-114726627D01*
X81328923Y-114659283D02*
X80790175Y-115534749D01*
X80790175Y-115534749D02*
X81429939Y-115164359D01*
X81429939Y-115164359D02*
X81059549Y-115804123D01*
X81059549Y-115804123D02*
X81935015Y-115265375D01*
X81497282Y-116241855D02*
X82204389Y-115534748D01*
X82204389Y-115534748D02*
X81901343Y-116645916D01*
X81901343Y-116645916D02*
X82608450Y-115938809D01*
D11*
X94310580Y-113937166D02*
X94358200Y-113984785D01*
X94358200Y-113984785D02*
X94405819Y-114127642D01*
X94405819Y-114127642D02*
X94405819Y-114222880D01*
X94405819Y-114222880D02*
X94358200Y-114365737D01*
X94358200Y-114365737D02*
X94262961Y-114460975D01*
X94262961Y-114460975D02*
X94167723Y-114508594D01*
X94167723Y-114508594D02*
X93977247Y-114556213D01*
X93977247Y-114556213D02*
X93834390Y-114556213D01*
X93834390Y-114556213D02*
X93643914Y-114508594D01*
X93643914Y-114508594D02*
X93548676Y-114460975D01*
X93548676Y-114460975D02*
X93453438Y-114365737D01*
X93453438Y-114365737D02*
X93405819Y-114222880D01*
X93405819Y-114222880D02*
X93405819Y-114127642D01*
X93405819Y-114127642D02*
X93453438Y-113984785D01*
X93453438Y-113984785D02*
X93501057Y-113937166D01*
X93501057Y-113556213D02*
X93453438Y-113508594D01*
X93453438Y-113508594D02*
X93405819Y-113413356D01*
X93405819Y-113413356D02*
X93405819Y-113175261D01*
X93405819Y-113175261D02*
X93453438Y-113080023D01*
X93453438Y-113080023D02*
X93501057Y-113032404D01*
X93501057Y-113032404D02*
X93596295Y-112984785D01*
X93596295Y-112984785D02*
X93691533Y-112984785D01*
X93691533Y-112984785D02*
X93834390Y-113032404D01*
X93834390Y-113032404D02*
X94405819Y-113603832D01*
X94405819Y-113603832D02*
X94405819Y-112984785D01*
X100149819Y-102250666D02*
X99149819Y-102250666D01*
X99149819Y-102250666D02*
X99149819Y-102012571D01*
X99149819Y-102012571D02*
X99197438Y-101869714D01*
X99197438Y-101869714D02*
X99292676Y-101774476D01*
X99292676Y-101774476D02*
X99387914Y-101726857D01*
X99387914Y-101726857D02*
X99578390Y-101679238D01*
X99578390Y-101679238D02*
X99721247Y-101679238D01*
X99721247Y-101679238D02*
X99911723Y-101726857D01*
X99911723Y-101726857D02*
X100006961Y-101774476D01*
X100006961Y-101774476D02*
X100102200Y-101869714D01*
X100102200Y-101869714D02*
X100149819Y-102012571D01*
X100149819Y-102012571D02*
X100149819Y-102250666D01*
X100149819Y-100679238D02*
X99673628Y-101012571D01*
X100149819Y-101250666D02*
X99149819Y-101250666D01*
X99149819Y-101250666D02*
X99149819Y-100869714D01*
X99149819Y-100869714D02*
X99197438Y-100774476D01*
X99197438Y-100774476D02*
X99245057Y-100726857D01*
X99245057Y-100726857D02*
X99340295Y-100679238D01*
X99340295Y-100679238D02*
X99483152Y-100679238D01*
X99483152Y-100679238D02*
X99578390Y-100726857D01*
X99578390Y-100726857D02*
X99626009Y-100774476D01*
X99626009Y-100774476D02*
X99673628Y-100869714D01*
X99673628Y-100869714D02*
X99673628Y-101250666D01*
X99149819Y-100393523D02*
X100149819Y-100060190D01*
X100149819Y-100060190D02*
X99149819Y-99726857D01*
X99245057Y-99441142D02*
X99197438Y-99393523D01*
X99197438Y-99393523D02*
X99149819Y-99298285D01*
X99149819Y-99298285D02*
X99149819Y-99060190D01*
X99149819Y-99060190D02*
X99197438Y-98964952D01*
X99197438Y-98964952D02*
X99245057Y-98917333D01*
X99245057Y-98917333D02*
X99340295Y-98869714D01*
X99340295Y-98869714D02*
X99435533Y-98869714D01*
X99435533Y-98869714D02*
X99578390Y-98917333D01*
X99578390Y-98917333D02*
X100149819Y-99488761D01*
X100149819Y-99488761D02*
X100149819Y-98869714D01*
X118818819Y-103845904D02*
X117818819Y-103845904D01*
X118818819Y-103274476D02*
X118247390Y-103703047D01*
X117818819Y-103274476D02*
X118390247Y-103845904D01*
X118818819Y-102322095D02*
X118818819Y-102893523D01*
X118818819Y-102607809D02*
X117818819Y-102607809D01*
X117818819Y-102607809D02*
X117961676Y-102703047D01*
X117961676Y-102703047D02*
X118056914Y-102798285D01*
X118056914Y-102798285D02*
X118104533Y-102893523D01*
X117818819Y-101417333D02*
X117818819Y-101893523D01*
X117818819Y-101893523D02*
X118295009Y-101941142D01*
X118295009Y-101941142D02*
X118247390Y-101893523D01*
X118247390Y-101893523D02*
X118199771Y-101798285D01*
X118199771Y-101798285D02*
X118199771Y-101560190D01*
X118199771Y-101560190D02*
X118247390Y-101464952D01*
X118247390Y-101464952D02*
X118295009Y-101417333D01*
X118295009Y-101417333D02*
X118390247Y-101369714D01*
X118390247Y-101369714D02*
X118628342Y-101369714D01*
X118628342Y-101369714D02*
X118723580Y-101417333D01*
X118723580Y-101417333D02*
X118771200Y-101464952D01*
X118771200Y-101464952D02*
X118818819Y-101560190D01*
X118818819Y-101560190D02*
X118818819Y-101798285D01*
X118818819Y-101798285D02*
X118771200Y-101893523D01*
X118771200Y-101893523D02*
X118723580Y-101941142D01*
X117818819Y-100464952D02*
X117818819Y-100941142D01*
X117818819Y-100941142D02*
X118295009Y-100988761D01*
X118295009Y-100988761D02*
X118247390Y-100941142D01*
X118247390Y-100941142D02*
X118199771Y-100845904D01*
X118199771Y-100845904D02*
X118199771Y-100607809D01*
X118199771Y-100607809D02*
X118247390Y-100512571D01*
X118247390Y-100512571D02*
X118295009Y-100464952D01*
X118295009Y-100464952D02*
X118390247Y-100417333D01*
X118390247Y-100417333D02*
X118628342Y-100417333D01*
X118628342Y-100417333D02*
X118723580Y-100464952D01*
X118723580Y-100464952D02*
X118771200Y-100512571D01*
X118771200Y-100512571D02*
X118818819Y-100607809D01*
X118818819Y-100607809D02*
X118818819Y-100845904D01*
X118818819Y-100845904D02*
X118771200Y-100941142D01*
X118771200Y-100941142D02*
X118723580Y-100988761D01*
X117818819Y-99988761D02*
X118818819Y-99988761D01*
X118818819Y-99988761D02*
X117818819Y-99417333D01*
X117818819Y-99417333D02*
X118818819Y-99417333D01*
X119056914Y-98179238D02*
X118818819Y-98179238D01*
X118818819Y-98179238D02*
X118818819Y-99036380D01*
X118818819Y-99036380D02*
X119056914Y-99036380D01*
X118818819Y-98369714D02*
X117818819Y-98369714D01*
X117818819Y-98369714D02*
X117818819Y-98607809D01*
X117818819Y-98607809D02*
X117866438Y-98703047D01*
X117866438Y-98703047D02*
X117914057Y-98750666D01*
X117914057Y-98750666D02*
X118009295Y-98798285D01*
X118009295Y-98798285D02*
X118818819Y-98893523D01*
X118818819Y-97274476D02*
X118818819Y-97845904D01*
X118818819Y-97560190D02*
X117818819Y-97560190D01*
X117818819Y-97560190D02*
X117961676Y-97655428D01*
X117961676Y-97655428D02*
X118056914Y-97750666D01*
X118056914Y-97750666D02*
X118104533Y-97845904D01*
X148909833Y-114815580D02*
X148862214Y-114863200D01*
X148862214Y-114863200D02*
X148719357Y-114910819D01*
X148719357Y-114910819D02*
X148624119Y-114910819D01*
X148624119Y-114910819D02*
X148481262Y-114863200D01*
X148481262Y-114863200D02*
X148386024Y-114767961D01*
X148386024Y-114767961D02*
X148338405Y-114672723D01*
X148338405Y-114672723D02*
X148290786Y-114482247D01*
X148290786Y-114482247D02*
X148290786Y-114339390D01*
X148290786Y-114339390D02*
X148338405Y-114148914D01*
X148338405Y-114148914D02*
X148386024Y-114053676D01*
X148386024Y-114053676D02*
X148481262Y-113958438D01*
X148481262Y-113958438D02*
X148624119Y-113910819D01*
X148624119Y-113910819D02*
X148719357Y-113910819D01*
X148719357Y-113910819D02*
X148862214Y-113958438D01*
X148862214Y-113958438D02*
X148909833Y-114006057D01*
X149386024Y-114910819D02*
X149576500Y-114910819D01*
X149576500Y-114910819D02*
X149671738Y-114863200D01*
X149671738Y-114863200D02*
X149719357Y-114815580D01*
X149719357Y-114815580D02*
X149814595Y-114672723D01*
X149814595Y-114672723D02*
X149862214Y-114482247D01*
X149862214Y-114482247D02*
X149862214Y-114101295D01*
X149862214Y-114101295D02*
X149814595Y-114006057D01*
X149814595Y-114006057D02*
X149766976Y-113958438D01*
X149766976Y-113958438D02*
X149671738Y-113910819D01*
X149671738Y-113910819D02*
X149481262Y-113910819D01*
X149481262Y-113910819D02*
X149386024Y-113958438D01*
X149386024Y-113958438D02*
X149338405Y-114006057D01*
X149338405Y-114006057D02*
X149290786Y-114101295D01*
X149290786Y-114101295D02*
X149290786Y-114339390D01*
X149290786Y-114339390D02*
X149338405Y-114434628D01*
X149338405Y-114434628D02*
X149386024Y-114482247D01*
X149386024Y-114482247D02*
X149481262Y-114529866D01*
X149481262Y-114529866D02*
X149671738Y-114529866D01*
X149671738Y-114529866D02*
X149766976Y-114482247D01*
X149766976Y-114482247D02*
X149814595Y-114434628D01*
X149814595Y-114434628D02*
X149862214Y-114339390D01*
X73999819Y-110950333D02*
X74714104Y-110950333D01*
X74714104Y-110950333D02*
X74856961Y-110997952D01*
X74856961Y-110997952D02*
X74952200Y-111093190D01*
X74952200Y-111093190D02*
X74999819Y-111236047D01*
X74999819Y-111236047D02*
X74999819Y-111331285D01*
X74999819Y-109950333D02*
X74999819Y-110521761D01*
X74999819Y-110236047D02*
X73999819Y-110236047D01*
X73999819Y-110236047D02*
X74142676Y-110331285D01*
X74142676Y-110331285D02*
X74237914Y-110426523D01*
X74237914Y-110426523D02*
X74285533Y-110521761D01*
D12*
X80379555Y-69413569D02*
X80379555Y-67403921D01*
X80379555Y-67403921D02*
X81527925Y-69413569D01*
X81527925Y-69413569D02*
X81527925Y-67403921D01*
X83537574Y-69413569D02*
X82389204Y-69413569D01*
X82963389Y-69413569D02*
X82963389Y-67403921D01*
X82963389Y-67403921D02*
X82771994Y-67691014D01*
X82771994Y-67691014D02*
X82580599Y-67882409D01*
X82580599Y-67882409D02*
X82389204Y-67978106D01*
D11*
X145740333Y-89863819D02*
X145407000Y-89387628D01*
X145168905Y-89863819D02*
X145168905Y-88863819D01*
X145168905Y-88863819D02*
X145549857Y-88863819D01*
X145549857Y-88863819D02*
X145645095Y-88911438D01*
X145645095Y-88911438D02*
X145692714Y-88959057D01*
X145692714Y-88959057D02*
X145740333Y-89054295D01*
X145740333Y-89054295D02*
X145740333Y-89197152D01*
X145740333Y-89197152D02*
X145692714Y-89292390D01*
X145692714Y-89292390D02*
X145645095Y-89340009D01*
X145645095Y-89340009D02*
X145549857Y-89387628D01*
X145549857Y-89387628D02*
X145168905Y-89387628D01*
X146073667Y-88863819D02*
X146692714Y-88863819D01*
X146692714Y-88863819D02*
X146359381Y-89244771D01*
X146359381Y-89244771D02*
X146502238Y-89244771D01*
X146502238Y-89244771D02*
X146597476Y-89292390D01*
X146597476Y-89292390D02*
X146645095Y-89340009D01*
X146645095Y-89340009D02*
X146692714Y-89435247D01*
X146692714Y-89435247D02*
X146692714Y-89673342D01*
X146692714Y-89673342D02*
X146645095Y-89768580D01*
X146645095Y-89768580D02*
X146597476Y-89816200D01*
X146597476Y-89816200D02*
X146502238Y-89863819D01*
X146502238Y-89863819D02*
X146216524Y-89863819D01*
X146216524Y-89863819D02*
X146121286Y-89816200D01*
X146121286Y-89816200D02*
X146073667Y-89768580D01*
X183366580Y-110497857D02*
X183414200Y-110545476D01*
X183414200Y-110545476D02*
X183461819Y-110688333D01*
X183461819Y-110688333D02*
X183461819Y-110783571D01*
X183461819Y-110783571D02*
X183414200Y-110926428D01*
X183414200Y-110926428D02*
X183318961Y-111021666D01*
X183318961Y-111021666D02*
X183223723Y-111069285D01*
X183223723Y-111069285D02*
X183033247Y-111116904D01*
X183033247Y-111116904D02*
X182890390Y-111116904D01*
X182890390Y-111116904D02*
X182699914Y-111069285D01*
X182699914Y-111069285D02*
X182604676Y-111021666D01*
X182604676Y-111021666D02*
X182509438Y-110926428D01*
X182509438Y-110926428D02*
X182461819Y-110783571D01*
X182461819Y-110783571D02*
X182461819Y-110688333D01*
X182461819Y-110688333D02*
X182509438Y-110545476D01*
X182509438Y-110545476D02*
X182557057Y-110497857D01*
X183461819Y-109545476D02*
X183461819Y-110116904D01*
X183461819Y-109831190D02*
X182461819Y-109831190D01*
X182461819Y-109831190D02*
X182604676Y-109926428D01*
X182604676Y-109926428D02*
X182699914Y-110021666D01*
X182699914Y-110021666D02*
X182747533Y-110116904D01*
X183461819Y-108593095D02*
X183461819Y-109164523D01*
X183461819Y-108878809D02*
X182461819Y-108878809D01*
X182461819Y-108878809D02*
X182604676Y-108974047D01*
X182604676Y-108974047D02*
X182699914Y-109069285D01*
X182699914Y-109069285D02*
X182747533Y-109164523D01*
X188174333Y-116564580D02*
X188126714Y-116612200D01*
X188126714Y-116612200D02*
X187983857Y-116659819D01*
X187983857Y-116659819D02*
X187888619Y-116659819D01*
X187888619Y-116659819D02*
X187745762Y-116612200D01*
X187745762Y-116612200D02*
X187650524Y-116516961D01*
X187650524Y-116516961D02*
X187602905Y-116421723D01*
X187602905Y-116421723D02*
X187555286Y-116231247D01*
X187555286Y-116231247D02*
X187555286Y-116088390D01*
X187555286Y-116088390D02*
X187602905Y-115897914D01*
X187602905Y-115897914D02*
X187650524Y-115802676D01*
X187650524Y-115802676D02*
X187745762Y-115707438D01*
X187745762Y-115707438D02*
X187888619Y-115659819D01*
X187888619Y-115659819D02*
X187983857Y-115659819D01*
X187983857Y-115659819D02*
X188126714Y-115707438D01*
X188126714Y-115707438D02*
X188174333Y-115755057D01*
X188745762Y-116088390D02*
X188650524Y-116040771D01*
X188650524Y-116040771D02*
X188602905Y-115993152D01*
X188602905Y-115993152D02*
X188555286Y-115897914D01*
X188555286Y-115897914D02*
X188555286Y-115850295D01*
X188555286Y-115850295D02*
X188602905Y-115755057D01*
X188602905Y-115755057D02*
X188650524Y-115707438D01*
X188650524Y-115707438D02*
X188745762Y-115659819D01*
X188745762Y-115659819D02*
X188936238Y-115659819D01*
X188936238Y-115659819D02*
X189031476Y-115707438D01*
X189031476Y-115707438D02*
X189079095Y-115755057D01*
X189079095Y-115755057D02*
X189126714Y-115850295D01*
X189126714Y-115850295D02*
X189126714Y-115897914D01*
X189126714Y-115897914D02*
X189079095Y-115993152D01*
X189079095Y-115993152D02*
X189031476Y-116040771D01*
X189031476Y-116040771D02*
X188936238Y-116088390D01*
X188936238Y-116088390D02*
X188745762Y-116088390D01*
X188745762Y-116088390D02*
X188650524Y-116136009D01*
X188650524Y-116136009D02*
X188602905Y-116183628D01*
X188602905Y-116183628D02*
X188555286Y-116278866D01*
X188555286Y-116278866D02*
X188555286Y-116469342D01*
X188555286Y-116469342D02*
X188602905Y-116564580D01*
X188602905Y-116564580D02*
X188650524Y-116612200D01*
X188650524Y-116612200D02*
X188745762Y-116659819D01*
X188745762Y-116659819D02*
X188936238Y-116659819D01*
X188936238Y-116659819D02*
X189031476Y-116612200D01*
X189031476Y-116612200D02*
X189079095Y-116564580D01*
X189079095Y-116564580D02*
X189126714Y-116469342D01*
X189126714Y-116469342D02*
X189126714Y-116278866D01*
X189126714Y-116278866D02*
X189079095Y-116183628D01*
X189079095Y-116183628D02*
X189031476Y-116136009D01*
X189031476Y-116136009D02*
X188936238Y-116088390D01*
X182731580Y-115323857D02*
X182779200Y-115371476D01*
X182779200Y-115371476D02*
X182826819Y-115514333D01*
X182826819Y-115514333D02*
X182826819Y-115609571D01*
X182826819Y-115609571D02*
X182779200Y-115752428D01*
X182779200Y-115752428D02*
X182683961Y-115847666D01*
X182683961Y-115847666D02*
X182588723Y-115895285D01*
X182588723Y-115895285D02*
X182398247Y-115942904D01*
X182398247Y-115942904D02*
X182255390Y-115942904D01*
X182255390Y-115942904D02*
X182064914Y-115895285D01*
X182064914Y-115895285D02*
X181969676Y-115847666D01*
X181969676Y-115847666D02*
X181874438Y-115752428D01*
X181874438Y-115752428D02*
X181826819Y-115609571D01*
X181826819Y-115609571D02*
X181826819Y-115514333D01*
X181826819Y-115514333D02*
X181874438Y-115371476D01*
X181874438Y-115371476D02*
X181922057Y-115323857D01*
X182826819Y-114371476D02*
X182826819Y-114942904D01*
X182826819Y-114657190D02*
X181826819Y-114657190D01*
X181826819Y-114657190D02*
X181969676Y-114752428D01*
X181969676Y-114752428D02*
X182064914Y-114847666D01*
X182064914Y-114847666D02*
X182112533Y-114942904D01*
X181922057Y-113990523D02*
X181874438Y-113942904D01*
X181874438Y-113942904D02*
X181826819Y-113847666D01*
X181826819Y-113847666D02*
X181826819Y-113609571D01*
X181826819Y-113609571D02*
X181874438Y-113514333D01*
X181874438Y-113514333D02*
X181922057Y-113466714D01*
X181922057Y-113466714D02*
X182017295Y-113419095D01*
X182017295Y-113419095D02*
X182112533Y-113419095D01*
X182112533Y-113419095D02*
X182255390Y-113466714D01*
X182255390Y-113466714D02*
X182826819Y-114038142D01*
X182826819Y-114038142D02*
X182826819Y-113419095D01*
X219781333Y-89990819D02*
X219448000Y-89514628D01*
X219209905Y-89990819D02*
X219209905Y-88990819D01*
X219209905Y-88990819D02*
X219590857Y-88990819D01*
X219590857Y-88990819D02*
X219686095Y-89038438D01*
X219686095Y-89038438D02*
X219733714Y-89086057D01*
X219733714Y-89086057D02*
X219781333Y-89181295D01*
X219781333Y-89181295D02*
X219781333Y-89324152D01*
X219781333Y-89324152D02*
X219733714Y-89419390D01*
X219733714Y-89419390D02*
X219686095Y-89467009D01*
X219686095Y-89467009D02*
X219590857Y-89514628D01*
X219590857Y-89514628D02*
X219209905Y-89514628D01*
X220638476Y-88990819D02*
X220448000Y-88990819D01*
X220448000Y-88990819D02*
X220352762Y-89038438D01*
X220352762Y-89038438D02*
X220305143Y-89086057D01*
X220305143Y-89086057D02*
X220209905Y-89228914D01*
X220209905Y-89228914D02*
X220162286Y-89419390D01*
X220162286Y-89419390D02*
X220162286Y-89800342D01*
X220162286Y-89800342D02*
X220209905Y-89895580D01*
X220209905Y-89895580D02*
X220257524Y-89943200D01*
X220257524Y-89943200D02*
X220352762Y-89990819D01*
X220352762Y-89990819D02*
X220543238Y-89990819D01*
X220543238Y-89990819D02*
X220638476Y-89943200D01*
X220638476Y-89943200D02*
X220686095Y-89895580D01*
X220686095Y-89895580D02*
X220733714Y-89800342D01*
X220733714Y-89800342D02*
X220733714Y-89562247D01*
X220733714Y-89562247D02*
X220686095Y-89467009D01*
X220686095Y-89467009D02*
X220638476Y-89419390D01*
X220638476Y-89419390D02*
X220543238Y-89371771D01*
X220543238Y-89371771D02*
X220352762Y-89371771D01*
X220352762Y-89371771D02*
X220257524Y-89419390D01*
X220257524Y-89419390D02*
X220209905Y-89467009D01*
X220209905Y-89467009D02*
X220162286Y-89562247D01*
D12*
X102379555Y-69413569D02*
X102379555Y-67403921D01*
X102379555Y-67403921D02*
X103527925Y-69413569D01*
X103527925Y-69413569D02*
X103527925Y-67403921D01*
X104389204Y-67595316D02*
X104484901Y-67499619D01*
X104484901Y-67499619D02*
X104676296Y-67403921D01*
X104676296Y-67403921D02*
X105154784Y-67403921D01*
X105154784Y-67403921D02*
X105346179Y-67499619D01*
X105346179Y-67499619D02*
X105441876Y-67595316D01*
X105441876Y-67595316D02*
X105537574Y-67786711D01*
X105537574Y-67786711D02*
X105537574Y-67978106D01*
X105537574Y-67978106D02*
X105441876Y-68265199D01*
X105441876Y-68265199D02*
X104293506Y-69413569D01*
X104293506Y-69413569D02*
X105537574Y-69413569D01*
D11*
X181937819Y-102250666D02*
X180937819Y-102250666D01*
X180937819Y-102250666D02*
X180937819Y-102012571D01*
X180937819Y-102012571D02*
X180985438Y-101869714D01*
X180985438Y-101869714D02*
X181080676Y-101774476D01*
X181080676Y-101774476D02*
X181175914Y-101726857D01*
X181175914Y-101726857D02*
X181366390Y-101679238D01*
X181366390Y-101679238D02*
X181509247Y-101679238D01*
X181509247Y-101679238D02*
X181699723Y-101726857D01*
X181699723Y-101726857D02*
X181794961Y-101774476D01*
X181794961Y-101774476D02*
X181890200Y-101869714D01*
X181890200Y-101869714D02*
X181937819Y-102012571D01*
X181937819Y-102012571D02*
X181937819Y-102250666D01*
X181937819Y-100679238D02*
X181461628Y-101012571D01*
X181937819Y-101250666D02*
X180937819Y-101250666D01*
X180937819Y-101250666D02*
X180937819Y-100869714D01*
X180937819Y-100869714D02*
X180985438Y-100774476D01*
X180985438Y-100774476D02*
X181033057Y-100726857D01*
X181033057Y-100726857D02*
X181128295Y-100679238D01*
X181128295Y-100679238D02*
X181271152Y-100679238D01*
X181271152Y-100679238D02*
X181366390Y-100726857D01*
X181366390Y-100726857D02*
X181414009Y-100774476D01*
X181414009Y-100774476D02*
X181461628Y-100869714D01*
X181461628Y-100869714D02*
X181461628Y-101250666D01*
X180937819Y-100393523D02*
X181937819Y-100060190D01*
X181937819Y-100060190D02*
X180937819Y-99726857D01*
X180937819Y-98917333D02*
X180937819Y-99393523D01*
X180937819Y-99393523D02*
X181414009Y-99441142D01*
X181414009Y-99441142D02*
X181366390Y-99393523D01*
X181366390Y-99393523D02*
X181318771Y-99298285D01*
X181318771Y-99298285D02*
X181318771Y-99060190D01*
X181318771Y-99060190D02*
X181366390Y-98964952D01*
X181366390Y-98964952D02*
X181414009Y-98917333D01*
X181414009Y-98917333D02*
X181509247Y-98869714D01*
X181509247Y-98869714D02*
X181747342Y-98869714D01*
X181747342Y-98869714D02*
X181842580Y-98917333D01*
X181842580Y-98917333D02*
X181890200Y-98964952D01*
X181890200Y-98964952D02*
X181937819Y-99060190D01*
X181937819Y-99060190D02*
X181937819Y-99298285D01*
X181937819Y-99298285D02*
X181890200Y-99393523D01*
X181890200Y-99393523D02*
X181842580Y-99441142D01*
X200860819Y-103845904D02*
X199860819Y-103845904D01*
X200860819Y-103274476D02*
X200289390Y-103703047D01*
X199860819Y-103274476D02*
X200432247Y-103845904D01*
X200860819Y-102322095D02*
X200860819Y-102893523D01*
X200860819Y-102607809D02*
X199860819Y-102607809D01*
X199860819Y-102607809D02*
X200003676Y-102703047D01*
X200003676Y-102703047D02*
X200098914Y-102798285D01*
X200098914Y-102798285D02*
X200146533Y-102893523D01*
X199860819Y-101417333D02*
X199860819Y-101893523D01*
X199860819Y-101893523D02*
X200337009Y-101941142D01*
X200337009Y-101941142D02*
X200289390Y-101893523D01*
X200289390Y-101893523D02*
X200241771Y-101798285D01*
X200241771Y-101798285D02*
X200241771Y-101560190D01*
X200241771Y-101560190D02*
X200289390Y-101464952D01*
X200289390Y-101464952D02*
X200337009Y-101417333D01*
X200337009Y-101417333D02*
X200432247Y-101369714D01*
X200432247Y-101369714D02*
X200670342Y-101369714D01*
X200670342Y-101369714D02*
X200765580Y-101417333D01*
X200765580Y-101417333D02*
X200813200Y-101464952D01*
X200813200Y-101464952D02*
X200860819Y-101560190D01*
X200860819Y-101560190D02*
X200860819Y-101798285D01*
X200860819Y-101798285D02*
X200813200Y-101893523D01*
X200813200Y-101893523D02*
X200765580Y-101941142D01*
X199860819Y-100464952D02*
X199860819Y-100941142D01*
X199860819Y-100941142D02*
X200337009Y-100988761D01*
X200337009Y-100988761D02*
X200289390Y-100941142D01*
X200289390Y-100941142D02*
X200241771Y-100845904D01*
X200241771Y-100845904D02*
X200241771Y-100607809D01*
X200241771Y-100607809D02*
X200289390Y-100512571D01*
X200289390Y-100512571D02*
X200337009Y-100464952D01*
X200337009Y-100464952D02*
X200432247Y-100417333D01*
X200432247Y-100417333D02*
X200670342Y-100417333D01*
X200670342Y-100417333D02*
X200765580Y-100464952D01*
X200765580Y-100464952D02*
X200813200Y-100512571D01*
X200813200Y-100512571D02*
X200860819Y-100607809D01*
X200860819Y-100607809D02*
X200860819Y-100845904D01*
X200860819Y-100845904D02*
X200813200Y-100941142D01*
X200813200Y-100941142D02*
X200765580Y-100988761D01*
X199860819Y-99988761D02*
X200860819Y-99988761D01*
X200860819Y-99988761D02*
X199860819Y-99417333D01*
X199860819Y-99417333D02*
X200860819Y-99417333D01*
X201098914Y-98179238D02*
X200860819Y-98179238D01*
X200860819Y-98179238D02*
X200860819Y-99036380D01*
X200860819Y-99036380D02*
X201098914Y-99036380D01*
X200860819Y-98369714D02*
X199860819Y-98369714D01*
X199860819Y-98369714D02*
X199860819Y-98607809D01*
X199860819Y-98607809D02*
X199908438Y-98703047D01*
X199908438Y-98703047D02*
X199956057Y-98750666D01*
X199956057Y-98750666D02*
X200051295Y-98798285D01*
X200051295Y-98798285D02*
X200860819Y-98893523D01*
X200860819Y-97274476D02*
X200860819Y-97845904D01*
X200860819Y-97560190D02*
X199860819Y-97560190D01*
X199860819Y-97560190D02*
X200003676Y-97655428D01*
X200003676Y-97655428D02*
X200098914Y-97750666D01*
X200098914Y-97750666D02*
X200146533Y-97845904D01*
X129740819Y-102123666D02*
X128740819Y-102123666D01*
X128740819Y-102123666D02*
X128740819Y-101885571D01*
X128740819Y-101885571D02*
X128788438Y-101742714D01*
X128788438Y-101742714D02*
X128883676Y-101647476D01*
X128883676Y-101647476D02*
X128978914Y-101599857D01*
X128978914Y-101599857D02*
X129169390Y-101552238D01*
X129169390Y-101552238D02*
X129312247Y-101552238D01*
X129312247Y-101552238D02*
X129502723Y-101599857D01*
X129502723Y-101599857D02*
X129597961Y-101647476D01*
X129597961Y-101647476D02*
X129693200Y-101742714D01*
X129693200Y-101742714D02*
X129740819Y-101885571D01*
X129740819Y-101885571D02*
X129740819Y-102123666D01*
X129740819Y-100552238D02*
X129264628Y-100885571D01*
X129740819Y-101123666D02*
X128740819Y-101123666D01*
X128740819Y-101123666D02*
X128740819Y-100742714D01*
X128740819Y-100742714D02*
X128788438Y-100647476D01*
X128788438Y-100647476D02*
X128836057Y-100599857D01*
X128836057Y-100599857D02*
X128931295Y-100552238D01*
X128931295Y-100552238D02*
X129074152Y-100552238D01*
X129074152Y-100552238D02*
X129169390Y-100599857D01*
X129169390Y-100599857D02*
X129217009Y-100647476D01*
X129217009Y-100647476D02*
X129264628Y-100742714D01*
X129264628Y-100742714D02*
X129264628Y-101123666D01*
X128740819Y-100266523D02*
X129740819Y-99933190D01*
X129740819Y-99933190D02*
X128740819Y-99599857D01*
X128740819Y-99361761D02*
X128740819Y-98742714D01*
X128740819Y-98742714D02*
X129121771Y-99076047D01*
X129121771Y-99076047D02*
X129121771Y-98933190D01*
X129121771Y-98933190D02*
X129169390Y-98837952D01*
X129169390Y-98837952D02*
X129217009Y-98790333D01*
X129217009Y-98790333D02*
X129312247Y-98742714D01*
X129312247Y-98742714D02*
X129550342Y-98742714D01*
X129550342Y-98742714D02*
X129645580Y-98790333D01*
X129645580Y-98790333D02*
X129693200Y-98837952D01*
X129693200Y-98837952D02*
X129740819Y-98933190D01*
X129740819Y-98933190D02*
X129740819Y-99218904D01*
X129740819Y-99218904D02*
X129693200Y-99314142D01*
X129693200Y-99314142D02*
X129645580Y-99361761D01*
X148663819Y-103845904D02*
X147663819Y-103845904D01*
X148663819Y-103274476D02*
X148092390Y-103703047D01*
X147663819Y-103274476D02*
X148235247Y-103845904D01*
X148663819Y-102322095D02*
X148663819Y-102893523D01*
X148663819Y-102607809D02*
X147663819Y-102607809D01*
X147663819Y-102607809D02*
X147806676Y-102703047D01*
X147806676Y-102703047D02*
X147901914Y-102798285D01*
X147901914Y-102798285D02*
X147949533Y-102893523D01*
X147663819Y-101417333D02*
X147663819Y-101893523D01*
X147663819Y-101893523D02*
X148140009Y-101941142D01*
X148140009Y-101941142D02*
X148092390Y-101893523D01*
X148092390Y-101893523D02*
X148044771Y-101798285D01*
X148044771Y-101798285D02*
X148044771Y-101560190D01*
X148044771Y-101560190D02*
X148092390Y-101464952D01*
X148092390Y-101464952D02*
X148140009Y-101417333D01*
X148140009Y-101417333D02*
X148235247Y-101369714D01*
X148235247Y-101369714D02*
X148473342Y-101369714D01*
X148473342Y-101369714D02*
X148568580Y-101417333D01*
X148568580Y-101417333D02*
X148616200Y-101464952D01*
X148616200Y-101464952D02*
X148663819Y-101560190D01*
X148663819Y-101560190D02*
X148663819Y-101798285D01*
X148663819Y-101798285D02*
X148616200Y-101893523D01*
X148616200Y-101893523D02*
X148568580Y-101941142D01*
X147663819Y-100464952D02*
X147663819Y-100941142D01*
X147663819Y-100941142D02*
X148140009Y-100988761D01*
X148140009Y-100988761D02*
X148092390Y-100941142D01*
X148092390Y-100941142D02*
X148044771Y-100845904D01*
X148044771Y-100845904D02*
X148044771Y-100607809D01*
X148044771Y-100607809D02*
X148092390Y-100512571D01*
X148092390Y-100512571D02*
X148140009Y-100464952D01*
X148140009Y-100464952D02*
X148235247Y-100417333D01*
X148235247Y-100417333D02*
X148473342Y-100417333D01*
X148473342Y-100417333D02*
X148568580Y-100464952D01*
X148568580Y-100464952D02*
X148616200Y-100512571D01*
X148616200Y-100512571D02*
X148663819Y-100607809D01*
X148663819Y-100607809D02*
X148663819Y-100845904D01*
X148663819Y-100845904D02*
X148616200Y-100941142D01*
X148616200Y-100941142D02*
X148568580Y-100988761D01*
X147663819Y-99988761D02*
X148663819Y-99988761D01*
X148663819Y-99988761D02*
X147663819Y-99417333D01*
X147663819Y-99417333D02*
X148663819Y-99417333D01*
X148901914Y-98179238D02*
X148663819Y-98179238D01*
X148663819Y-98179238D02*
X148663819Y-99036380D01*
X148663819Y-99036380D02*
X148901914Y-99036380D01*
X148663819Y-98369714D02*
X147663819Y-98369714D01*
X147663819Y-98369714D02*
X147663819Y-98607809D01*
X147663819Y-98607809D02*
X147711438Y-98703047D01*
X147711438Y-98703047D02*
X147759057Y-98750666D01*
X147759057Y-98750666D02*
X147854295Y-98798285D01*
X147854295Y-98798285D02*
X148663819Y-98893523D01*
X148663819Y-97274476D02*
X148663819Y-97845904D01*
X148663819Y-97560190D02*
X147663819Y-97560190D01*
X147663819Y-97560190D02*
X147806676Y-97655428D01*
X147806676Y-97655428D02*
X147901914Y-97750666D01*
X147901914Y-97750666D02*
X147949533Y-97845904D01*
X124906833Y-116847580D02*
X124859214Y-116895200D01*
X124859214Y-116895200D02*
X124716357Y-116942819D01*
X124716357Y-116942819D02*
X124621119Y-116942819D01*
X124621119Y-116942819D02*
X124478262Y-116895200D01*
X124478262Y-116895200D02*
X124383024Y-116799961D01*
X124383024Y-116799961D02*
X124335405Y-116704723D01*
X124335405Y-116704723D02*
X124287786Y-116514247D01*
X124287786Y-116514247D02*
X124287786Y-116371390D01*
X124287786Y-116371390D02*
X124335405Y-116180914D01*
X124335405Y-116180914D02*
X124383024Y-116085676D01*
X124383024Y-116085676D02*
X124478262Y-115990438D01*
X124478262Y-115990438D02*
X124621119Y-115942819D01*
X124621119Y-115942819D02*
X124716357Y-115942819D01*
X124716357Y-115942819D02*
X124859214Y-115990438D01*
X124859214Y-115990438D02*
X124906833Y-116038057D01*
X125859214Y-116942819D02*
X125287786Y-116942819D01*
X125573500Y-116942819D02*
X125573500Y-115942819D01*
X125573500Y-115942819D02*
X125478262Y-116085676D01*
X125478262Y-116085676D02*
X125383024Y-116180914D01*
X125383024Y-116180914D02*
X125287786Y-116228533D01*
X204035819Y-102250666D02*
X203035819Y-102250666D01*
X203035819Y-102250666D02*
X203035819Y-102012571D01*
X203035819Y-102012571D02*
X203083438Y-101869714D01*
X203083438Y-101869714D02*
X203178676Y-101774476D01*
X203178676Y-101774476D02*
X203273914Y-101726857D01*
X203273914Y-101726857D02*
X203464390Y-101679238D01*
X203464390Y-101679238D02*
X203607247Y-101679238D01*
X203607247Y-101679238D02*
X203797723Y-101726857D01*
X203797723Y-101726857D02*
X203892961Y-101774476D01*
X203892961Y-101774476D02*
X203988200Y-101869714D01*
X203988200Y-101869714D02*
X204035819Y-102012571D01*
X204035819Y-102012571D02*
X204035819Y-102250666D01*
X204035819Y-100679238D02*
X203559628Y-101012571D01*
X204035819Y-101250666D02*
X203035819Y-101250666D01*
X203035819Y-101250666D02*
X203035819Y-100869714D01*
X203035819Y-100869714D02*
X203083438Y-100774476D01*
X203083438Y-100774476D02*
X203131057Y-100726857D01*
X203131057Y-100726857D02*
X203226295Y-100679238D01*
X203226295Y-100679238D02*
X203369152Y-100679238D01*
X203369152Y-100679238D02*
X203464390Y-100726857D01*
X203464390Y-100726857D02*
X203512009Y-100774476D01*
X203512009Y-100774476D02*
X203559628Y-100869714D01*
X203559628Y-100869714D02*
X203559628Y-101250666D01*
X203035819Y-100393523D02*
X204035819Y-100060190D01*
X204035819Y-100060190D02*
X203035819Y-99726857D01*
X203035819Y-98964952D02*
X203035819Y-99155428D01*
X203035819Y-99155428D02*
X203083438Y-99250666D01*
X203083438Y-99250666D02*
X203131057Y-99298285D01*
X203131057Y-99298285D02*
X203273914Y-99393523D01*
X203273914Y-99393523D02*
X203464390Y-99441142D01*
X203464390Y-99441142D02*
X203845342Y-99441142D01*
X203845342Y-99441142D02*
X203940580Y-99393523D01*
X203940580Y-99393523D02*
X203988200Y-99345904D01*
X203988200Y-99345904D02*
X204035819Y-99250666D01*
X204035819Y-99250666D02*
X204035819Y-99060190D01*
X204035819Y-99060190D02*
X203988200Y-98964952D01*
X203988200Y-98964952D02*
X203940580Y-98917333D01*
X203940580Y-98917333D02*
X203845342Y-98869714D01*
X203845342Y-98869714D02*
X203607247Y-98869714D01*
X203607247Y-98869714D02*
X203512009Y-98917333D01*
X203512009Y-98917333D02*
X203464390Y-98964952D01*
X203464390Y-98964952D02*
X203416771Y-99060190D01*
X203416771Y-99060190D02*
X203416771Y-99250666D01*
X203416771Y-99250666D02*
X203464390Y-99345904D01*
X203464390Y-99345904D02*
X203512009Y-99393523D01*
X203512009Y-99393523D02*
X203607247Y-99441142D01*
X222831819Y-103845904D02*
X221831819Y-103845904D01*
X222831819Y-103274476D02*
X222260390Y-103703047D01*
X221831819Y-103274476D02*
X222403247Y-103845904D01*
X222831819Y-102322095D02*
X222831819Y-102893523D01*
X222831819Y-102607809D02*
X221831819Y-102607809D01*
X221831819Y-102607809D02*
X221974676Y-102703047D01*
X221974676Y-102703047D02*
X222069914Y-102798285D01*
X222069914Y-102798285D02*
X222117533Y-102893523D01*
X221831819Y-101417333D02*
X221831819Y-101893523D01*
X221831819Y-101893523D02*
X222308009Y-101941142D01*
X222308009Y-101941142D02*
X222260390Y-101893523D01*
X222260390Y-101893523D02*
X222212771Y-101798285D01*
X222212771Y-101798285D02*
X222212771Y-101560190D01*
X222212771Y-101560190D02*
X222260390Y-101464952D01*
X222260390Y-101464952D02*
X222308009Y-101417333D01*
X222308009Y-101417333D02*
X222403247Y-101369714D01*
X222403247Y-101369714D02*
X222641342Y-101369714D01*
X222641342Y-101369714D02*
X222736580Y-101417333D01*
X222736580Y-101417333D02*
X222784200Y-101464952D01*
X222784200Y-101464952D02*
X222831819Y-101560190D01*
X222831819Y-101560190D02*
X222831819Y-101798285D01*
X222831819Y-101798285D02*
X222784200Y-101893523D01*
X222784200Y-101893523D02*
X222736580Y-101941142D01*
X221831819Y-100464952D02*
X221831819Y-100941142D01*
X221831819Y-100941142D02*
X222308009Y-100988761D01*
X222308009Y-100988761D02*
X222260390Y-100941142D01*
X222260390Y-100941142D02*
X222212771Y-100845904D01*
X222212771Y-100845904D02*
X222212771Y-100607809D01*
X222212771Y-100607809D02*
X222260390Y-100512571D01*
X222260390Y-100512571D02*
X222308009Y-100464952D01*
X222308009Y-100464952D02*
X222403247Y-100417333D01*
X222403247Y-100417333D02*
X222641342Y-100417333D01*
X222641342Y-100417333D02*
X222736580Y-100464952D01*
X222736580Y-100464952D02*
X222784200Y-100512571D01*
X222784200Y-100512571D02*
X222831819Y-100607809D01*
X222831819Y-100607809D02*
X222831819Y-100845904D01*
X222831819Y-100845904D02*
X222784200Y-100941142D01*
X222784200Y-100941142D02*
X222736580Y-100988761D01*
X221831819Y-99988761D02*
X222831819Y-99988761D01*
X222831819Y-99988761D02*
X221831819Y-99417333D01*
X221831819Y-99417333D02*
X222831819Y-99417333D01*
X223069914Y-98179238D02*
X222831819Y-98179238D01*
X222831819Y-98179238D02*
X222831819Y-99036380D01*
X222831819Y-99036380D02*
X223069914Y-99036380D01*
X222831819Y-98369714D02*
X221831819Y-98369714D01*
X221831819Y-98369714D02*
X221831819Y-98607809D01*
X221831819Y-98607809D02*
X221879438Y-98703047D01*
X221879438Y-98703047D02*
X221927057Y-98750666D01*
X221927057Y-98750666D02*
X222022295Y-98798285D01*
X222022295Y-98798285D02*
X222831819Y-98893523D01*
X222831819Y-97274476D02*
X222831819Y-97845904D01*
X222831819Y-97560190D02*
X221831819Y-97560190D01*
X221831819Y-97560190D02*
X221974676Y-97655428D01*
X221974676Y-97655428D02*
X222069914Y-97750666D01*
X222069914Y-97750666D02*
X222117533Y-97845904D01*
X121713698Y-77360067D02*
X121713698Y-76572665D01*
X122088651Y-77360067D02*
X122088651Y-76572665D01*
X122088651Y-76572665D02*
X122538595Y-77360067D01*
X122538595Y-77360067D02*
X122538595Y-76572665D01*
X123325997Y-77360067D02*
X122876053Y-77360067D01*
X123101025Y-77360067D02*
X123101025Y-76572665D01*
X123101025Y-76572665D02*
X123026034Y-76685151D01*
X123026034Y-76685151D02*
X122951044Y-76760142D01*
X122951044Y-76760142D02*
X122876053Y-76797637D01*
D13*
X172717262Y-113745326D02*
X173106728Y-114913726D01*
X173106728Y-114913726D02*
X173496195Y-113745326D01*
X174553319Y-114913726D02*
X174163852Y-114357345D01*
X173885662Y-114913726D02*
X173885662Y-113745326D01*
X173885662Y-113745326D02*
X174330767Y-113745326D01*
X174330767Y-113745326D02*
X174442043Y-113800964D01*
X174442043Y-113800964D02*
X174497681Y-113856602D01*
X174497681Y-113856602D02*
X174553319Y-113967878D01*
X174553319Y-113967878D02*
X174553319Y-114134792D01*
X174553319Y-114134792D02*
X174497681Y-114246068D01*
X174497681Y-114246068D02*
X174442043Y-114301707D01*
X174442043Y-114301707D02*
X174330767Y-114357345D01*
X174330767Y-114357345D02*
X173885662Y-114357345D01*
X175054062Y-114301707D02*
X175443529Y-114301707D01*
X175610443Y-114913726D02*
X175054062Y-114913726D01*
X175054062Y-114913726D02*
X175054062Y-113745326D01*
X175054062Y-113745326D02*
X175610443Y-113745326D01*
X176723205Y-113800964D02*
X176611929Y-113745326D01*
X176611929Y-113745326D02*
X176445015Y-113745326D01*
X176445015Y-113745326D02*
X176278100Y-113800964D01*
X176278100Y-113800964D02*
X176166824Y-113912240D01*
X176166824Y-113912240D02*
X176111186Y-114023516D01*
X176111186Y-114023516D02*
X176055548Y-114246068D01*
X176055548Y-114246068D02*
X176055548Y-114412983D01*
X176055548Y-114412983D02*
X176111186Y-114635535D01*
X176111186Y-114635535D02*
X176166824Y-114746811D01*
X176166824Y-114746811D02*
X176278100Y-114858088D01*
X176278100Y-114858088D02*
X176445015Y-114913726D01*
X176445015Y-114913726D02*
X176556291Y-114913726D01*
X176556291Y-114913726D02*
X176723205Y-114858088D01*
X176723205Y-114858088D02*
X176778843Y-114802449D01*
X176778843Y-114802449D02*
X176778843Y-114412983D01*
X176778843Y-114412983D02*
X176556291Y-114412983D01*
X177502138Y-113745326D02*
X177613415Y-113745326D01*
X177613415Y-113745326D02*
X177724691Y-113800964D01*
X177724691Y-113800964D02*
X177780329Y-113856602D01*
X177780329Y-113856602D02*
X177835967Y-113967878D01*
X177835967Y-113967878D02*
X177891605Y-114190430D01*
X177891605Y-114190430D02*
X177891605Y-114468621D01*
X177891605Y-114468621D02*
X177835967Y-114691173D01*
X177835967Y-114691173D02*
X177780329Y-114802449D01*
X177780329Y-114802449D02*
X177724691Y-114858088D01*
X177724691Y-114858088D02*
X177613415Y-114913726D01*
X177613415Y-114913726D02*
X177502138Y-114913726D01*
X177502138Y-114913726D02*
X177390862Y-114858088D01*
X177390862Y-114858088D02*
X177335224Y-114802449D01*
X177335224Y-114802449D02*
X177279586Y-114691173D01*
X177279586Y-114691173D02*
X177223948Y-114468621D01*
X177223948Y-114468621D02*
X177223948Y-114190430D01*
X177223948Y-114190430D02*
X177279586Y-113967878D01*
X177279586Y-113967878D02*
X177335224Y-113856602D01*
X177335224Y-113856602D02*
X177390862Y-113800964D01*
X177390862Y-113800964D02*
X177502138Y-113745326D01*
D11*
D12*
X184379555Y-69413569D02*
X184379555Y-67403921D01*
X184379555Y-67403921D02*
X185527925Y-69413569D01*
X185527925Y-69413569D02*
X185527925Y-67403921D01*
X187441876Y-67403921D02*
X186484901Y-67403921D01*
X186484901Y-67403921D02*
X186389204Y-68360896D01*
X186389204Y-68360896D02*
X186484901Y-68265199D01*
X186484901Y-68265199D02*
X186676296Y-68169501D01*
X186676296Y-68169501D02*
X187154784Y-68169501D01*
X187154784Y-68169501D02*
X187346179Y-68265199D01*
X187346179Y-68265199D02*
X187441876Y-68360896D01*
X187441876Y-68360896D02*
X187537574Y-68552291D01*
X187537574Y-68552291D02*
X187537574Y-69030779D01*
X187537574Y-69030779D02*
X187441876Y-69222174D01*
X187441876Y-69222174D02*
X187346179Y-69317872D01*
X187346179Y-69317872D02*
X187154784Y-69413569D01*
X187154784Y-69413569D02*
X186676296Y-69413569D01*
X186676296Y-69413569D02*
X186484901Y-69317872D01*
X186484901Y-69317872D02*
X186389204Y-69222174D01*
D11*
X168092333Y-90117819D02*
X167759000Y-89641628D01*
X167520905Y-90117819D02*
X167520905Y-89117819D01*
X167520905Y-89117819D02*
X167901857Y-89117819D01*
X167901857Y-89117819D02*
X167997095Y-89165438D01*
X167997095Y-89165438D02*
X168044714Y-89213057D01*
X168044714Y-89213057D02*
X168092333Y-89308295D01*
X168092333Y-89308295D02*
X168092333Y-89451152D01*
X168092333Y-89451152D02*
X168044714Y-89546390D01*
X168044714Y-89546390D02*
X167997095Y-89594009D01*
X167997095Y-89594009D02*
X167901857Y-89641628D01*
X167901857Y-89641628D02*
X167520905Y-89641628D01*
X168949476Y-89451152D02*
X168949476Y-90117819D01*
X168711381Y-89070200D02*
X168473286Y-89784485D01*
X168473286Y-89784485D02*
X169092333Y-89784485D01*
D12*
X206379555Y-69413569D02*
X206379555Y-67403921D01*
X206379555Y-67403921D02*
X207527925Y-69413569D01*
X207527925Y-69413569D02*
X207527925Y-67403921D01*
X209346179Y-67403921D02*
X208963389Y-67403921D01*
X208963389Y-67403921D02*
X208771994Y-67499619D01*
X208771994Y-67499619D02*
X208676296Y-67595316D01*
X208676296Y-67595316D02*
X208484901Y-67882409D01*
X208484901Y-67882409D02*
X208389204Y-68265199D01*
X208389204Y-68265199D02*
X208389204Y-69030779D01*
X208389204Y-69030779D02*
X208484901Y-69222174D01*
X208484901Y-69222174D02*
X208580599Y-69317872D01*
X208580599Y-69317872D02*
X208771994Y-69413569D01*
X208771994Y-69413569D02*
X209154784Y-69413569D01*
X209154784Y-69413569D02*
X209346179Y-69317872D01*
X209346179Y-69317872D02*
X209441876Y-69222174D01*
X209441876Y-69222174D02*
X209537574Y-69030779D01*
X209537574Y-69030779D02*
X209537574Y-68552291D01*
X209537574Y-68552291D02*
X209441876Y-68360896D01*
X209441876Y-68360896D02*
X209346179Y-68265199D01*
X209346179Y-68265199D02*
X209154784Y-68169501D01*
X209154784Y-68169501D02*
X208771994Y-68169501D01*
X208771994Y-68169501D02*
X208580599Y-68265199D01*
X208580599Y-68265199D02*
X208484901Y-68360896D01*
X208484901Y-68360896D02*
X208389204Y-68552291D01*
D11*
X115768333Y-89990819D02*
X115435000Y-89514628D01*
X115196905Y-89990819D02*
X115196905Y-88990819D01*
X115196905Y-88990819D02*
X115577857Y-88990819D01*
X115577857Y-88990819D02*
X115673095Y-89038438D01*
X115673095Y-89038438D02*
X115720714Y-89086057D01*
X115720714Y-89086057D02*
X115768333Y-89181295D01*
X115768333Y-89181295D02*
X115768333Y-89324152D01*
X115768333Y-89324152D02*
X115720714Y-89419390D01*
X115720714Y-89419390D02*
X115673095Y-89467009D01*
X115673095Y-89467009D02*
X115577857Y-89514628D01*
X115577857Y-89514628D02*
X115196905Y-89514628D01*
X116149286Y-89086057D02*
X116196905Y-89038438D01*
X116196905Y-89038438D02*
X116292143Y-88990819D01*
X116292143Y-88990819D02*
X116530238Y-88990819D01*
X116530238Y-88990819D02*
X116625476Y-89038438D01*
X116625476Y-89038438D02*
X116673095Y-89086057D01*
X116673095Y-89086057D02*
X116720714Y-89181295D01*
X116720714Y-89181295D02*
X116720714Y-89276533D01*
X116720714Y-89276533D02*
X116673095Y-89419390D01*
X116673095Y-89419390D02*
X116101667Y-89990819D01*
X116101667Y-89990819D02*
X116720714Y-89990819D01*
D12*
X154379555Y-69413569D02*
X154379555Y-67403921D01*
X154379555Y-67403921D02*
X155527925Y-69413569D01*
X155527925Y-69413569D02*
X155527925Y-67403921D01*
X157346179Y-68073804D02*
X157346179Y-69413569D01*
X156867691Y-67308224D02*
X156389204Y-68743686D01*
X156389204Y-68743686D02*
X157633271Y-68743686D01*
D11*
X77797819Y-102123666D02*
X76797819Y-102123666D01*
X76797819Y-102123666D02*
X76797819Y-101885571D01*
X76797819Y-101885571D02*
X76845438Y-101742714D01*
X76845438Y-101742714D02*
X76940676Y-101647476D01*
X76940676Y-101647476D02*
X77035914Y-101599857D01*
X77035914Y-101599857D02*
X77226390Y-101552238D01*
X77226390Y-101552238D02*
X77369247Y-101552238D01*
X77369247Y-101552238D02*
X77559723Y-101599857D01*
X77559723Y-101599857D02*
X77654961Y-101647476D01*
X77654961Y-101647476D02*
X77750200Y-101742714D01*
X77750200Y-101742714D02*
X77797819Y-101885571D01*
X77797819Y-101885571D02*
X77797819Y-102123666D01*
X77797819Y-100552238D02*
X77321628Y-100885571D01*
X77797819Y-101123666D02*
X76797819Y-101123666D01*
X76797819Y-101123666D02*
X76797819Y-100742714D01*
X76797819Y-100742714D02*
X76845438Y-100647476D01*
X76845438Y-100647476D02*
X76893057Y-100599857D01*
X76893057Y-100599857D02*
X76988295Y-100552238D01*
X76988295Y-100552238D02*
X77131152Y-100552238D01*
X77131152Y-100552238D02*
X77226390Y-100599857D01*
X77226390Y-100599857D02*
X77274009Y-100647476D01*
X77274009Y-100647476D02*
X77321628Y-100742714D01*
X77321628Y-100742714D02*
X77321628Y-101123666D01*
X76797819Y-100266523D02*
X77797819Y-99933190D01*
X77797819Y-99933190D02*
X76797819Y-99599857D01*
X77797819Y-98742714D02*
X77797819Y-99314142D01*
X77797819Y-99028428D02*
X76797819Y-99028428D01*
X76797819Y-99028428D02*
X76940676Y-99123666D01*
X76940676Y-99123666D02*
X77035914Y-99218904D01*
X77035914Y-99218904D02*
X77083533Y-99314142D01*
X96974819Y-103845904D02*
X95974819Y-103845904D01*
X96974819Y-103274476D02*
X96403390Y-103703047D01*
X95974819Y-103274476D02*
X96546247Y-103845904D01*
X96974819Y-102322095D02*
X96974819Y-102893523D01*
X96974819Y-102607809D02*
X95974819Y-102607809D01*
X95974819Y-102607809D02*
X96117676Y-102703047D01*
X96117676Y-102703047D02*
X96212914Y-102798285D01*
X96212914Y-102798285D02*
X96260533Y-102893523D01*
X95974819Y-101417333D02*
X95974819Y-101893523D01*
X95974819Y-101893523D02*
X96451009Y-101941142D01*
X96451009Y-101941142D02*
X96403390Y-101893523D01*
X96403390Y-101893523D02*
X96355771Y-101798285D01*
X96355771Y-101798285D02*
X96355771Y-101560190D01*
X96355771Y-101560190D02*
X96403390Y-101464952D01*
X96403390Y-101464952D02*
X96451009Y-101417333D01*
X96451009Y-101417333D02*
X96546247Y-101369714D01*
X96546247Y-101369714D02*
X96784342Y-101369714D01*
X96784342Y-101369714D02*
X96879580Y-101417333D01*
X96879580Y-101417333D02*
X96927200Y-101464952D01*
X96927200Y-101464952D02*
X96974819Y-101560190D01*
X96974819Y-101560190D02*
X96974819Y-101798285D01*
X96974819Y-101798285D02*
X96927200Y-101893523D01*
X96927200Y-101893523D02*
X96879580Y-101941142D01*
X95974819Y-100464952D02*
X95974819Y-100941142D01*
X95974819Y-100941142D02*
X96451009Y-100988761D01*
X96451009Y-100988761D02*
X96403390Y-100941142D01*
X96403390Y-100941142D02*
X96355771Y-100845904D01*
X96355771Y-100845904D02*
X96355771Y-100607809D01*
X96355771Y-100607809D02*
X96403390Y-100512571D01*
X96403390Y-100512571D02*
X96451009Y-100464952D01*
X96451009Y-100464952D02*
X96546247Y-100417333D01*
X96546247Y-100417333D02*
X96784342Y-100417333D01*
X96784342Y-100417333D02*
X96879580Y-100464952D01*
X96879580Y-100464952D02*
X96927200Y-100512571D01*
X96927200Y-100512571D02*
X96974819Y-100607809D01*
X96974819Y-100607809D02*
X96974819Y-100845904D01*
X96974819Y-100845904D02*
X96927200Y-100941142D01*
X96927200Y-100941142D02*
X96879580Y-100988761D01*
X95974819Y-99988761D02*
X96974819Y-99988761D01*
X96974819Y-99988761D02*
X95974819Y-99417333D01*
X95974819Y-99417333D02*
X96974819Y-99417333D01*
X97212914Y-98179238D02*
X96974819Y-98179238D01*
X96974819Y-98179238D02*
X96974819Y-99036380D01*
X96974819Y-99036380D02*
X97212914Y-99036380D01*
X96974819Y-98369714D02*
X95974819Y-98369714D01*
X95974819Y-98369714D02*
X95974819Y-98607809D01*
X95974819Y-98607809D02*
X96022438Y-98703047D01*
X96022438Y-98703047D02*
X96070057Y-98750666D01*
X96070057Y-98750666D02*
X96165295Y-98798285D01*
X96165295Y-98798285D02*
X96974819Y-98893523D01*
X96974819Y-97274476D02*
X96974819Y-97845904D01*
X96974819Y-97560190D02*
X95974819Y-97560190D01*
X95974819Y-97560190D02*
X96117676Y-97655428D01*
X96117676Y-97655428D02*
X96212914Y-97750666D01*
X96212914Y-97750666D02*
X96260533Y-97845904D01*
X151330819Y-102250666D02*
X150330819Y-102250666D01*
X150330819Y-102250666D02*
X150330819Y-102012571D01*
X150330819Y-102012571D02*
X150378438Y-101869714D01*
X150378438Y-101869714D02*
X150473676Y-101774476D01*
X150473676Y-101774476D02*
X150568914Y-101726857D01*
X150568914Y-101726857D02*
X150759390Y-101679238D01*
X150759390Y-101679238D02*
X150902247Y-101679238D01*
X150902247Y-101679238D02*
X151092723Y-101726857D01*
X151092723Y-101726857D02*
X151187961Y-101774476D01*
X151187961Y-101774476D02*
X151283200Y-101869714D01*
X151283200Y-101869714D02*
X151330819Y-102012571D01*
X151330819Y-102012571D02*
X151330819Y-102250666D01*
X151330819Y-100679238D02*
X150854628Y-101012571D01*
X151330819Y-101250666D02*
X150330819Y-101250666D01*
X150330819Y-101250666D02*
X150330819Y-100869714D01*
X150330819Y-100869714D02*
X150378438Y-100774476D01*
X150378438Y-100774476D02*
X150426057Y-100726857D01*
X150426057Y-100726857D02*
X150521295Y-100679238D01*
X150521295Y-100679238D02*
X150664152Y-100679238D01*
X150664152Y-100679238D02*
X150759390Y-100726857D01*
X150759390Y-100726857D02*
X150807009Y-100774476D01*
X150807009Y-100774476D02*
X150854628Y-100869714D01*
X150854628Y-100869714D02*
X150854628Y-101250666D01*
X150330819Y-100393523D02*
X151330819Y-100060190D01*
X151330819Y-100060190D02*
X150330819Y-99726857D01*
X150664152Y-98964952D02*
X151330819Y-98964952D01*
X150283200Y-99203047D02*
X150997485Y-99441142D01*
X150997485Y-99441142D02*
X150997485Y-98822095D01*
X170888819Y-103845904D02*
X169888819Y-103845904D01*
X170888819Y-103274476D02*
X170317390Y-103703047D01*
X169888819Y-103274476D02*
X170460247Y-103845904D01*
X170888819Y-102322095D02*
X170888819Y-102893523D01*
X170888819Y-102607809D02*
X169888819Y-102607809D01*
X169888819Y-102607809D02*
X170031676Y-102703047D01*
X170031676Y-102703047D02*
X170126914Y-102798285D01*
X170126914Y-102798285D02*
X170174533Y-102893523D01*
X169888819Y-101417333D02*
X169888819Y-101893523D01*
X169888819Y-101893523D02*
X170365009Y-101941142D01*
X170365009Y-101941142D02*
X170317390Y-101893523D01*
X170317390Y-101893523D02*
X170269771Y-101798285D01*
X170269771Y-101798285D02*
X170269771Y-101560190D01*
X170269771Y-101560190D02*
X170317390Y-101464952D01*
X170317390Y-101464952D02*
X170365009Y-101417333D01*
X170365009Y-101417333D02*
X170460247Y-101369714D01*
X170460247Y-101369714D02*
X170698342Y-101369714D01*
X170698342Y-101369714D02*
X170793580Y-101417333D01*
X170793580Y-101417333D02*
X170841200Y-101464952D01*
X170841200Y-101464952D02*
X170888819Y-101560190D01*
X170888819Y-101560190D02*
X170888819Y-101798285D01*
X170888819Y-101798285D02*
X170841200Y-101893523D01*
X170841200Y-101893523D02*
X170793580Y-101941142D01*
X169888819Y-100464952D02*
X169888819Y-100941142D01*
X169888819Y-100941142D02*
X170365009Y-100988761D01*
X170365009Y-100988761D02*
X170317390Y-100941142D01*
X170317390Y-100941142D02*
X170269771Y-100845904D01*
X170269771Y-100845904D02*
X170269771Y-100607809D01*
X170269771Y-100607809D02*
X170317390Y-100512571D01*
X170317390Y-100512571D02*
X170365009Y-100464952D01*
X170365009Y-100464952D02*
X170460247Y-100417333D01*
X170460247Y-100417333D02*
X170698342Y-100417333D01*
X170698342Y-100417333D02*
X170793580Y-100464952D01*
X170793580Y-100464952D02*
X170841200Y-100512571D01*
X170841200Y-100512571D02*
X170888819Y-100607809D01*
X170888819Y-100607809D02*
X170888819Y-100845904D01*
X170888819Y-100845904D02*
X170841200Y-100941142D01*
X170841200Y-100941142D02*
X170793580Y-100988761D01*
X169888819Y-99988761D02*
X170888819Y-99988761D01*
X170888819Y-99988761D02*
X169888819Y-99417333D01*
X169888819Y-99417333D02*
X170888819Y-99417333D01*
X171126914Y-98179238D02*
X170888819Y-98179238D01*
X170888819Y-98179238D02*
X170888819Y-99036380D01*
X170888819Y-99036380D02*
X171126914Y-99036380D01*
X170888819Y-98369714D02*
X169888819Y-98369714D01*
X169888819Y-98369714D02*
X169888819Y-98607809D01*
X169888819Y-98607809D02*
X169936438Y-98703047D01*
X169936438Y-98703047D02*
X169984057Y-98750666D01*
X169984057Y-98750666D02*
X170079295Y-98798285D01*
X170079295Y-98798285D02*
X170888819Y-98893523D01*
X170888819Y-97274476D02*
X170888819Y-97845904D01*
X170888819Y-97560190D02*
X169888819Y-97560190D01*
X169888819Y-97560190D02*
X170031676Y-97655428D01*
X170031676Y-97655428D02*
X170126914Y-97750666D01*
X170126914Y-97750666D02*
X170174533Y-97845904D01*
X197556333Y-90117819D02*
X197223000Y-89641628D01*
X196984905Y-90117819D02*
X196984905Y-89117819D01*
X196984905Y-89117819D02*
X197365857Y-89117819D01*
X197365857Y-89117819D02*
X197461095Y-89165438D01*
X197461095Y-89165438D02*
X197508714Y-89213057D01*
X197508714Y-89213057D02*
X197556333Y-89308295D01*
X197556333Y-89308295D02*
X197556333Y-89451152D01*
X197556333Y-89451152D02*
X197508714Y-89546390D01*
X197508714Y-89546390D02*
X197461095Y-89594009D01*
X197461095Y-89594009D02*
X197365857Y-89641628D01*
X197365857Y-89641628D02*
X196984905Y-89641628D01*
X198461095Y-89117819D02*
X197984905Y-89117819D01*
X197984905Y-89117819D02*
X197937286Y-89594009D01*
X197937286Y-89594009D02*
X197984905Y-89546390D01*
X197984905Y-89546390D02*
X198080143Y-89498771D01*
X198080143Y-89498771D02*
X198318238Y-89498771D01*
X198318238Y-89498771D02*
X198413476Y-89546390D01*
X198413476Y-89546390D02*
X198461095Y-89594009D01*
X198461095Y-89594009D02*
X198508714Y-89689247D01*
X198508714Y-89689247D02*
X198508714Y-89927342D01*
X198508714Y-89927342D02*
X198461095Y-90022580D01*
X198461095Y-90022580D02*
X198413476Y-90070200D01*
X198413476Y-90070200D02*
X198318238Y-90117819D01*
X198318238Y-90117819D02*
X198080143Y-90117819D01*
X198080143Y-90117819D02*
X197984905Y-90070200D01*
X197984905Y-90070200D02*
X197937286Y-90022580D01*
D12*
X132379555Y-69413569D02*
X132379555Y-67403921D01*
X132379555Y-67403921D02*
X133527925Y-69413569D01*
X133527925Y-69413569D02*
X133527925Y-67403921D01*
X134293506Y-67403921D02*
X135537574Y-67403921D01*
X135537574Y-67403921D02*
X134867691Y-68169501D01*
X134867691Y-68169501D02*
X135154784Y-68169501D01*
X135154784Y-68169501D02*
X135346179Y-68265199D01*
X135346179Y-68265199D02*
X135441876Y-68360896D01*
X135441876Y-68360896D02*
X135537574Y-68552291D01*
X135537574Y-68552291D02*
X135537574Y-69030779D01*
X135537574Y-69030779D02*
X135441876Y-69222174D01*
X135441876Y-69222174D02*
X135346179Y-69317872D01*
X135346179Y-69317872D02*
X135154784Y-69413569D01*
X135154784Y-69413569D02*
X134580599Y-69413569D01*
X134580599Y-69413569D02*
X134389204Y-69317872D01*
X134389204Y-69317872D02*
X134293506Y-69222174D01*
D11*
X173713698Y-77360067D02*
X173713698Y-76572665D01*
X174088651Y-77360067D02*
X174088651Y-76572665D01*
X174088651Y-76572665D02*
X174538595Y-77360067D01*
X174538595Y-77360067D02*
X174538595Y-76572665D01*
X175251006Y-76835132D02*
X175251006Y-77360067D01*
X175063530Y-76535170D02*
X174876053Y-77097600D01*
X174876053Y-77097600D02*
X175363492Y-77097600D01*
X121713698Y-89360067D02*
X121713698Y-88572665D01*
X122088651Y-89360067D02*
X122088651Y-88572665D01*
X122088651Y-88572665D02*
X122538595Y-89360067D01*
X122538595Y-89360067D02*
X122538595Y-88572665D01*
X122876053Y-88647656D02*
X122913548Y-88610160D01*
X122913548Y-88610160D02*
X122988539Y-88572665D01*
X122988539Y-88572665D02*
X123176016Y-88572665D01*
X123176016Y-88572665D02*
X123251006Y-88610160D01*
X123251006Y-88610160D02*
X123288502Y-88647656D01*
X123288502Y-88647656D02*
X123325997Y-88722646D01*
X123325997Y-88722646D02*
X123325997Y-88797637D01*
X123325997Y-88797637D02*
X123288502Y-88910123D01*
X123288502Y-88910123D02*
X122838558Y-89360067D01*
X122838558Y-89360067D02*
X123325997Y-89360067D01*
X93797333Y-90117819D02*
X93464000Y-89641628D01*
X93225905Y-90117819D02*
X93225905Y-89117819D01*
X93225905Y-89117819D02*
X93606857Y-89117819D01*
X93606857Y-89117819D02*
X93702095Y-89165438D01*
X93702095Y-89165438D02*
X93749714Y-89213057D01*
X93749714Y-89213057D02*
X93797333Y-89308295D01*
X93797333Y-89308295D02*
X93797333Y-89451152D01*
X93797333Y-89451152D02*
X93749714Y-89546390D01*
X93749714Y-89546390D02*
X93702095Y-89594009D01*
X93702095Y-89594009D02*
X93606857Y-89641628D01*
X93606857Y-89641628D02*
X93225905Y-89641628D01*
X94749714Y-90117819D02*
X94178286Y-90117819D01*
X94464000Y-90117819D02*
X94464000Y-89117819D01*
X94464000Y-89117819D02*
X94368762Y-89260676D01*
X94368762Y-89260676D02*
X94273524Y-89355914D01*
X94273524Y-89355914D02*
X94178286Y-89403533D01*
X173713698Y-89360067D02*
X173713698Y-88572665D01*
X174088651Y-89360067D02*
X174088651Y-88572665D01*
X174088651Y-88572665D02*
X174538595Y-89360067D01*
X174538595Y-89360067D02*
X174538595Y-88572665D01*
X174838558Y-88572665D02*
X175325997Y-88572665D01*
X175325997Y-88572665D02*
X175063530Y-88872628D01*
X175063530Y-88872628D02*
X175176016Y-88872628D01*
X175176016Y-88872628D02*
X175251006Y-88910123D01*
X175251006Y-88910123D02*
X175288502Y-88947618D01*
X175288502Y-88947618D02*
X175325997Y-89022609D01*
X175325997Y-89022609D02*
X175325997Y-89210086D01*
X175325997Y-89210086D02*
X175288502Y-89285076D01*
X175288502Y-89285076D02*
X175251006Y-89322572D01*
X175251006Y-89322572D02*
X175176016Y-89360067D01*
X175176016Y-89360067D02*
X174951044Y-89360067D01*
X174951044Y-89360067D02*
X174876053Y-89322572D01*
X174876053Y-89322572D02*
X174838558Y-89285076D01*
D14*
X94896000Y-114031752D02*
X94896000Y-113509248D01*
X96366000Y-114031752D02*
X96366000Y-113509248D01*
X97222000Y-103234000D02*
X117662000Y-103234000D01*
X117662000Y-103234000D02*
X117662000Y-97934000D01*
X97222000Y-101584000D02*
X97222000Y-103234000D01*
X97222000Y-97934000D02*
X97222000Y-99584000D01*
X117662000Y-97934000D02*
X97222000Y-97934000D01*
X97222000Y-101584000D02*
G75*
G03*
X97222000Y-99584000I0J1000000D01*
G01*
X149337752Y-113511000D02*
X148815248Y-113511000D01*
X149337752Y-112041000D02*
X148815248Y-112041000D01*
X80145000Y-116567000D02*
X81145000Y-116567000D01*
X81145000Y-116567000D02*
X80645000Y-115567000D01*
X80645000Y-115567000D02*
X80145000Y-116567000D01*
X75435000Y-115177000D02*
X75435000Y-106057000D01*
X82405000Y-115177000D02*
X82405000Y-113867000D01*
X93475000Y-115177000D02*
X75435000Y-115177000D01*
X76735000Y-113867000D02*
X76735000Y-107367000D01*
X82405000Y-113867000D02*
X76735000Y-113867000D01*
X86505000Y-113867000D02*
X86505000Y-115177000D01*
X86505000Y-113867000D02*
X86505000Y-113867000D01*
X92175000Y-113867000D02*
X86505000Y-113867000D01*
X76735000Y-107367000D02*
X92175000Y-107367000D01*
X92175000Y-107367000D02*
X92175000Y-113867000D01*
X75435000Y-106057000D02*
X93475000Y-106057000D01*
X93475000Y-106057000D02*
X93475000Y-115177000D01*
X145679936Y-90324000D02*
X146134064Y-90324000D01*
X145679936Y-91794000D02*
X146134064Y-91794000D01*
X183923000Y-109078752D02*
X183923000Y-108556248D01*
X185393000Y-109078752D02*
X185393000Y-108556248D01*
X188707752Y-115416000D02*
X188185248Y-115416000D01*
X188707752Y-113946000D02*
X188185248Y-113946000D01*
X184758000Y-113679248D02*
X184758000Y-114201752D01*
X183288000Y-113679248D02*
X183288000Y-114201752D01*
X219720936Y-90451000D02*
X220175064Y-90451000D01*
X219720936Y-91921000D02*
X220175064Y-91921000D01*
X179264000Y-103234000D02*
X199704000Y-103234000D01*
X199704000Y-103234000D02*
X199704000Y-97934000D01*
X179264000Y-101584000D02*
X179264000Y-103234000D01*
X179264000Y-97934000D02*
X179264000Y-99584000D01*
X199704000Y-97934000D02*
X179264000Y-97934000D01*
X179264000Y-101584000D02*
G75*
G03*
X179264000Y-99584000I0J1000000D01*
G01*
X127194000Y-103234000D02*
X147634000Y-103234000D01*
X147634000Y-103234000D02*
X147634000Y-97934000D01*
X127194000Y-101584000D02*
X127194000Y-103234000D01*
X127194000Y-97934000D02*
X127194000Y-99584000D01*
X147634000Y-97934000D02*
X127194000Y-97934000D01*
X127194000Y-101584000D02*
G75*
G03*
X127194000Y-99584000I0J1000000D01*
G01*
X125334752Y-115543000D02*
X124812248Y-115543000D01*
X125334752Y-114073000D02*
X124812248Y-114073000D01*
X201235000Y-103234000D02*
X221675000Y-103234000D01*
X221675000Y-103234000D02*
X221675000Y-97934000D01*
X201235000Y-101584000D02*
X201235000Y-103234000D01*
X201235000Y-97934000D02*
X201235000Y-99584000D01*
X221675000Y-97934000D02*
X201235000Y-97934000D01*
X201235000Y-101584000D02*
G75*
G03*
X201235000Y-99584000I0J1000000D01*
G01*
D15*
X121231100Y-76368600D02*
X122501100Y-76368600D01*
X122501100Y-76368600D02*
X122501100Y-75352600D01*
X122501100Y-76368600D02*
X123771100Y-76368600D01*
X125993600Y-77003600D02*
G75*
G03*
X125993600Y-77003600I-3492500J0D01*
G01*
D16*
X179070000Y-113513000D02*
X173075600Y-113512600D01*
X173075600Y-106959400D02*
X179070000Y-106959000D01*
X179070000Y-106959000D02*
X179070000Y-113513000D01*
G36*
X179933600Y-110667800D02*
G01*
X179171600Y-110667800D01*
X179171600Y-109804200D01*
X179933600Y-109804200D01*
X179933600Y-110667800D01*
G37*
D14*
X168031936Y-90578000D02*
X168486064Y-90578000D01*
X168031936Y-92048000D02*
X168486064Y-92048000D01*
X115707936Y-90451000D02*
X116162064Y-90451000D01*
X115707936Y-91921000D02*
X116162064Y-91921000D01*
X75266000Y-103224000D02*
X95706000Y-103224000D01*
X95706000Y-103224000D02*
X95706000Y-97924000D01*
X75266000Y-101574000D02*
X75266000Y-103224000D01*
X75266000Y-97924000D02*
X75266000Y-99574000D01*
X95706000Y-97924000D02*
X75266000Y-97924000D01*
X75266000Y-101574000D02*
G75*
G03*
X75266000Y-99574000I0J1000000D01*
G01*
X149292000Y-103234000D02*
X169732000Y-103234000D01*
X169732000Y-103234000D02*
X169732000Y-97934000D01*
X149292000Y-101584000D02*
X149292000Y-103234000D01*
X149292000Y-97934000D02*
X149292000Y-99584000D01*
X169732000Y-97934000D02*
X149292000Y-97934000D01*
X149292000Y-101584000D02*
G75*
G03*
X149292000Y-99584000I0J1000000D01*
G01*
X197495936Y-90578000D02*
X197950064Y-90578000D01*
X197495936Y-92048000D02*
X197950064Y-92048000D01*
D15*
X173231100Y-76368600D02*
X174501100Y-76368600D01*
X174501100Y-76368600D02*
X174501100Y-75352600D01*
X174501100Y-76368600D02*
X175771100Y-76368600D01*
X177993600Y-77003600D02*
G75*
G03*
X177993600Y-77003600I-3492500J0D01*
G01*
X121231100Y-88368600D02*
X122501100Y-88368600D01*
X122501100Y-88368600D02*
X122501100Y-87352600D01*
X122501100Y-88368600D02*
X123771100Y-88368600D01*
X125993600Y-89003600D02*
G75*
G03*
X125993600Y-89003600I-3492500J0D01*
G01*
D14*
X93736936Y-90578000D02*
X94191064Y-90578000D01*
X93736936Y-92048000D02*
X94191064Y-92048000D01*
D15*
X173231100Y-88368600D02*
X174501100Y-88368600D01*
X174501100Y-88368600D02*
X174501100Y-87352600D01*
X174501100Y-88368600D02*
X175771100Y-88368600D01*
X177993600Y-89003600D02*
G75*
G03*
X177993600Y-89003600I-3492500J0D01*
G01*
%LPC*%
D17*
X95631000Y-114808000D03*
X95631000Y-112733000D03*
D18*
X98552000Y-104394000D03*
D19*
X101092000Y-104394000D03*
X103632000Y-104394000D03*
X106172000Y-104394000D03*
X108712000Y-104394000D03*
X111252000Y-104394000D03*
X113792000Y-104394000D03*
X116332000Y-104394000D03*
X116332000Y-96774000D03*
X113792000Y-96774000D03*
X111252000Y-96774000D03*
X108712000Y-96774000D03*
X106172000Y-96774000D03*
X103632000Y-96774000D03*
X101092000Y-96774000D03*
X98552000Y-96774000D03*
D20*
X220501100Y-114046000D03*
D21*
X150114000Y-112776000D03*
X148039000Y-112776000D03*
D22*
X80645000Y-111887000D03*
D23*
X80645000Y-109347000D03*
X83185000Y-111887000D03*
X83185000Y-109347000D03*
X85725000Y-111887000D03*
X85725000Y-109347000D03*
X88265000Y-111887000D03*
X88265000Y-109347000D03*
D24*
X91251100Y-87503600D03*
X81501100Y-91003600D03*
X79751100Y-87503600D03*
X79751100Y-83003600D03*
X79751100Y-78503600D03*
X81501100Y-75003600D03*
X85501100Y-74003600D03*
X89501100Y-75003600D03*
X91251100Y-78503600D03*
X91251100Y-83003600D03*
X89501100Y-91003600D03*
X85501100Y-92003600D03*
D25*
X144907000Y-91059000D03*
X146907000Y-91059000D03*
D20*
X76501100Y-114046000D03*
D17*
X184658000Y-109855000D03*
X184658000Y-107780000D03*
D21*
X189484000Y-114681000D03*
X187409000Y-114681000D03*
D26*
X189501100Y-83003600D03*
D27*
X184023000Y-112903000D03*
X184023000Y-114978000D03*
D26*
X159501100Y-83003600D03*
D25*
X218948000Y-91186000D03*
X220948000Y-91186000D03*
D24*
X113251100Y-87503600D03*
X103501100Y-91003600D03*
X101751100Y-87503600D03*
X101751100Y-83003600D03*
X101751100Y-78503600D03*
X103501100Y-75003600D03*
X107501100Y-74003600D03*
X111501100Y-75003600D03*
X113251100Y-78503600D03*
X113251100Y-83003600D03*
X111501100Y-91003600D03*
X107501100Y-92003600D03*
D18*
X180594000Y-104394000D03*
D19*
X183134000Y-104394000D03*
X185674000Y-104394000D03*
X188214000Y-104394000D03*
X190754000Y-104394000D03*
X193294000Y-104394000D03*
X195834000Y-104394000D03*
X198374000Y-104394000D03*
X198374000Y-96774000D03*
X195834000Y-96774000D03*
X193294000Y-96774000D03*
X190754000Y-96774000D03*
X188214000Y-96774000D03*
X185674000Y-96774000D03*
X183134000Y-96774000D03*
X180594000Y-96774000D03*
D18*
X128524000Y-104394000D03*
D19*
X131064000Y-104394000D03*
X133604000Y-104394000D03*
X136144000Y-104394000D03*
X138684000Y-104394000D03*
X141224000Y-104394000D03*
X143764000Y-104394000D03*
X146304000Y-104394000D03*
X146304000Y-96774000D03*
X143764000Y-96774000D03*
X141224000Y-96774000D03*
X138684000Y-96774000D03*
X136144000Y-96774000D03*
X133604000Y-96774000D03*
X131064000Y-96774000D03*
X128524000Y-96774000D03*
D21*
X126111000Y-114808000D03*
X124036000Y-114808000D03*
D18*
X202565000Y-104394000D03*
D19*
X205105000Y-104394000D03*
X207645000Y-104394000D03*
X210185000Y-104394000D03*
X212725000Y-104394000D03*
X215265000Y-104394000D03*
X217805000Y-104394000D03*
X220345000Y-104394000D03*
X220345000Y-96774000D03*
X217805000Y-96774000D03*
X215265000Y-96774000D03*
X212725000Y-96774000D03*
X210185000Y-96774000D03*
X207645000Y-96774000D03*
X205105000Y-96774000D03*
X202565000Y-96774000D03*
D26*
X137501100Y-83003600D03*
D28*
X122501100Y-74463600D03*
D29*
X122501100Y-79543600D03*
D30*
X181711000Y-112516000D03*
X181711000Y-107956000D03*
D31*
X174411000Y-110236000D03*
D20*
X220501100Y-73003600D03*
D24*
X195251100Y-87503600D03*
X185501100Y-91003600D03*
X183751100Y-87503600D03*
X183751100Y-83003600D03*
X183751100Y-78503600D03*
X185501100Y-75003600D03*
X189501100Y-74003600D03*
X193501100Y-75003600D03*
X195251100Y-78503600D03*
X195251100Y-83003600D03*
X193501100Y-91003600D03*
X189501100Y-92003600D03*
D25*
X167259000Y-91313000D03*
X169259000Y-91313000D03*
D24*
X217251100Y-87503600D03*
X207501100Y-91003600D03*
X205751100Y-87503600D03*
X205751100Y-83003600D03*
X205751100Y-78503600D03*
X207501100Y-75003600D03*
X211501100Y-74003600D03*
X215501100Y-75003600D03*
X217251100Y-78503600D03*
X217251100Y-83003600D03*
X215501100Y-91003600D03*
X211501100Y-92003600D03*
D25*
X114935000Y-91186000D03*
X116935000Y-91186000D03*
D20*
X76501100Y-73003600D03*
D26*
X85501100Y-83003600D03*
D24*
X165251100Y-87503600D03*
X155501100Y-91003600D03*
X153751100Y-87503600D03*
X153751100Y-83003600D03*
X153751100Y-78503600D03*
X155501100Y-75003600D03*
X159501100Y-74003600D03*
X163501100Y-75003600D03*
X165251100Y-78503600D03*
X165251100Y-83003600D03*
X163501100Y-91003600D03*
X159501100Y-92003600D03*
D26*
X107501100Y-83003600D03*
D18*
X76596000Y-104384000D03*
D19*
X79136000Y-104384000D03*
X81676000Y-104384000D03*
X84216000Y-104384000D03*
X86756000Y-104384000D03*
X89296000Y-104384000D03*
X91836000Y-104384000D03*
X94376000Y-104384000D03*
X94376000Y-96764000D03*
X91836000Y-96764000D03*
X89296000Y-96764000D03*
X86756000Y-96764000D03*
X84216000Y-96764000D03*
X81676000Y-96764000D03*
X79136000Y-96764000D03*
X76596000Y-96764000D03*
D18*
X150622000Y-104394000D03*
D19*
X153162000Y-104394000D03*
X155702000Y-104394000D03*
X158242000Y-104394000D03*
X160782000Y-104394000D03*
X163322000Y-104394000D03*
X165862000Y-104394000D03*
X168402000Y-104394000D03*
X168402000Y-96774000D03*
X165862000Y-96774000D03*
X163322000Y-96774000D03*
X160782000Y-96774000D03*
X158242000Y-96774000D03*
X155702000Y-96774000D03*
X153162000Y-96774000D03*
X150622000Y-96774000D03*
D25*
X196723000Y-91313000D03*
X198723000Y-91313000D03*
D24*
X143251100Y-87503600D03*
X133501100Y-91003600D03*
X131751100Y-87503600D03*
X131751100Y-83003600D03*
X131751100Y-78503600D03*
X133501100Y-75003600D03*
X137501100Y-74003600D03*
X141501100Y-75003600D03*
X143251100Y-78503600D03*
X143251100Y-83003600D03*
X141501100Y-91003600D03*
X137501100Y-92003600D03*
D26*
X211501100Y-83003600D03*
D28*
X174501100Y-74463600D03*
D29*
X174501100Y-79543600D03*
D28*
X122501100Y-86463600D03*
D29*
X122501100Y-91543600D03*
D25*
X92964000Y-91313000D03*
X94964000Y-91313000D03*
D28*
X174501100Y-86463600D03*
D29*
X174501100Y-91543600D03*
D18*
X150622000Y-107315000D03*
D19*
X153162000Y-107315000D03*
X155702000Y-107315000D03*
X158242000Y-107315000D03*
X160782000Y-107315000D03*
X163322000Y-107315000D03*
X165862000Y-107315000D03*
X168402000Y-107315000D03*
X168402000Y-114935000D03*
X165862000Y-114935000D03*
X163322000Y-114935000D03*
X160782000Y-114935000D03*
X158242000Y-114935000D03*
X155702000Y-114935000D03*
X153162000Y-114935000D03*
X150622000Y-114935000D03*
D18*
X128524000Y-107315000D03*
D19*
X131064000Y-107315000D03*
X133604000Y-107315000D03*
X136144000Y-107315000D03*
X138684000Y-107315000D03*
X141224000Y-107315000D03*
X143764000Y-107315000D03*
X146304000Y-107315000D03*
X146304000Y-114935000D03*
X143764000Y-114935000D03*
X141224000Y-114935000D03*
X138684000Y-114935000D03*
X136144000Y-114935000D03*
X133604000Y-114935000D03*
X131064000Y-114935000D03*
X128524000Y-114935000D03*
D18*
X98567000Y-107315000D03*
D19*
X101107000Y-107315000D03*
X103647000Y-107315000D03*
X106187000Y-107315000D03*
X108727000Y-107315000D03*
X111267000Y-107315000D03*
X113807000Y-107315000D03*
X116347000Y-107315000D03*
X116347000Y-114935000D03*
X113807000Y-114935000D03*
X111267000Y-114935000D03*
X108727000Y-114935000D03*
X106187000Y-114935000D03*
X103647000Y-114935000D03*
X101107000Y-114935000D03*
X98567000Y-114935000D03*
D32*
X188225000Y-112310000D03*
X212725000Y-111760000D03*
X212725000Y-109220000D03*
X188225000Y-109770000D03*
X188225000Y-107230000D03*
D18*
X191566800Y-107289600D03*
D19*
X194106800Y-107289600D03*
X196646800Y-107289600D03*
X199186800Y-107289600D03*
X201726800Y-107289600D03*
X204266800Y-107289600D03*
X206806800Y-107289600D03*
X209346800Y-107289600D03*
X209346800Y-114909600D03*
X206806800Y-114909600D03*
X204266800Y-114909600D03*
X201726800Y-114909600D03*
X199186800Y-114909600D03*
X196646800Y-114909600D03*
X194106800Y-114909600D03*
X191566800Y-114909600D03*
%LPD*%
M02*
