M48
; DRILL file {KiCad 7.0.5} date Wed Sep  6 13:33:29 2023
; FORMAT={-:-/ absolute / metric / decimal}
; #@! TF.CreationDate,2023-09-06T13:33:29-04:00
; #@! TF.GenerationSoftware,Kicad,Pcbnew,7.0.5
; #@! TF.FileFunction,Plated,1,2,PTH
FMAT,2
METRIC
; #@! TA.AperFunction,Plated,PTH,ViaDrill
T1C0.300
; #@! TA.AperFunction,Plated,PTH,ViaDrill
T2C0.400
; #@! TA.AperFunction,Plated,PTH,ComponentDrill
T3C0.800
; #@! TA.AperFunction,Plated,PTH,ComponentDrill
T4C1.000
; #@! TA.AperFunction,Plated,PTH,ComponentDrill
T5C1.016
; #@! TA.AperFunction,Plated,PTH,ComponentDrill
T6C1.600
%
G90
G05
T1
X77.47Y-106.807
X82.296Y-88.9
X92.964Y-99.695
X102.362Y-101.092
X104.267Y-88.9
X108.712Y-112.395
X111.252Y-112.522
X115.951Y-100.457
X116.935Y-74.517
X116.95Y-86.347
X118.999Y-107.061
X121.412Y-115.189
X122.301Y-97.409
X133.731Y-101.092
X134.239Y-88.9
X138.684Y-111.223
X141.224Y-112.522
X146.685Y-100.33
X148.209Y-108.578
X148.336Y-115.062
X156.337Y-88.9
X156.718Y-101.219
X160.782Y-111.223
X163.322Y-112.522
X168.021Y-100.33
X169.259Y-74.263
X169.259Y-86.36
X174.244Y-97.409
X184.404Y-101.092
X186.309Y-88.9
X197.739Y-100.076
X201.676Y-111.252
X206.502Y-111.379
X207.772Y-101.727
X208.28Y-88.9
X211.836Y-115.189
X218.44Y-99.822
T2
X181.61Y-109.728
T3
X76.596Y-96.764
X76.596Y-104.384
X79.136Y-96.764
X79.136Y-104.384
X81.676Y-96.764
X81.676Y-104.384
X84.216Y-96.764
X84.216Y-104.384
X86.756Y-96.764
X86.756Y-104.384
X89.296Y-96.764
X89.296Y-104.384
X91.836Y-96.764
X91.836Y-104.384
X94.376Y-96.764
X94.376Y-104.384
X98.552Y-96.774
X98.552Y-104.394
X98.567Y-107.315
X98.567Y-114.935
X101.092Y-96.774
X101.092Y-104.394
X101.107Y-107.315
X101.107Y-114.935
X103.632Y-96.774
X103.632Y-104.394
X103.647Y-107.315
X103.647Y-114.935
X106.172Y-96.774
X106.172Y-104.394
X106.187Y-107.315
X106.187Y-114.935
X108.712Y-96.774
X108.712Y-104.394
X108.727Y-107.315
X108.727Y-114.935
X111.252Y-96.774
X111.252Y-104.394
X111.267Y-107.315
X111.267Y-114.935
X113.792Y-96.774
X113.792Y-104.394
X113.807Y-107.315
X113.807Y-114.935
X116.332Y-96.774
X116.332Y-104.394
X116.347Y-107.315
X116.347Y-114.935
X122.501Y-74.464
X122.501Y-79.544
X122.501Y-86.464
X122.501Y-91.544
X128.524Y-96.774
X128.524Y-104.394
X128.524Y-107.315
X128.524Y-114.935
X131.064Y-96.774
X131.064Y-104.394
X131.064Y-107.315
X131.064Y-114.935
X133.604Y-96.774
X133.604Y-104.394
X133.604Y-107.315
X133.604Y-114.935
X136.144Y-96.774
X136.144Y-104.394
X136.144Y-107.315
X136.144Y-114.935
X138.684Y-96.774
X138.684Y-104.394
X138.684Y-107.315
X138.684Y-114.935
X141.224Y-96.774
X141.224Y-104.394
X141.224Y-107.315
X141.224Y-114.935
X143.764Y-96.774
X143.764Y-104.394
X143.764Y-107.315
X143.764Y-114.935
X146.304Y-96.774
X146.304Y-104.394
X146.304Y-107.315
X146.304Y-114.935
X150.622Y-96.774
X150.622Y-104.394
X150.622Y-107.315
X150.622Y-114.935
X153.162Y-96.774
X153.162Y-104.394
X153.162Y-107.315
X153.162Y-114.935
X155.702Y-96.774
X155.702Y-104.394
X155.702Y-107.315
X155.702Y-114.935
X158.242Y-96.774
X158.242Y-104.394
X158.242Y-107.315
X158.242Y-114.935
X160.782Y-96.774
X160.782Y-104.394
X160.782Y-107.315
X160.782Y-114.935
X163.322Y-96.774
X163.322Y-104.394
X163.322Y-107.315
X163.322Y-114.935
X165.862Y-96.774
X165.862Y-104.394
X165.862Y-107.315
X165.862Y-114.935
X168.402Y-96.774
X168.402Y-104.394
X168.402Y-107.315
X168.402Y-114.935
X174.501Y-74.464
X174.501Y-79.544
X174.501Y-86.464
X174.501Y-91.544
X180.594Y-96.774
X180.594Y-104.394
X183.134Y-96.774
X183.134Y-104.394
X185.674Y-96.774
X185.674Y-104.394
X188.214Y-96.774
X188.214Y-104.394
X190.754Y-96.774
X190.754Y-104.394
X191.567Y-107.29
X191.567Y-114.91
X193.294Y-96.774
X193.294Y-104.394
X194.107Y-107.29
X194.107Y-114.91
X195.834Y-96.774
X195.834Y-104.394
X196.647Y-107.29
X196.647Y-114.91
X198.374Y-96.774
X198.374Y-104.394
X199.187Y-107.29
X199.187Y-114.91
X201.727Y-107.29
X201.727Y-114.91
X202.565Y-96.774
X202.565Y-104.394
X204.267Y-107.29
X204.267Y-114.91
X205.105Y-96.774
X205.105Y-104.394
X206.807Y-107.29
X206.807Y-114.91
X207.645Y-96.774
X207.645Y-104.394
X209.347Y-107.29
X209.347Y-114.91
X210.185Y-96.774
X210.185Y-104.394
X212.725Y-96.774
X212.725Y-104.394
X215.265Y-96.774
X215.265Y-104.394
X217.805Y-96.774
X217.805Y-104.394
X220.345Y-96.774
X220.345Y-104.394
T4
X80.645Y-109.347
X80.645Y-111.887
X83.185Y-109.347
X83.185Y-111.887
X85.725Y-109.347
X85.725Y-111.887
X88.265Y-109.347
X88.265Y-111.887
T5
X188.225Y-107.23
X188.225Y-109.77
X188.225Y-112.31
X212.725Y-109.22
X212.725Y-111.76
T6
X79.751Y-78.504
X79.751Y-83.004
X79.751Y-87.504
X81.501Y-75.004
X81.501Y-91.004
X85.501Y-74.004
X85.501Y-92.004
X89.501Y-75.004
X89.501Y-91.004
X91.251Y-78.504
X91.251Y-83.004
X91.251Y-87.504
X101.751Y-78.504
X101.751Y-83.004
X101.751Y-87.504
X103.501Y-75.004
X103.501Y-91.004
X107.501Y-74.004
X107.501Y-92.004
X111.501Y-75.004
X111.501Y-91.004
X113.251Y-78.504
X113.251Y-83.004
X113.251Y-87.504
X131.751Y-78.504
X131.751Y-83.004
X131.751Y-87.504
X133.501Y-75.004
X133.501Y-91.004
X137.501Y-74.004
X137.501Y-92.004
X141.501Y-75.004
X141.501Y-91.004
X143.251Y-78.504
X143.251Y-83.004
X143.251Y-87.504
X153.751Y-78.504
X153.751Y-83.004
X153.751Y-87.504
X155.501Y-75.004
X155.501Y-91.004
X159.501Y-74.004
X159.501Y-92.004
X163.501Y-75.004
X163.501Y-91.004
X165.251Y-78.504
X165.251Y-83.004
X165.251Y-87.504
X183.751Y-78.504
X183.751Y-83.004
X183.751Y-87.504
X185.501Y-75.004
X185.501Y-91.004
X189.501Y-74.004
X189.501Y-92.004
X193.501Y-75.004
X193.501Y-91.004
X195.251Y-78.504
X195.251Y-83.004
X195.251Y-87.504
X205.751Y-78.504
X205.751Y-83.004
X205.751Y-87.504
X207.501Y-75.004
X207.501Y-91.004
X211.501Y-74.004
X211.501Y-92.004
X215.501Y-75.004
X215.501Y-91.004
X217.251Y-78.504
X217.251Y-83.004
X217.251Y-87.504
T0
M30
