%TF.GenerationSoftware,KiCad,Pcbnew,7.0.5*%
%TF.CreationDate,2023-09-06T13:33:30-04:00*%
%TF.ProjectId,untitled,756e7469-746c-4656-942e-6b696361645f,rev?*%
%TF.SameCoordinates,Original*%
%TF.FileFunction,Drillmap*%
%TF.FilePolarity,Positive*%
%FSLAX45Y45*%
G04 Gerber Fmt 4.5, Leading zero omitted, Abs format (unit mm)*
G04 Created by KiCad (PCBNEW 7.0.5) date 2023-09-06 13:33:30*
%MOMM*%
%LPD*%
G01*
G04 APERTURE LIST*
%ADD10C,0.050000*%
%ADD11C,0.152400*%
%ADD12C,0.200000*%
%ADD13C,0.030000*%
%ADD14C,0.040000*%
%ADD15C,0.080000*%
%ADD16C,0.100000*%
%ADD17C,0.101600*%
%ADD18C,0.160000*%
G04 APERTURE END LIST*
D10*
X7350110Y-7000360D02*
X7350110Y-11709400D01*
D11*
X7350110Y-11709400D02*
X22350110Y-11709400D01*
D10*
X22350110Y-7000360D02*
X22350110Y-11709400D01*
D11*
X22350110Y-7000360D02*
X7350110Y-7000360D01*
D12*
D13*
X7732000Y-10665700D02*
X7762000Y-10695700D01*
X7762000Y-10665700D02*
X7732000Y-10695700D01*
X8214600Y-8875000D02*
X8244600Y-8905000D01*
X8244600Y-8875000D02*
X8214600Y-8905000D01*
X9281400Y-9954500D02*
X9311400Y-9984500D01*
X9311400Y-9954500D02*
X9281400Y-9984500D01*
X10221200Y-10094200D02*
X10251200Y-10124200D01*
X10251200Y-10094200D02*
X10221200Y-10124200D01*
X10411700Y-8875000D02*
X10441700Y-8905000D01*
X10441700Y-8875000D02*
X10411700Y-8905000D01*
X10856200Y-11224500D02*
X10886200Y-11254500D01*
X10886200Y-11224500D02*
X10856200Y-11254500D01*
X11110200Y-11237200D02*
X11140200Y-11267200D01*
X11140200Y-11237200D02*
X11110200Y-11267200D01*
X11580100Y-10030700D02*
X11610100Y-10060700D01*
X11610100Y-10030700D02*
X11580100Y-10060700D01*
X11678500Y-7436700D02*
X11708500Y-7466700D01*
X11708500Y-7436700D02*
X11678500Y-7466700D01*
X11680030Y-8619669D02*
X11710030Y-8649669D01*
X11710030Y-8619669D02*
X11680030Y-8649669D01*
X11884900Y-10691100D02*
X11914900Y-10721100D01*
X11914900Y-10691100D02*
X11884900Y-10721100D01*
X12126200Y-11503900D02*
X12156200Y-11533900D01*
X12156200Y-11503900D02*
X12126200Y-11533900D01*
X12215100Y-9725900D02*
X12245100Y-9755900D01*
X12245100Y-9725900D02*
X12215100Y-9755900D01*
X13358100Y-10094200D02*
X13388100Y-10124200D01*
X13388100Y-10094200D02*
X13358100Y-10124200D01*
X13408900Y-8875000D02*
X13438900Y-8905000D01*
X13438900Y-8875000D02*
X13408900Y-8905000D01*
X13853400Y-11107300D02*
X13883400Y-11137300D01*
X13883400Y-11107300D02*
X13853400Y-11137300D01*
X14107400Y-11237200D02*
X14137400Y-11267200D01*
X14137400Y-11237200D02*
X14107400Y-11267200D01*
X14653500Y-10018000D02*
X14683500Y-10048000D01*
X14683500Y-10018000D02*
X14653500Y-10048000D01*
X14805900Y-10842850D02*
X14835900Y-10872850D01*
X14835900Y-10842850D02*
X14805900Y-10872850D01*
X14818600Y-11491200D02*
X14848600Y-11521200D01*
X14848600Y-11491200D02*
X14818600Y-11521200D01*
X15618700Y-8875000D02*
X15648700Y-8905000D01*
X15648700Y-8875000D02*
X15618700Y-8905000D01*
X15656800Y-10106900D02*
X15686800Y-10136900D01*
X15686800Y-10106900D02*
X15656800Y-10136900D01*
X16063200Y-11107300D02*
X16093200Y-11137300D01*
X16093200Y-11107300D02*
X16063200Y-11137300D01*
X16317200Y-11237200D02*
X16347200Y-11267200D01*
X16347200Y-11237200D02*
X16317200Y-11267200D01*
X16787100Y-10018000D02*
X16817100Y-10048000D01*
X16817100Y-10018000D02*
X16787100Y-10048000D01*
X16910900Y-7411300D02*
X16940900Y-7441300D01*
X16940900Y-7411300D02*
X16910900Y-7441300D01*
X16910900Y-8621000D02*
X16940900Y-8651000D01*
X16940900Y-8621000D02*
X16910900Y-8651000D01*
X17409400Y-9725900D02*
X17439400Y-9755900D01*
X17439400Y-9725900D02*
X17409400Y-9755900D01*
X18425400Y-10094200D02*
X18455400Y-10124200D01*
X18455400Y-10094200D02*
X18425400Y-10124200D01*
X18615900Y-8875000D02*
X18645900Y-8905000D01*
X18645900Y-8875000D02*
X18615900Y-8905000D01*
X19758900Y-9992600D02*
X19788900Y-10022600D01*
X19788900Y-9992600D02*
X19758900Y-10022600D01*
X20152600Y-11110200D02*
X20182600Y-11140200D01*
X20182600Y-11110200D02*
X20152600Y-11140200D01*
X20635200Y-11122900D02*
X20665200Y-11152900D01*
X20665200Y-11122900D02*
X20635200Y-11152900D01*
X20762200Y-10157700D02*
X20792200Y-10187700D01*
X20792200Y-10157700D02*
X20762200Y-10187700D01*
X20813000Y-8875000D02*
X20843000Y-8905000D01*
X20843000Y-8875000D02*
X20813000Y-8905000D01*
X21168600Y-11503900D02*
X21198600Y-11533900D01*
X21198600Y-11503900D02*
X21168600Y-11533900D01*
X21829000Y-9967200D02*
X21859000Y-9997200D01*
X21859000Y-9967200D02*
X21829000Y-9997200D01*
D14*
X18181000Y-10972800D02*
G75*
G03*
X18181000Y-10972800I-20000J0D01*
G01*
D15*
X7659600Y-9636400D02*
X7659600Y-9716400D01*
X7619600Y-9676400D02*
X7699600Y-9676400D01*
X7659600Y-10398400D02*
X7659600Y-10478400D01*
X7619600Y-10438400D02*
X7699600Y-10438400D01*
X7913600Y-9636400D02*
X7913600Y-9716400D01*
X7873600Y-9676400D02*
X7953600Y-9676400D01*
X7913600Y-10398400D02*
X7913600Y-10478400D01*
X7873600Y-10438400D02*
X7953600Y-10438400D01*
X8167600Y-9636400D02*
X8167600Y-9716400D01*
X8127600Y-9676400D02*
X8207600Y-9676400D01*
X8167600Y-10398400D02*
X8167600Y-10478400D01*
X8127600Y-10438400D02*
X8207600Y-10438400D01*
X8421600Y-9636400D02*
X8421600Y-9716400D01*
X8381600Y-9676400D02*
X8461600Y-9676400D01*
X8421600Y-10398400D02*
X8421600Y-10478400D01*
X8381600Y-10438400D02*
X8461600Y-10438400D01*
X8675600Y-9636400D02*
X8675600Y-9716400D01*
X8635600Y-9676400D02*
X8715600Y-9676400D01*
X8675600Y-10398400D02*
X8675600Y-10478400D01*
X8635600Y-10438400D02*
X8715600Y-10438400D01*
X8929600Y-9636400D02*
X8929600Y-9716400D01*
X8889600Y-9676400D02*
X8969600Y-9676400D01*
X8929600Y-10398400D02*
X8929600Y-10478400D01*
X8889600Y-10438400D02*
X8969600Y-10438400D01*
X9183600Y-9636400D02*
X9183600Y-9716400D01*
X9143600Y-9676400D02*
X9223600Y-9676400D01*
X9183600Y-10398400D02*
X9183600Y-10478400D01*
X9143600Y-10438400D02*
X9223600Y-10438400D01*
X9437600Y-9636400D02*
X9437600Y-9716400D01*
X9397600Y-9676400D02*
X9477600Y-9676400D01*
X9437600Y-10398400D02*
X9437600Y-10478400D01*
X9397600Y-10438400D02*
X9477600Y-10438400D01*
X9855200Y-9637400D02*
X9855200Y-9717400D01*
X9815200Y-9677400D02*
X9895200Y-9677400D01*
X9855200Y-10399400D02*
X9855200Y-10479400D01*
X9815200Y-10439400D02*
X9895200Y-10439400D01*
X9856700Y-10691500D02*
X9856700Y-10771500D01*
X9816700Y-10731500D02*
X9896700Y-10731500D01*
X9856700Y-11453500D02*
X9856700Y-11533500D01*
X9816700Y-11493500D02*
X9896700Y-11493500D01*
X10109200Y-9637400D02*
X10109200Y-9717400D01*
X10069200Y-9677400D02*
X10149200Y-9677400D01*
X10109200Y-10399400D02*
X10109200Y-10479400D01*
X10069200Y-10439400D02*
X10149200Y-10439400D01*
X10110700Y-10691500D02*
X10110700Y-10771500D01*
X10070700Y-10731500D02*
X10150700Y-10731500D01*
X10110700Y-11453500D02*
X10110700Y-11533500D01*
X10070700Y-11493500D02*
X10150700Y-11493500D01*
X10363200Y-9637400D02*
X10363200Y-9717400D01*
X10323200Y-9677400D02*
X10403200Y-9677400D01*
X10363200Y-10399400D02*
X10363200Y-10479400D01*
X10323200Y-10439400D02*
X10403200Y-10439400D01*
X10364700Y-10691500D02*
X10364700Y-10771500D01*
X10324700Y-10731500D02*
X10404700Y-10731500D01*
X10364700Y-11453500D02*
X10364700Y-11533500D01*
X10324700Y-11493500D02*
X10404700Y-11493500D01*
X10617200Y-9637400D02*
X10617200Y-9717400D01*
X10577200Y-9677400D02*
X10657200Y-9677400D01*
X10617200Y-10399400D02*
X10617200Y-10479400D01*
X10577200Y-10439400D02*
X10657200Y-10439400D01*
X10618700Y-10691500D02*
X10618700Y-10771500D01*
X10578700Y-10731500D02*
X10658700Y-10731500D01*
X10618700Y-11453500D02*
X10618700Y-11533500D01*
X10578700Y-11493500D02*
X10658700Y-11493500D01*
X10871200Y-9637400D02*
X10871200Y-9717400D01*
X10831200Y-9677400D02*
X10911200Y-9677400D01*
X10871200Y-10399400D02*
X10871200Y-10479400D01*
X10831200Y-10439400D02*
X10911200Y-10439400D01*
X10872700Y-10691500D02*
X10872700Y-10771500D01*
X10832700Y-10731500D02*
X10912700Y-10731500D01*
X10872700Y-11453500D02*
X10872700Y-11533500D01*
X10832700Y-11493500D02*
X10912700Y-11493500D01*
X11125200Y-9637400D02*
X11125200Y-9717400D01*
X11085200Y-9677400D02*
X11165200Y-9677400D01*
X11125200Y-10399400D02*
X11125200Y-10479400D01*
X11085200Y-10439400D02*
X11165200Y-10439400D01*
X11126700Y-10691500D02*
X11126700Y-10771500D01*
X11086700Y-10731500D02*
X11166700Y-10731500D01*
X11126700Y-11453500D02*
X11126700Y-11533500D01*
X11086700Y-11493500D02*
X11166700Y-11493500D01*
X11379200Y-9637400D02*
X11379200Y-9717400D01*
X11339200Y-9677400D02*
X11419200Y-9677400D01*
X11379200Y-10399400D02*
X11379200Y-10479400D01*
X11339200Y-10439400D02*
X11419200Y-10439400D01*
X11380700Y-10691500D02*
X11380700Y-10771500D01*
X11340700Y-10731500D02*
X11420700Y-10731500D01*
X11380700Y-11453500D02*
X11380700Y-11533500D01*
X11340700Y-11493500D02*
X11420700Y-11493500D01*
X11633200Y-9637400D02*
X11633200Y-9717400D01*
X11593200Y-9677400D02*
X11673200Y-9677400D01*
X11633200Y-10399400D02*
X11633200Y-10479400D01*
X11593200Y-10439400D02*
X11673200Y-10439400D01*
X11634700Y-10691500D02*
X11634700Y-10771500D01*
X11594700Y-10731500D02*
X11674700Y-10731500D01*
X11634700Y-11453500D02*
X11634700Y-11533500D01*
X11594700Y-11493500D02*
X11674700Y-11493500D01*
X12250110Y-7406360D02*
X12250110Y-7486360D01*
X12210110Y-7446360D02*
X12290110Y-7446360D01*
X12250110Y-7914360D02*
X12250110Y-7994360D01*
X12210110Y-7954360D02*
X12290110Y-7954360D01*
X12250110Y-8606360D02*
X12250110Y-8686360D01*
X12210110Y-8646360D02*
X12290110Y-8646360D01*
X12250110Y-9114360D02*
X12250110Y-9194360D01*
X12210110Y-9154360D02*
X12290110Y-9154360D01*
X12852400Y-9637400D02*
X12852400Y-9717400D01*
X12812400Y-9677400D02*
X12892400Y-9677400D01*
X12852400Y-10399400D02*
X12852400Y-10479400D01*
X12812400Y-10439400D02*
X12892400Y-10439400D01*
X12852400Y-10691500D02*
X12852400Y-10771500D01*
X12812400Y-10731500D02*
X12892400Y-10731500D01*
X12852400Y-11453500D02*
X12852400Y-11533500D01*
X12812400Y-11493500D02*
X12892400Y-11493500D01*
X13106400Y-9637400D02*
X13106400Y-9717400D01*
X13066400Y-9677400D02*
X13146400Y-9677400D01*
X13106400Y-10399400D02*
X13106400Y-10479400D01*
X13066400Y-10439400D02*
X13146400Y-10439400D01*
X13106400Y-10691500D02*
X13106400Y-10771500D01*
X13066400Y-10731500D02*
X13146400Y-10731500D01*
X13106400Y-11453500D02*
X13106400Y-11533500D01*
X13066400Y-11493500D02*
X13146400Y-11493500D01*
X13360400Y-9637400D02*
X13360400Y-9717400D01*
X13320400Y-9677400D02*
X13400400Y-9677400D01*
X13360400Y-10399400D02*
X13360400Y-10479400D01*
X13320400Y-10439400D02*
X13400400Y-10439400D01*
X13360400Y-10691500D02*
X13360400Y-10771500D01*
X13320400Y-10731500D02*
X13400400Y-10731500D01*
X13360400Y-11453500D02*
X13360400Y-11533500D01*
X13320400Y-11493500D02*
X13400400Y-11493500D01*
X13614400Y-9637400D02*
X13614400Y-9717400D01*
X13574400Y-9677400D02*
X13654400Y-9677400D01*
X13614400Y-10399400D02*
X13614400Y-10479400D01*
X13574400Y-10439400D02*
X13654400Y-10439400D01*
X13614400Y-10691500D02*
X13614400Y-10771500D01*
X13574400Y-10731500D02*
X13654400Y-10731500D01*
X13614400Y-11453500D02*
X13614400Y-11533500D01*
X13574400Y-11493500D02*
X13654400Y-11493500D01*
X13868400Y-9637400D02*
X13868400Y-9717400D01*
X13828400Y-9677400D02*
X13908400Y-9677400D01*
X13868400Y-10399400D02*
X13868400Y-10479400D01*
X13828400Y-10439400D02*
X13908400Y-10439400D01*
X13868400Y-10691500D02*
X13868400Y-10771500D01*
X13828400Y-10731500D02*
X13908400Y-10731500D01*
X13868400Y-11453500D02*
X13868400Y-11533500D01*
X13828400Y-11493500D02*
X13908400Y-11493500D01*
X14122400Y-9637400D02*
X14122400Y-9717400D01*
X14082400Y-9677400D02*
X14162400Y-9677400D01*
X14122400Y-10399400D02*
X14122400Y-10479400D01*
X14082400Y-10439400D02*
X14162400Y-10439400D01*
X14122400Y-10691500D02*
X14122400Y-10771500D01*
X14082400Y-10731500D02*
X14162400Y-10731500D01*
X14122400Y-11453500D02*
X14122400Y-11533500D01*
X14082400Y-11493500D02*
X14162400Y-11493500D01*
X14376400Y-9637400D02*
X14376400Y-9717400D01*
X14336400Y-9677400D02*
X14416400Y-9677400D01*
X14376400Y-10399400D02*
X14376400Y-10479400D01*
X14336400Y-10439400D02*
X14416400Y-10439400D01*
X14376400Y-10691500D02*
X14376400Y-10771500D01*
X14336400Y-10731500D02*
X14416400Y-10731500D01*
X14376400Y-11453500D02*
X14376400Y-11533500D01*
X14336400Y-11493500D02*
X14416400Y-11493500D01*
X14630400Y-9637400D02*
X14630400Y-9717400D01*
X14590400Y-9677400D02*
X14670400Y-9677400D01*
X14630400Y-10399400D02*
X14630400Y-10479400D01*
X14590400Y-10439400D02*
X14670400Y-10439400D01*
X14630400Y-10691500D02*
X14630400Y-10771500D01*
X14590400Y-10731500D02*
X14670400Y-10731500D01*
X14630400Y-11453500D02*
X14630400Y-11533500D01*
X14590400Y-11493500D02*
X14670400Y-11493500D01*
X15062200Y-9637400D02*
X15062200Y-9717400D01*
X15022200Y-9677400D02*
X15102200Y-9677400D01*
X15062200Y-10399400D02*
X15062200Y-10479400D01*
X15022200Y-10439400D02*
X15102200Y-10439400D01*
X15062200Y-10691500D02*
X15062200Y-10771500D01*
X15022200Y-10731500D02*
X15102200Y-10731500D01*
X15062200Y-11453500D02*
X15062200Y-11533500D01*
X15022200Y-11493500D02*
X15102200Y-11493500D01*
X15316200Y-9637400D02*
X15316200Y-9717400D01*
X15276200Y-9677400D02*
X15356200Y-9677400D01*
X15316200Y-10399400D02*
X15316200Y-10479400D01*
X15276200Y-10439400D02*
X15356200Y-10439400D01*
X15316200Y-10691500D02*
X15316200Y-10771500D01*
X15276200Y-10731500D02*
X15356200Y-10731500D01*
X15316200Y-11453500D02*
X15316200Y-11533500D01*
X15276200Y-11493500D02*
X15356200Y-11493500D01*
X15570200Y-9637400D02*
X15570200Y-9717400D01*
X15530200Y-9677400D02*
X15610200Y-9677400D01*
X15570200Y-10399400D02*
X15570200Y-10479400D01*
X15530200Y-10439400D02*
X15610200Y-10439400D01*
X15570200Y-10691500D02*
X15570200Y-10771500D01*
X15530200Y-10731500D02*
X15610200Y-10731500D01*
X15570200Y-11453500D02*
X15570200Y-11533500D01*
X15530200Y-11493500D02*
X15610200Y-11493500D01*
X15824200Y-9637400D02*
X15824200Y-9717400D01*
X15784200Y-9677400D02*
X15864200Y-9677400D01*
X15824200Y-10399400D02*
X15824200Y-10479400D01*
X15784200Y-10439400D02*
X15864200Y-10439400D01*
X15824200Y-10691500D02*
X15824200Y-10771500D01*
X15784200Y-10731500D02*
X15864200Y-10731500D01*
X15824200Y-11453500D02*
X15824200Y-11533500D01*
X15784200Y-11493500D02*
X15864200Y-11493500D01*
X16078200Y-9637400D02*
X16078200Y-9717400D01*
X16038200Y-9677400D02*
X16118200Y-9677400D01*
X16078200Y-10399400D02*
X16078200Y-10479400D01*
X16038200Y-10439400D02*
X16118200Y-10439400D01*
X16078200Y-10691500D02*
X16078200Y-10771500D01*
X16038200Y-10731500D02*
X16118200Y-10731500D01*
X16078200Y-11453500D02*
X16078200Y-11533500D01*
X16038200Y-11493500D02*
X16118200Y-11493500D01*
X16332200Y-9637400D02*
X16332200Y-9717400D01*
X16292200Y-9677400D02*
X16372200Y-9677400D01*
X16332200Y-10399400D02*
X16332200Y-10479400D01*
X16292200Y-10439400D02*
X16372200Y-10439400D01*
X16332200Y-10691500D02*
X16332200Y-10771500D01*
X16292200Y-10731500D02*
X16372200Y-10731500D01*
X16332200Y-11453500D02*
X16332200Y-11533500D01*
X16292200Y-11493500D02*
X16372200Y-11493500D01*
X16586200Y-9637400D02*
X16586200Y-9717400D01*
X16546200Y-9677400D02*
X16626200Y-9677400D01*
X16586200Y-10399400D02*
X16586200Y-10479400D01*
X16546200Y-10439400D02*
X16626200Y-10439400D01*
X16586200Y-10691500D02*
X16586200Y-10771500D01*
X16546200Y-10731500D02*
X16626200Y-10731500D01*
X16586200Y-11453500D02*
X16586200Y-11533500D01*
X16546200Y-11493500D02*
X16626200Y-11493500D01*
X16840200Y-9637400D02*
X16840200Y-9717400D01*
X16800200Y-9677400D02*
X16880200Y-9677400D01*
X16840200Y-10399400D02*
X16840200Y-10479400D01*
X16800200Y-10439400D02*
X16880200Y-10439400D01*
X16840200Y-10691500D02*
X16840200Y-10771500D01*
X16800200Y-10731500D02*
X16880200Y-10731500D01*
X16840200Y-11453500D02*
X16840200Y-11533500D01*
X16800200Y-11493500D02*
X16880200Y-11493500D01*
X17450110Y-7406360D02*
X17450110Y-7486360D01*
X17410110Y-7446360D02*
X17490110Y-7446360D01*
X17450110Y-7914360D02*
X17450110Y-7994360D01*
X17410110Y-7954360D02*
X17490110Y-7954360D01*
X17450110Y-8606360D02*
X17450110Y-8686360D01*
X17410110Y-8646360D02*
X17490110Y-8646360D01*
X17450110Y-9114360D02*
X17450110Y-9194360D01*
X17410110Y-9154360D02*
X17490110Y-9154360D01*
X18059400Y-9637400D02*
X18059400Y-9717400D01*
X18019400Y-9677400D02*
X18099400Y-9677400D01*
X18059400Y-10399400D02*
X18059400Y-10479400D01*
X18019400Y-10439400D02*
X18099400Y-10439400D01*
X18313400Y-9637400D02*
X18313400Y-9717400D01*
X18273400Y-9677400D02*
X18353400Y-9677400D01*
X18313400Y-10399400D02*
X18313400Y-10479400D01*
X18273400Y-10439400D02*
X18353400Y-10439400D01*
X18567400Y-9637400D02*
X18567400Y-9717400D01*
X18527400Y-9677400D02*
X18607400Y-9677400D01*
X18567400Y-10399400D02*
X18567400Y-10479400D01*
X18527400Y-10439400D02*
X18607400Y-10439400D01*
X18821400Y-9637400D02*
X18821400Y-9717400D01*
X18781400Y-9677400D02*
X18861400Y-9677400D01*
X18821400Y-10399400D02*
X18821400Y-10479400D01*
X18781400Y-10439400D02*
X18861400Y-10439400D01*
X19075400Y-9637400D02*
X19075400Y-9717400D01*
X19035400Y-9677400D02*
X19115400Y-9677400D01*
X19075400Y-10399400D02*
X19075400Y-10479400D01*
X19035400Y-10439400D02*
X19115400Y-10439400D01*
X19156680Y-10688960D02*
X19156680Y-10768960D01*
X19116680Y-10728960D02*
X19196680Y-10728960D01*
X19156680Y-11450960D02*
X19156680Y-11530960D01*
X19116680Y-11490960D02*
X19196680Y-11490960D01*
X19329400Y-9637400D02*
X19329400Y-9717400D01*
X19289400Y-9677400D02*
X19369400Y-9677400D01*
X19329400Y-10399400D02*
X19329400Y-10479400D01*
X19289400Y-10439400D02*
X19369400Y-10439400D01*
X19410680Y-10688960D02*
X19410680Y-10768960D01*
X19370680Y-10728960D02*
X19450680Y-10728960D01*
X19410680Y-11450960D02*
X19410680Y-11530960D01*
X19370680Y-11490960D02*
X19450680Y-11490960D01*
X19583400Y-9637400D02*
X19583400Y-9717400D01*
X19543400Y-9677400D02*
X19623400Y-9677400D01*
X19583400Y-10399400D02*
X19583400Y-10479400D01*
X19543400Y-10439400D02*
X19623400Y-10439400D01*
X19664680Y-10688960D02*
X19664680Y-10768960D01*
X19624680Y-10728960D02*
X19704680Y-10728960D01*
X19664680Y-11450960D02*
X19664680Y-11530960D01*
X19624680Y-11490960D02*
X19704680Y-11490960D01*
X19837400Y-9637400D02*
X19837400Y-9717400D01*
X19797400Y-9677400D02*
X19877400Y-9677400D01*
X19837400Y-10399400D02*
X19837400Y-10479400D01*
X19797400Y-10439400D02*
X19877400Y-10439400D01*
X19918680Y-10688960D02*
X19918680Y-10768960D01*
X19878680Y-10728960D02*
X19958680Y-10728960D01*
X19918680Y-11450960D02*
X19918680Y-11530960D01*
X19878680Y-11490960D02*
X19958680Y-11490960D01*
X20172680Y-10688960D02*
X20172680Y-10768960D01*
X20132680Y-10728960D02*
X20212680Y-10728960D01*
X20172680Y-11450960D02*
X20172680Y-11530960D01*
X20132680Y-11490960D02*
X20212680Y-11490960D01*
X20256500Y-9637400D02*
X20256500Y-9717400D01*
X20216500Y-9677400D02*
X20296500Y-9677400D01*
X20256500Y-10399400D02*
X20256500Y-10479400D01*
X20216500Y-10439400D02*
X20296500Y-10439400D01*
X20426680Y-10688960D02*
X20426680Y-10768960D01*
X20386680Y-10728960D02*
X20466680Y-10728960D01*
X20426680Y-11450960D02*
X20426680Y-11530960D01*
X20386680Y-11490960D02*
X20466680Y-11490960D01*
X20510500Y-9637400D02*
X20510500Y-9717400D01*
X20470500Y-9677400D02*
X20550500Y-9677400D01*
X20510500Y-10399400D02*
X20510500Y-10479400D01*
X20470500Y-10439400D02*
X20550500Y-10439400D01*
X20680680Y-10688960D02*
X20680680Y-10768960D01*
X20640680Y-10728960D02*
X20720680Y-10728960D01*
X20680680Y-11450960D02*
X20680680Y-11530960D01*
X20640680Y-11490960D02*
X20720680Y-11490960D01*
X20764500Y-9637400D02*
X20764500Y-9717400D01*
X20724500Y-9677400D02*
X20804500Y-9677400D01*
X20764500Y-10399400D02*
X20764500Y-10479400D01*
X20724500Y-10439400D02*
X20804500Y-10439400D01*
X20934680Y-10688960D02*
X20934680Y-10768960D01*
X20894680Y-10728960D02*
X20974680Y-10728960D01*
X20934680Y-11450960D02*
X20934680Y-11530960D01*
X20894680Y-11490960D02*
X20974680Y-11490960D01*
X21018500Y-9637400D02*
X21018500Y-9717400D01*
X20978500Y-9677400D02*
X21058500Y-9677400D01*
X21018500Y-10399400D02*
X21018500Y-10479400D01*
X20978500Y-10439400D02*
X21058500Y-10439400D01*
X21272500Y-9637400D02*
X21272500Y-9717400D01*
X21232500Y-9677400D02*
X21312500Y-9677400D01*
X21272500Y-10399400D02*
X21272500Y-10479400D01*
X21232500Y-10439400D02*
X21312500Y-10439400D01*
X21526500Y-9637400D02*
X21526500Y-9717400D01*
X21486500Y-9677400D02*
X21566500Y-9677400D01*
X21526500Y-10399400D02*
X21526500Y-10479400D01*
X21486500Y-10439400D02*
X21566500Y-10439400D01*
X21780500Y-9637400D02*
X21780500Y-9717400D01*
X21740500Y-9677400D02*
X21820500Y-9677400D01*
X21780500Y-10399400D02*
X21780500Y-10479400D01*
X21740500Y-10439400D02*
X21820500Y-10439400D01*
X22034500Y-9637400D02*
X22034500Y-9717400D01*
X21994500Y-9677400D02*
X22074500Y-9677400D01*
X22034500Y-10399400D02*
X22034500Y-10479400D01*
X21994500Y-10439400D02*
X22074500Y-10439400D01*
D16*
X8099856Y-10970056D02*
X8099856Y-10899344D01*
X8029144Y-10899344D01*
X8029144Y-10970056D01*
X8099856Y-10970056D01*
X8099856Y-11224056D02*
X8099856Y-11153344D01*
X8029144Y-11153344D01*
X8029144Y-11224056D01*
X8099856Y-11224056D01*
X8353856Y-10970056D02*
X8353856Y-10899344D01*
X8283144Y-10899344D01*
X8283144Y-10970056D01*
X8353856Y-10970056D01*
X8353856Y-11224056D02*
X8353856Y-11153344D01*
X8283144Y-11153344D01*
X8283144Y-11224056D01*
X8353856Y-11224056D01*
X8607856Y-10970056D02*
X8607856Y-10899344D01*
X8537144Y-10899344D01*
X8537144Y-10970056D01*
X8607856Y-10970056D01*
X8607856Y-11224056D02*
X8607856Y-11153344D01*
X8537144Y-11153344D01*
X8537144Y-11224056D01*
X8607856Y-11224056D01*
X8861856Y-10970056D02*
X8861856Y-10899344D01*
X8791144Y-10899344D01*
X8791144Y-10970056D01*
X8861856Y-10970056D01*
X8861856Y-11224056D02*
X8861856Y-11153344D01*
X8791144Y-11153344D01*
X8791144Y-11224056D01*
X8861856Y-11224056D01*
D17*
X18822500Y-10773800D02*
X18873300Y-10723000D01*
X18822500Y-10672200D01*
X18771700Y-10723000D01*
X18822500Y-10773800D01*
X18822500Y-11027800D02*
X18873300Y-10977000D01*
X18822500Y-10926200D01*
X18771700Y-10977000D01*
X18822500Y-11027800D01*
X18822500Y-11281800D02*
X18873300Y-11231000D01*
X18822500Y-11180200D01*
X18771700Y-11231000D01*
X18822500Y-11281800D01*
X21272500Y-10972800D02*
X21323300Y-10922000D01*
X21272500Y-10871200D01*
X21221700Y-10922000D01*
X21272500Y-10972800D01*
X21272500Y-11226800D02*
X21323300Y-11176000D01*
X21272500Y-11125200D01*
X21221700Y-11176000D01*
X21272500Y-11226800D01*
D18*
X7895110Y-7770360D02*
X8055110Y-7930360D01*
X8055110Y-7770360D02*
X7895110Y-7930360D01*
X8055110Y-7850360D02*
G75*
G03*
X8055110Y-7850360I-80000J0D01*
G01*
X7895110Y-8220360D02*
X8055110Y-8380360D01*
X8055110Y-8220360D02*
X7895110Y-8380360D01*
X8055110Y-8300360D02*
G75*
G03*
X8055110Y-8300360I-80000J0D01*
G01*
X7895110Y-8670360D02*
X8055110Y-8830360D01*
X8055110Y-8670360D02*
X7895110Y-8830360D01*
X8055110Y-8750360D02*
G75*
G03*
X8055110Y-8750360I-80000J0D01*
G01*
X8070110Y-7420360D02*
X8230110Y-7580360D01*
X8230110Y-7420360D02*
X8070110Y-7580360D01*
X8230110Y-7500360D02*
G75*
G03*
X8230110Y-7500360I-80000J0D01*
G01*
X8070110Y-9020360D02*
X8230110Y-9180360D01*
X8230110Y-9020360D02*
X8070110Y-9180360D01*
X8230110Y-9100360D02*
G75*
G03*
X8230110Y-9100360I-80000J0D01*
G01*
X8470110Y-7320360D02*
X8630110Y-7480360D01*
X8630110Y-7320360D02*
X8470110Y-7480360D01*
X8630110Y-7400360D02*
G75*
G03*
X8630110Y-7400360I-80000J0D01*
G01*
X8470110Y-9120360D02*
X8630110Y-9280360D01*
X8630110Y-9120360D02*
X8470110Y-9280360D01*
X8630110Y-9200360D02*
G75*
G03*
X8630110Y-9200360I-80000J0D01*
G01*
X8870110Y-7420360D02*
X9030110Y-7580360D01*
X9030110Y-7420360D02*
X8870110Y-7580360D01*
X9030110Y-7500360D02*
G75*
G03*
X9030110Y-7500360I-80000J0D01*
G01*
X8870110Y-9020360D02*
X9030110Y-9180360D01*
X9030110Y-9020360D02*
X8870110Y-9180360D01*
X9030110Y-9100360D02*
G75*
G03*
X9030110Y-9100360I-80000J0D01*
G01*
X9045110Y-7770360D02*
X9205110Y-7930360D01*
X9205110Y-7770360D02*
X9045110Y-7930360D01*
X9205110Y-7850360D02*
G75*
G03*
X9205110Y-7850360I-80000J0D01*
G01*
X9045110Y-8220360D02*
X9205110Y-8380360D01*
X9205110Y-8220360D02*
X9045110Y-8380360D01*
X9205110Y-8300360D02*
G75*
G03*
X9205110Y-8300360I-80000J0D01*
G01*
X9045110Y-8670360D02*
X9205110Y-8830360D01*
X9205110Y-8670360D02*
X9045110Y-8830360D01*
X9205110Y-8750360D02*
G75*
G03*
X9205110Y-8750360I-80000J0D01*
G01*
X10095110Y-7770360D02*
X10255110Y-7930360D01*
X10255110Y-7770360D02*
X10095110Y-7930360D01*
X10255110Y-7850360D02*
G75*
G03*
X10255110Y-7850360I-80000J0D01*
G01*
X10095110Y-8220360D02*
X10255110Y-8380360D01*
X10255110Y-8220360D02*
X10095110Y-8380360D01*
X10255110Y-8300360D02*
G75*
G03*
X10255110Y-8300360I-80000J0D01*
G01*
X10095110Y-8670360D02*
X10255110Y-8830360D01*
X10255110Y-8670360D02*
X10095110Y-8830360D01*
X10255110Y-8750360D02*
G75*
G03*
X10255110Y-8750360I-80000J0D01*
G01*
X10270110Y-7420360D02*
X10430110Y-7580360D01*
X10430110Y-7420360D02*
X10270110Y-7580360D01*
X10430110Y-7500360D02*
G75*
G03*
X10430110Y-7500360I-80000J0D01*
G01*
X10270110Y-9020360D02*
X10430110Y-9180360D01*
X10430110Y-9020360D02*
X10270110Y-9180360D01*
X10430110Y-9100360D02*
G75*
G03*
X10430110Y-9100360I-80000J0D01*
G01*
X10670110Y-7320360D02*
X10830110Y-7480360D01*
X10830110Y-7320360D02*
X10670110Y-7480360D01*
X10830110Y-7400360D02*
G75*
G03*
X10830110Y-7400360I-80000J0D01*
G01*
X10670110Y-9120360D02*
X10830110Y-9280360D01*
X10830110Y-9120360D02*
X10670110Y-9280360D01*
X10830110Y-9200360D02*
G75*
G03*
X10830110Y-9200360I-80000J0D01*
G01*
X11070110Y-7420360D02*
X11230110Y-7580360D01*
X11230110Y-7420360D02*
X11070110Y-7580360D01*
X11230110Y-7500360D02*
G75*
G03*
X11230110Y-7500360I-80000J0D01*
G01*
X11070110Y-9020360D02*
X11230110Y-9180360D01*
X11230110Y-9020360D02*
X11070110Y-9180360D01*
X11230110Y-9100360D02*
G75*
G03*
X11230110Y-9100360I-80000J0D01*
G01*
X11245110Y-7770360D02*
X11405110Y-7930360D01*
X11405110Y-7770360D02*
X11245110Y-7930360D01*
X11405110Y-7850360D02*
G75*
G03*
X11405110Y-7850360I-80000J0D01*
G01*
X11245110Y-8220360D02*
X11405110Y-8380360D01*
X11405110Y-8220360D02*
X11245110Y-8380360D01*
X11405110Y-8300360D02*
G75*
G03*
X11405110Y-8300360I-80000J0D01*
G01*
X11245110Y-8670360D02*
X11405110Y-8830360D01*
X11405110Y-8670360D02*
X11245110Y-8830360D01*
X11405110Y-8750360D02*
G75*
G03*
X11405110Y-8750360I-80000J0D01*
G01*
X13095110Y-7770360D02*
X13255110Y-7930360D01*
X13255110Y-7770360D02*
X13095110Y-7930360D01*
X13255110Y-7850360D02*
G75*
G03*
X13255110Y-7850360I-80000J0D01*
G01*
X13095110Y-8220360D02*
X13255110Y-8380360D01*
X13255110Y-8220360D02*
X13095110Y-8380360D01*
X13255110Y-8300360D02*
G75*
G03*
X13255110Y-8300360I-80000J0D01*
G01*
X13095110Y-8670360D02*
X13255110Y-8830360D01*
X13255110Y-8670360D02*
X13095110Y-8830360D01*
X13255110Y-8750360D02*
G75*
G03*
X13255110Y-8750360I-80000J0D01*
G01*
X13270110Y-7420360D02*
X13430110Y-7580360D01*
X13430110Y-7420360D02*
X13270110Y-7580360D01*
X13430110Y-7500360D02*
G75*
G03*
X13430110Y-7500360I-80000J0D01*
G01*
X13270110Y-9020360D02*
X13430110Y-9180360D01*
X13430110Y-9020360D02*
X13270110Y-9180360D01*
X13430110Y-9100360D02*
G75*
G03*
X13430110Y-9100360I-80000J0D01*
G01*
X13670110Y-7320360D02*
X13830110Y-7480360D01*
X13830110Y-7320360D02*
X13670110Y-7480360D01*
X13830110Y-7400360D02*
G75*
G03*
X13830110Y-7400360I-80000J0D01*
G01*
X13670110Y-9120360D02*
X13830110Y-9280360D01*
X13830110Y-9120360D02*
X13670110Y-9280360D01*
X13830110Y-9200360D02*
G75*
G03*
X13830110Y-9200360I-80000J0D01*
G01*
X14070110Y-7420360D02*
X14230110Y-7580360D01*
X14230110Y-7420360D02*
X14070110Y-7580360D01*
X14230110Y-7500360D02*
G75*
G03*
X14230110Y-7500360I-80000J0D01*
G01*
X14070110Y-9020360D02*
X14230110Y-9180360D01*
X14230110Y-9020360D02*
X14070110Y-9180360D01*
X14230110Y-9100360D02*
G75*
G03*
X14230110Y-9100360I-80000J0D01*
G01*
X14245110Y-7770360D02*
X14405110Y-7930360D01*
X14405110Y-7770360D02*
X14245110Y-7930360D01*
X14405110Y-7850360D02*
G75*
G03*
X14405110Y-7850360I-80000J0D01*
G01*
X14245110Y-8220360D02*
X14405110Y-8380360D01*
X14405110Y-8220360D02*
X14245110Y-8380360D01*
X14405110Y-8300360D02*
G75*
G03*
X14405110Y-8300360I-80000J0D01*
G01*
X14245110Y-8670360D02*
X14405110Y-8830360D01*
X14405110Y-8670360D02*
X14245110Y-8830360D01*
X14405110Y-8750360D02*
G75*
G03*
X14405110Y-8750360I-80000J0D01*
G01*
X15295110Y-7770360D02*
X15455110Y-7930360D01*
X15455110Y-7770360D02*
X15295110Y-7930360D01*
X15455110Y-7850360D02*
G75*
G03*
X15455110Y-7850360I-80000J0D01*
G01*
X15295110Y-8220360D02*
X15455110Y-8380360D01*
X15455110Y-8220360D02*
X15295110Y-8380360D01*
X15455110Y-8300360D02*
G75*
G03*
X15455110Y-8300360I-80000J0D01*
G01*
X15295110Y-8670360D02*
X15455110Y-8830360D01*
X15455110Y-8670360D02*
X15295110Y-8830360D01*
X15455110Y-8750360D02*
G75*
G03*
X15455110Y-8750360I-80000J0D01*
G01*
X15470110Y-7420360D02*
X15630110Y-7580360D01*
X15630110Y-7420360D02*
X15470110Y-7580360D01*
X15630110Y-7500360D02*
G75*
G03*
X15630110Y-7500360I-80000J0D01*
G01*
X15470110Y-9020360D02*
X15630110Y-9180360D01*
X15630110Y-9020360D02*
X15470110Y-9180360D01*
X15630110Y-9100360D02*
G75*
G03*
X15630110Y-9100360I-80000J0D01*
G01*
X15870110Y-7320360D02*
X16030110Y-7480360D01*
X16030110Y-7320360D02*
X15870110Y-7480360D01*
X16030110Y-7400360D02*
G75*
G03*
X16030110Y-7400360I-80000J0D01*
G01*
X15870110Y-9120360D02*
X16030110Y-9280360D01*
X16030110Y-9120360D02*
X15870110Y-9280360D01*
X16030110Y-9200360D02*
G75*
G03*
X16030110Y-9200360I-80000J0D01*
G01*
X16270110Y-7420360D02*
X16430110Y-7580360D01*
X16430110Y-7420360D02*
X16270110Y-7580360D01*
X16430110Y-7500360D02*
G75*
G03*
X16430110Y-7500360I-80000J0D01*
G01*
X16270110Y-9020360D02*
X16430110Y-9180360D01*
X16430110Y-9020360D02*
X16270110Y-9180360D01*
X16430110Y-9100360D02*
G75*
G03*
X16430110Y-9100360I-80000J0D01*
G01*
X16445110Y-7770360D02*
X16605110Y-7930360D01*
X16605110Y-7770360D02*
X16445110Y-7930360D01*
X16605110Y-7850360D02*
G75*
G03*
X16605110Y-7850360I-80000J0D01*
G01*
X16445110Y-8220360D02*
X16605110Y-8380360D01*
X16605110Y-8220360D02*
X16445110Y-8380360D01*
X16605110Y-8300360D02*
G75*
G03*
X16605110Y-8300360I-80000J0D01*
G01*
X16445110Y-8670360D02*
X16605110Y-8830360D01*
X16605110Y-8670360D02*
X16445110Y-8830360D01*
X16605110Y-8750360D02*
G75*
G03*
X16605110Y-8750360I-80000J0D01*
G01*
X18295110Y-7770360D02*
X18455110Y-7930360D01*
X18455110Y-7770360D02*
X18295110Y-7930360D01*
X18455110Y-7850360D02*
G75*
G03*
X18455110Y-7850360I-80000J0D01*
G01*
X18295110Y-8220360D02*
X18455110Y-8380360D01*
X18455110Y-8220360D02*
X18295110Y-8380360D01*
X18455110Y-8300360D02*
G75*
G03*
X18455110Y-8300360I-80000J0D01*
G01*
X18295110Y-8670360D02*
X18455110Y-8830360D01*
X18455110Y-8670360D02*
X18295110Y-8830360D01*
X18455110Y-8750360D02*
G75*
G03*
X18455110Y-8750360I-80000J0D01*
G01*
X18470110Y-7420360D02*
X18630110Y-7580360D01*
X18630110Y-7420360D02*
X18470110Y-7580360D01*
X18630110Y-7500360D02*
G75*
G03*
X18630110Y-7500360I-80000J0D01*
G01*
X18470110Y-9020360D02*
X18630110Y-9180360D01*
X18630110Y-9020360D02*
X18470110Y-9180360D01*
X18630110Y-9100360D02*
G75*
G03*
X18630110Y-9100360I-80000J0D01*
G01*
X18870110Y-7320360D02*
X19030110Y-7480360D01*
X19030110Y-7320360D02*
X18870110Y-7480360D01*
X19030110Y-7400360D02*
G75*
G03*
X19030110Y-7400360I-80000J0D01*
G01*
X18870110Y-9120360D02*
X19030110Y-9280360D01*
X19030110Y-9120360D02*
X18870110Y-9280360D01*
X19030110Y-9200360D02*
G75*
G03*
X19030110Y-9200360I-80000J0D01*
G01*
X19270110Y-7420360D02*
X19430110Y-7580360D01*
X19430110Y-7420360D02*
X19270110Y-7580360D01*
X19430110Y-7500360D02*
G75*
G03*
X19430110Y-7500360I-80000J0D01*
G01*
X19270110Y-9020360D02*
X19430110Y-9180360D01*
X19430110Y-9020360D02*
X19270110Y-9180360D01*
X19430110Y-9100360D02*
G75*
G03*
X19430110Y-9100360I-80000J0D01*
G01*
X19445110Y-7770360D02*
X19605110Y-7930360D01*
X19605110Y-7770360D02*
X19445110Y-7930360D01*
X19605110Y-7850360D02*
G75*
G03*
X19605110Y-7850360I-80000J0D01*
G01*
X19445110Y-8220360D02*
X19605110Y-8380360D01*
X19605110Y-8220360D02*
X19445110Y-8380360D01*
X19605110Y-8300360D02*
G75*
G03*
X19605110Y-8300360I-80000J0D01*
G01*
X19445110Y-8670360D02*
X19605110Y-8830360D01*
X19605110Y-8670360D02*
X19445110Y-8830360D01*
X19605110Y-8750360D02*
G75*
G03*
X19605110Y-8750360I-80000J0D01*
G01*
X20495110Y-7770360D02*
X20655110Y-7930360D01*
X20655110Y-7770360D02*
X20495110Y-7930360D01*
X20655110Y-7850360D02*
G75*
G03*
X20655110Y-7850360I-80000J0D01*
G01*
X20495110Y-8220360D02*
X20655110Y-8380360D01*
X20655110Y-8220360D02*
X20495110Y-8380360D01*
X20655110Y-8300360D02*
G75*
G03*
X20655110Y-8300360I-80000J0D01*
G01*
X20495110Y-8670360D02*
X20655110Y-8830360D01*
X20655110Y-8670360D02*
X20495110Y-8830360D01*
X20655110Y-8750360D02*
G75*
G03*
X20655110Y-8750360I-80000J0D01*
G01*
X20670110Y-7420360D02*
X20830110Y-7580360D01*
X20830110Y-7420360D02*
X20670110Y-7580360D01*
X20830110Y-7500360D02*
G75*
G03*
X20830110Y-7500360I-80000J0D01*
G01*
X20670110Y-9020360D02*
X20830110Y-9180360D01*
X20830110Y-9020360D02*
X20670110Y-9180360D01*
X20830110Y-9100360D02*
G75*
G03*
X20830110Y-9100360I-80000J0D01*
G01*
X21070110Y-7320360D02*
X21230110Y-7480360D01*
X21230110Y-7320360D02*
X21070110Y-7480360D01*
X21230110Y-7400360D02*
G75*
G03*
X21230110Y-7400360I-80000J0D01*
G01*
X21070110Y-9120360D02*
X21230110Y-9280360D01*
X21230110Y-9120360D02*
X21070110Y-9280360D01*
X21230110Y-9200360D02*
G75*
G03*
X21230110Y-9200360I-80000J0D01*
G01*
X21470110Y-7420360D02*
X21630110Y-7580360D01*
X21630110Y-7420360D02*
X21470110Y-7580360D01*
X21630110Y-7500360D02*
G75*
G03*
X21630110Y-7500360I-80000J0D01*
G01*
X21470110Y-9020360D02*
X21630110Y-9180360D01*
X21630110Y-9020360D02*
X21470110Y-9180360D01*
X21630110Y-9100360D02*
G75*
G03*
X21630110Y-9100360I-80000J0D01*
G01*
X21645110Y-7770360D02*
X21805110Y-7930360D01*
X21805110Y-7770360D02*
X21645110Y-7930360D01*
X21805110Y-7850360D02*
G75*
G03*
X21805110Y-7850360I-80000J0D01*
G01*
X21645110Y-8220360D02*
X21805110Y-8380360D01*
X21805110Y-8220360D02*
X21645110Y-8380360D01*
X21805110Y-8300360D02*
G75*
G03*
X21805110Y-8300360I-80000J0D01*
G01*
X21645110Y-8670360D02*
X21805110Y-8830360D01*
X21805110Y-8670360D02*
X21645110Y-8830360D01*
X21805110Y-8750360D02*
G75*
G03*
X21805110Y-8750360I-80000J0D01*
G01*
D12*
X7603267Y-12028504D02*
X7603267Y-11828504D01*
X7603267Y-11828504D02*
X7650886Y-11828504D01*
X7650886Y-11828504D02*
X7679457Y-11838028D01*
X7679457Y-11838028D02*
X7698505Y-11857075D01*
X7698505Y-11857075D02*
X7708029Y-11876123D01*
X7708029Y-11876123D02*
X7717552Y-11914218D01*
X7717552Y-11914218D02*
X7717552Y-11942789D01*
X7717552Y-11942789D02*
X7708029Y-11980885D01*
X7708029Y-11980885D02*
X7698505Y-11999932D01*
X7698505Y-11999932D02*
X7679457Y-12018980D01*
X7679457Y-12018980D02*
X7650886Y-12028504D01*
X7650886Y-12028504D02*
X7603267Y-12028504D01*
X7803267Y-12028504D02*
X7803267Y-11895170D01*
X7803267Y-11933266D02*
X7812791Y-11914218D01*
X7812791Y-11914218D02*
X7822314Y-11904694D01*
X7822314Y-11904694D02*
X7841362Y-11895170D01*
X7841362Y-11895170D02*
X7860410Y-11895170D01*
X7927076Y-12028504D02*
X7927076Y-11895170D01*
X7927076Y-11828504D02*
X7917552Y-11838028D01*
X7917552Y-11838028D02*
X7927076Y-11847551D01*
X7927076Y-11847551D02*
X7936600Y-11838028D01*
X7936600Y-11838028D02*
X7927076Y-11828504D01*
X7927076Y-11828504D02*
X7927076Y-11847551D01*
X8050886Y-12028504D02*
X8031838Y-12018980D01*
X8031838Y-12018980D02*
X8022314Y-11999932D01*
X8022314Y-11999932D02*
X8022314Y-11828504D01*
X8155648Y-12028504D02*
X8136600Y-12018980D01*
X8136600Y-12018980D02*
X8127076Y-11999932D01*
X8127076Y-11999932D02*
X8127076Y-11828504D01*
X8384219Y-12028504D02*
X8384219Y-11828504D01*
X8384219Y-11828504D02*
X8450886Y-11971361D01*
X8450886Y-11971361D02*
X8517553Y-11828504D01*
X8517553Y-11828504D02*
X8517553Y-12028504D01*
X8698505Y-12028504D02*
X8698505Y-11923742D01*
X8698505Y-11923742D02*
X8688981Y-11904694D01*
X8688981Y-11904694D02*
X8669934Y-11895170D01*
X8669934Y-11895170D02*
X8631838Y-11895170D01*
X8631838Y-11895170D02*
X8612791Y-11904694D01*
X8698505Y-12018980D02*
X8679457Y-12028504D01*
X8679457Y-12028504D02*
X8631838Y-12028504D01*
X8631838Y-12028504D02*
X8612791Y-12018980D01*
X8612791Y-12018980D02*
X8603267Y-11999932D01*
X8603267Y-11999932D02*
X8603267Y-11980885D01*
X8603267Y-11980885D02*
X8612791Y-11961837D01*
X8612791Y-11961837D02*
X8631838Y-11952313D01*
X8631838Y-11952313D02*
X8679457Y-11952313D01*
X8679457Y-11952313D02*
X8698505Y-11942789D01*
X8793743Y-11895170D02*
X8793743Y-12095170D01*
X8793743Y-11904694D02*
X8812791Y-11895170D01*
X8812791Y-11895170D02*
X8850886Y-11895170D01*
X8850886Y-11895170D02*
X8869934Y-11904694D01*
X8869934Y-11904694D02*
X8879457Y-11914218D01*
X8879457Y-11914218D02*
X8888981Y-11933266D01*
X8888981Y-11933266D02*
X8888981Y-11990408D01*
X8888981Y-11990408D02*
X8879457Y-12009456D01*
X8879457Y-12009456D02*
X8869934Y-12018980D01*
X8869934Y-12018980D02*
X8850886Y-12028504D01*
X8850886Y-12028504D02*
X8812791Y-12028504D01*
X8812791Y-12028504D02*
X8793743Y-12018980D01*
X8974695Y-12009456D02*
X8984219Y-12018980D01*
X8984219Y-12018980D02*
X8974695Y-12028504D01*
X8974695Y-12028504D02*
X8965172Y-12018980D01*
X8965172Y-12018980D02*
X8974695Y-12009456D01*
X8974695Y-12009456D02*
X8974695Y-12028504D01*
X8974695Y-11904694D02*
X8984219Y-11914218D01*
X8984219Y-11914218D02*
X8974695Y-11923742D01*
X8974695Y-11923742D02*
X8965172Y-11914218D01*
X8965172Y-11914218D02*
X8974695Y-11904694D01*
X8974695Y-11904694D02*
X8974695Y-11923742D01*
D13*
X7312490Y-12342020D02*
X7342490Y-12372020D01*
X7342490Y-12342020D02*
X7312490Y-12372020D01*
D12*
X7641362Y-12248504D02*
X7660410Y-12248504D01*
X7660410Y-12248504D02*
X7679457Y-12258028D01*
X7679457Y-12258028D02*
X7688981Y-12267551D01*
X7688981Y-12267551D02*
X7698505Y-12286599D01*
X7698505Y-12286599D02*
X7708029Y-12324694D01*
X7708029Y-12324694D02*
X7708029Y-12372313D01*
X7708029Y-12372313D02*
X7698505Y-12410408D01*
X7698505Y-12410408D02*
X7688981Y-12429456D01*
X7688981Y-12429456D02*
X7679457Y-12438980D01*
X7679457Y-12438980D02*
X7660410Y-12448504D01*
X7660410Y-12448504D02*
X7641362Y-12448504D01*
X7641362Y-12448504D02*
X7622314Y-12438980D01*
X7622314Y-12438980D02*
X7612791Y-12429456D01*
X7612791Y-12429456D02*
X7603267Y-12410408D01*
X7603267Y-12410408D02*
X7593743Y-12372313D01*
X7593743Y-12372313D02*
X7593743Y-12324694D01*
X7593743Y-12324694D02*
X7603267Y-12286599D01*
X7603267Y-12286599D02*
X7612791Y-12267551D01*
X7612791Y-12267551D02*
X7622314Y-12258028D01*
X7622314Y-12258028D02*
X7641362Y-12248504D01*
X7793743Y-12429456D02*
X7803267Y-12438980D01*
X7803267Y-12438980D02*
X7793743Y-12448504D01*
X7793743Y-12448504D02*
X7784219Y-12438980D01*
X7784219Y-12438980D02*
X7793743Y-12429456D01*
X7793743Y-12429456D02*
X7793743Y-12448504D01*
X7869933Y-12248504D02*
X7993743Y-12248504D01*
X7993743Y-12248504D02*
X7927076Y-12324694D01*
X7927076Y-12324694D02*
X7955648Y-12324694D01*
X7955648Y-12324694D02*
X7974695Y-12334218D01*
X7974695Y-12334218D02*
X7984219Y-12343742D01*
X7984219Y-12343742D02*
X7993743Y-12362789D01*
X7993743Y-12362789D02*
X7993743Y-12410408D01*
X7993743Y-12410408D02*
X7984219Y-12429456D01*
X7984219Y-12429456D02*
X7974695Y-12438980D01*
X7974695Y-12438980D02*
X7955648Y-12448504D01*
X7955648Y-12448504D02*
X7898505Y-12448504D01*
X7898505Y-12448504D02*
X7879457Y-12438980D01*
X7879457Y-12438980D02*
X7869933Y-12429456D01*
X8117552Y-12248504D02*
X8136600Y-12248504D01*
X8136600Y-12248504D02*
X8155648Y-12258028D01*
X8155648Y-12258028D02*
X8165172Y-12267551D01*
X8165172Y-12267551D02*
X8174695Y-12286599D01*
X8174695Y-12286599D02*
X8184219Y-12324694D01*
X8184219Y-12324694D02*
X8184219Y-12372313D01*
X8184219Y-12372313D02*
X8174695Y-12410408D01*
X8174695Y-12410408D02*
X8165172Y-12429456D01*
X8165172Y-12429456D02*
X8155648Y-12438980D01*
X8155648Y-12438980D02*
X8136600Y-12448504D01*
X8136600Y-12448504D02*
X8117552Y-12448504D01*
X8117552Y-12448504D02*
X8098505Y-12438980D01*
X8098505Y-12438980D02*
X8088981Y-12429456D01*
X8088981Y-12429456D02*
X8079457Y-12410408D01*
X8079457Y-12410408D02*
X8069933Y-12372313D01*
X8069933Y-12372313D02*
X8069933Y-12324694D01*
X8069933Y-12324694D02*
X8079457Y-12286599D01*
X8079457Y-12286599D02*
X8088981Y-12267551D01*
X8088981Y-12267551D02*
X8098505Y-12258028D01*
X8098505Y-12258028D02*
X8117552Y-12248504D01*
X8308029Y-12248504D02*
X8327076Y-12248504D01*
X8327076Y-12248504D02*
X8346124Y-12258028D01*
X8346124Y-12258028D02*
X8355648Y-12267551D01*
X8355648Y-12267551D02*
X8365172Y-12286599D01*
X8365172Y-12286599D02*
X8374695Y-12324694D01*
X8374695Y-12324694D02*
X8374695Y-12372313D01*
X8374695Y-12372313D02*
X8365172Y-12410408D01*
X8365172Y-12410408D02*
X8355648Y-12429456D01*
X8355648Y-12429456D02*
X8346124Y-12438980D01*
X8346124Y-12438980D02*
X8327076Y-12448504D01*
X8327076Y-12448504D02*
X8308029Y-12448504D01*
X8308029Y-12448504D02*
X8288981Y-12438980D01*
X8288981Y-12438980D02*
X8279457Y-12429456D01*
X8279457Y-12429456D02*
X8269933Y-12410408D01*
X8269933Y-12410408D02*
X8260410Y-12372313D01*
X8260410Y-12372313D02*
X8260410Y-12324694D01*
X8260410Y-12324694D02*
X8269933Y-12286599D01*
X8269933Y-12286599D02*
X8279457Y-12267551D01*
X8279457Y-12267551D02*
X8288981Y-12258028D01*
X8288981Y-12258028D02*
X8308029Y-12248504D01*
X8460410Y-12448504D02*
X8460410Y-12315170D01*
X8460410Y-12334218D02*
X8469934Y-12324694D01*
X8469934Y-12324694D02*
X8488981Y-12315170D01*
X8488981Y-12315170D02*
X8517553Y-12315170D01*
X8517553Y-12315170D02*
X8536600Y-12324694D01*
X8536600Y-12324694D02*
X8546124Y-12343742D01*
X8546124Y-12343742D02*
X8546124Y-12448504D01*
X8546124Y-12343742D02*
X8555648Y-12324694D01*
X8555648Y-12324694D02*
X8574695Y-12315170D01*
X8574695Y-12315170D02*
X8603267Y-12315170D01*
X8603267Y-12315170D02*
X8622315Y-12324694D01*
X8622315Y-12324694D02*
X8631838Y-12343742D01*
X8631838Y-12343742D02*
X8631838Y-12448504D01*
X8727076Y-12448504D02*
X8727076Y-12315170D01*
X8727076Y-12334218D02*
X8736600Y-12324694D01*
X8736600Y-12324694D02*
X8755648Y-12315170D01*
X8755648Y-12315170D02*
X8784219Y-12315170D01*
X8784219Y-12315170D02*
X8803267Y-12324694D01*
X8803267Y-12324694D02*
X8812791Y-12343742D01*
X8812791Y-12343742D02*
X8812791Y-12448504D01*
X8812791Y-12343742D02*
X8822315Y-12324694D01*
X8822315Y-12324694D02*
X8841362Y-12315170D01*
X8841362Y-12315170D02*
X8869934Y-12315170D01*
X8869934Y-12315170D02*
X8888981Y-12324694D01*
X8888981Y-12324694D02*
X8898505Y-12343742D01*
X8898505Y-12343742D02*
X8898505Y-12448504D01*
X9288981Y-12238980D02*
X9117553Y-12496123D01*
X9546124Y-12248504D02*
X9565172Y-12248504D01*
X9565172Y-12248504D02*
X9584219Y-12258028D01*
X9584219Y-12258028D02*
X9593743Y-12267551D01*
X9593743Y-12267551D02*
X9603267Y-12286599D01*
X9603267Y-12286599D02*
X9612791Y-12324694D01*
X9612791Y-12324694D02*
X9612791Y-12372313D01*
X9612791Y-12372313D02*
X9603267Y-12410408D01*
X9603267Y-12410408D02*
X9593743Y-12429456D01*
X9593743Y-12429456D02*
X9584219Y-12438980D01*
X9584219Y-12438980D02*
X9565172Y-12448504D01*
X9565172Y-12448504D02*
X9546124Y-12448504D01*
X9546124Y-12448504D02*
X9527077Y-12438980D01*
X9527077Y-12438980D02*
X9517553Y-12429456D01*
X9517553Y-12429456D02*
X9508029Y-12410408D01*
X9508029Y-12410408D02*
X9498505Y-12372313D01*
X9498505Y-12372313D02*
X9498505Y-12324694D01*
X9498505Y-12324694D02*
X9508029Y-12286599D01*
X9508029Y-12286599D02*
X9517553Y-12267551D01*
X9517553Y-12267551D02*
X9527077Y-12258028D01*
X9527077Y-12258028D02*
X9546124Y-12248504D01*
X9698505Y-12429456D02*
X9708029Y-12438980D01*
X9708029Y-12438980D02*
X9698505Y-12448504D01*
X9698505Y-12448504D02*
X9688981Y-12438980D01*
X9688981Y-12438980D02*
X9698505Y-12429456D01*
X9698505Y-12429456D02*
X9698505Y-12448504D01*
X9831838Y-12248504D02*
X9850886Y-12248504D01*
X9850886Y-12248504D02*
X9869934Y-12258028D01*
X9869934Y-12258028D02*
X9879458Y-12267551D01*
X9879458Y-12267551D02*
X9888981Y-12286599D01*
X9888981Y-12286599D02*
X9898505Y-12324694D01*
X9898505Y-12324694D02*
X9898505Y-12372313D01*
X9898505Y-12372313D02*
X9888981Y-12410408D01*
X9888981Y-12410408D02*
X9879458Y-12429456D01*
X9879458Y-12429456D02*
X9869934Y-12438980D01*
X9869934Y-12438980D02*
X9850886Y-12448504D01*
X9850886Y-12448504D02*
X9831838Y-12448504D01*
X9831838Y-12448504D02*
X9812791Y-12438980D01*
X9812791Y-12438980D02*
X9803267Y-12429456D01*
X9803267Y-12429456D02*
X9793743Y-12410408D01*
X9793743Y-12410408D02*
X9784219Y-12372313D01*
X9784219Y-12372313D02*
X9784219Y-12324694D01*
X9784219Y-12324694D02*
X9793743Y-12286599D01*
X9793743Y-12286599D02*
X9803267Y-12267551D01*
X9803267Y-12267551D02*
X9812791Y-12258028D01*
X9812791Y-12258028D02*
X9831838Y-12248504D01*
X10088981Y-12448504D02*
X9974696Y-12448504D01*
X10031838Y-12448504D02*
X10031838Y-12248504D01*
X10031838Y-12248504D02*
X10012791Y-12277075D01*
X10012791Y-12277075D02*
X9993743Y-12296123D01*
X9993743Y-12296123D02*
X9974696Y-12305647D01*
X10279458Y-12448504D02*
X10165172Y-12448504D01*
X10222315Y-12448504D02*
X10222315Y-12248504D01*
X10222315Y-12248504D02*
X10203267Y-12277075D01*
X10203267Y-12277075D02*
X10184219Y-12296123D01*
X10184219Y-12296123D02*
X10165172Y-12305647D01*
X10393743Y-12334218D02*
X10374696Y-12324694D01*
X10374696Y-12324694D02*
X10365172Y-12315170D01*
X10365172Y-12315170D02*
X10355648Y-12296123D01*
X10355648Y-12296123D02*
X10355648Y-12286599D01*
X10355648Y-12286599D02*
X10365172Y-12267551D01*
X10365172Y-12267551D02*
X10374696Y-12258028D01*
X10374696Y-12258028D02*
X10393743Y-12248504D01*
X10393743Y-12248504D02*
X10431839Y-12248504D01*
X10431839Y-12248504D02*
X10450886Y-12258028D01*
X10450886Y-12258028D02*
X10460410Y-12267551D01*
X10460410Y-12267551D02*
X10469934Y-12286599D01*
X10469934Y-12286599D02*
X10469934Y-12296123D01*
X10469934Y-12296123D02*
X10460410Y-12315170D01*
X10460410Y-12315170D02*
X10450886Y-12324694D01*
X10450886Y-12324694D02*
X10431839Y-12334218D01*
X10431839Y-12334218D02*
X10393743Y-12334218D01*
X10393743Y-12334218D02*
X10374696Y-12343742D01*
X10374696Y-12343742D02*
X10365172Y-12353266D01*
X10365172Y-12353266D02*
X10355648Y-12372313D01*
X10355648Y-12372313D02*
X10355648Y-12410408D01*
X10355648Y-12410408D02*
X10365172Y-12429456D01*
X10365172Y-12429456D02*
X10374696Y-12438980D01*
X10374696Y-12438980D02*
X10393743Y-12448504D01*
X10393743Y-12448504D02*
X10431839Y-12448504D01*
X10431839Y-12448504D02*
X10450886Y-12438980D01*
X10450886Y-12438980D02*
X10460410Y-12429456D01*
X10460410Y-12429456D02*
X10469934Y-12410408D01*
X10469934Y-12410408D02*
X10469934Y-12372313D01*
X10469934Y-12372313D02*
X10460410Y-12353266D01*
X10460410Y-12353266D02*
X10450886Y-12343742D01*
X10450886Y-12343742D02*
X10431839Y-12334218D01*
X10546124Y-12248504D02*
X10546124Y-12286599D01*
X10622315Y-12248504D02*
X10622315Y-12286599D01*
X10917553Y-12524694D02*
X10908029Y-12515170D01*
X10908029Y-12515170D02*
X10888981Y-12486599D01*
X10888981Y-12486599D02*
X10879458Y-12467551D01*
X10879458Y-12467551D02*
X10869934Y-12438980D01*
X10869934Y-12438980D02*
X10860410Y-12391361D01*
X10860410Y-12391361D02*
X10860410Y-12353266D01*
X10860410Y-12353266D02*
X10869934Y-12305647D01*
X10869934Y-12305647D02*
X10879458Y-12277075D01*
X10879458Y-12277075D02*
X10888981Y-12258028D01*
X10888981Y-12258028D02*
X10908029Y-12229456D01*
X10908029Y-12229456D02*
X10917553Y-12219932D01*
X10974696Y-12248504D02*
X11098505Y-12248504D01*
X11098505Y-12248504D02*
X11031839Y-12324694D01*
X11031839Y-12324694D02*
X11060410Y-12324694D01*
X11060410Y-12324694D02*
X11079458Y-12334218D01*
X11079458Y-12334218D02*
X11088981Y-12343742D01*
X11088981Y-12343742D02*
X11098505Y-12362789D01*
X11098505Y-12362789D02*
X11098505Y-12410408D01*
X11098505Y-12410408D02*
X11088981Y-12429456D01*
X11088981Y-12429456D02*
X11079458Y-12438980D01*
X11079458Y-12438980D02*
X11060410Y-12448504D01*
X11060410Y-12448504D02*
X11003267Y-12448504D01*
X11003267Y-12448504D02*
X10984220Y-12438980D01*
X10984220Y-12438980D02*
X10974696Y-12429456D01*
X11165172Y-12248504D02*
X11298505Y-12248504D01*
X11298505Y-12248504D02*
X11212791Y-12448504D01*
X11527077Y-12448504D02*
X11527077Y-12248504D01*
X11612791Y-12448504D02*
X11612791Y-12343742D01*
X11612791Y-12343742D02*
X11603267Y-12324694D01*
X11603267Y-12324694D02*
X11584220Y-12315170D01*
X11584220Y-12315170D02*
X11555648Y-12315170D01*
X11555648Y-12315170D02*
X11536600Y-12324694D01*
X11536600Y-12324694D02*
X11527077Y-12334218D01*
X11736600Y-12448504D02*
X11717553Y-12438980D01*
X11717553Y-12438980D02*
X11708029Y-12429456D01*
X11708029Y-12429456D02*
X11698505Y-12410408D01*
X11698505Y-12410408D02*
X11698505Y-12353266D01*
X11698505Y-12353266D02*
X11708029Y-12334218D01*
X11708029Y-12334218D02*
X11717553Y-12324694D01*
X11717553Y-12324694D02*
X11736600Y-12315170D01*
X11736600Y-12315170D02*
X11765172Y-12315170D01*
X11765172Y-12315170D02*
X11784220Y-12324694D01*
X11784220Y-12324694D02*
X11793743Y-12334218D01*
X11793743Y-12334218D02*
X11803267Y-12353266D01*
X11803267Y-12353266D02*
X11803267Y-12410408D01*
X11803267Y-12410408D02*
X11793743Y-12429456D01*
X11793743Y-12429456D02*
X11784220Y-12438980D01*
X11784220Y-12438980D02*
X11765172Y-12448504D01*
X11765172Y-12448504D02*
X11736600Y-12448504D01*
X11917553Y-12448504D02*
X11898505Y-12438980D01*
X11898505Y-12438980D02*
X11888981Y-12419932D01*
X11888981Y-12419932D02*
X11888981Y-12248504D01*
X12069934Y-12438980D02*
X12050886Y-12448504D01*
X12050886Y-12448504D02*
X12012791Y-12448504D01*
X12012791Y-12448504D02*
X11993743Y-12438980D01*
X11993743Y-12438980D02*
X11984220Y-12419932D01*
X11984220Y-12419932D02*
X11984220Y-12343742D01*
X11984220Y-12343742D02*
X11993743Y-12324694D01*
X11993743Y-12324694D02*
X12012791Y-12315170D01*
X12012791Y-12315170D02*
X12050886Y-12315170D01*
X12050886Y-12315170D02*
X12069934Y-12324694D01*
X12069934Y-12324694D02*
X12079458Y-12343742D01*
X12079458Y-12343742D02*
X12079458Y-12362789D01*
X12079458Y-12362789D02*
X11984220Y-12381837D01*
X12155648Y-12438980D02*
X12174696Y-12448504D01*
X12174696Y-12448504D02*
X12212791Y-12448504D01*
X12212791Y-12448504D02*
X12231839Y-12438980D01*
X12231839Y-12438980D02*
X12241362Y-12419932D01*
X12241362Y-12419932D02*
X12241362Y-12410408D01*
X12241362Y-12410408D02*
X12231839Y-12391361D01*
X12231839Y-12391361D02*
X12212791Y-12381837D01*
X12212791Y-12381837D02*
X12184220Y-12381837D01*
X12184220Y-12381837D02*
X12165172Y-12372313D01*
X12165172Y-12372313D02*
X12155648Y-12353266D01*
X12155648Y-12353266D02*
X12155648Y-12343742D01*
X12155648Y-12343742D02*
X12165172Y-12324694D01*
X12165172Y-12324694D02*
X12184220Y-12315170D01*
X12184220Y-12315170D02*
X12212791Y-12315170D01*
X12212791Y-12315170D02*
X12231839Y-12324694D01*
X12308029Y-12524694D02*
X12317553Y-12515170D01*
X12317553Y-12515170D02*
X12336601Y-12486599D01*
X12336601Y-12486599D02*
X12346124Y-12467551D01*
X12346124Y-12467551D02*
X12355648Y-12438980D01*
X12355648Y-12438980D02*
X12365172Y-12391361D01*
X12365172Y-12391361D02*
X12365172Y-12353266D01*
X12365172Y-12353266D02*
X12355648Y-12305647D01*
X12355648Y-12305647D02*
X12346124Y-12277075D01*
X12346124Y-12277075D02*
X12336601Y-12258028D01*
X12336601Y-12258028D02*
X12317553Y-12229456D01*
X12317553Y-12229456D02*
X12308029Y-12219932D01*
D14*
X7342490Y-12621020D02*
G75*
G03*
X7342490Y-12621020I-20000J0D01*
G01*
D12*
X7641362Y-12512504D02*
X7660410Y-12512504D01*
X7660410Y-12512504D02*
X7679457Y-12522028D01*
X7679457Y-12522028D02*
X7688981Y-12531551D01*
X7688981Y-12531551D02*
X7698505Y-12550599D01*
X7698505Y-12550599D02*
X7708029Y-12588694D01*
X7708029Y-12588694D02*
X7708029Y-12636313D01*
X7708029Y-12636313D02*
X7698505Y-12674408D01*
X7698505Y-12674408D02*
X7688981Y-12693456D01*
X7688981Y-12693456D02*
X7679457Y-12702980D01*
X7679457Y-12702980D02*
X7660410Y-12712504D01*
X7660410Y-12712504D02*
X7641362Y-12712504D01*
X7641362Y-12712504D02*
X7622314Y-12702980D01*
X7622314Y-12702980D02*
X7612791Y-12693456D01*
X7612791Y-12693456D02*
X7603267Y-12674408D01*
X7603267Y-12674408D02*
X7593743Y-12636313D01*
X7593743Y-12636313D02*
X7593743Y-12588694D01*
X7593743Y-12588694D02*
X7603267Y-12550599D01*
X7603267Y-12550599D02*
X7612791Y-12531551D01*
X7612791Y-12531551D02*
X7622314Y-12522028D01*
X7622314Y-12522028D02*
X7641362Y-12512504D01*
X7793743Y-12693456D02*
X7803267Y-12702980D01*
X7803267Y-12702980D02*
X7793743Y-12712504D01*
X7793743Y-12712504D02*
X7784219Y-12702980D01*
X7784219Y-12702980D02*
X7793743Y-12693456D01*
X7793743Y-12693456D02*
X7793743Y-12712504D01*
X7974695Y-12579170D02*
X7974695Y-12712504D01*
X7927076Y-12502980D02*
X7879457Y-12645837D01*
X7879457Y-12645837D02*
X8003267Y-12645837D01*
X8117552Y-12512504D02*
X8136600Y-12512504D01*
X8136600Y-12512504D02*
X8155648Y-12522028D01*
X8155648Y-12522028D02*
X8165172Y-12531551D01*
X8165172Y-12531551D02*
X8174695Y-12550599D01*
X8174695Y-12550599D02*
X8184219Y-12588694D01*
X8184219Y-12588694D02*
X8184219Y-12636313D01*
X8184219Y-12636313D02*
X8174695Y-12674408D01*
X8174695Y-12674408D02*
X8165172Y-12693456D01*
X8165172Y-12693456D02*
X8155648Y-12702980D01*
X8155648Y-12702980D02*
X8136600Y-12712504D01*
X8136600Y-12712504D02*
X8117552Y-12712504D01*
X8117552Y-12712504D02*
X8098505Y-12702980D01*
X8098505Y-12702980D02*
X8088981Y-12693456D01*
X8088981Y-12693456D02*
X8079457Y-12674408D01*
X8079457Y-12674408D02*
X8069933Y-12636313D01*
X8069933Y-12636313D02*
X8069933Y-12588694D01*
X8069933Y-12588694D02*
X8079457Y-12550599D01*
X8079457Y-12550599D02*
X8088981Y-12531551D01*
X8088981Y-12531551D02*
X8098505Y-12522028D01*
X8098505Y-12522028D02*
X8117552Y-12512504D01*
X8308029Y-12512504D02*
X8327076Y-12512504D01*
X8327076Y-12512504D02*
X8346124Y-12522028D01*
X8346124Y-12522028D02*
X8355648Y-12531551D01*
X8355648Y-12531551D02*
X8365172Y-12550599D01*
X8365172Y-12550599D02*
X8374695Y-12588694D01*
X8374695Y-12588694D02*
X8374695Y-12636313D01*
X8374695Y-12636313D02*
X8365172Y-12674408D01*
X8365172Y-12674408D02*
X8355648Y-12693456D01*
X8355648Y-12693456D02*
X8346124Y-12702980D01*
X8346124Y-12702980D02*
X8327076Y-12712504D01*
X8327076Y-12712504D02*
X8308029Y-12712504D01*
X8308029Y-12712504D02*
X8288981Y-12702980D01*
X8288981Y-12702980D02*
X8279457Y-12693456D01*
X8279457Y-12693456D02*
X8269933Y-12674408D01*
X8269933Y-12674408D02*
X8260410Y-12636313D01*
X8260410Y-12636313D02*
X8260410Y-12588694D01*
X8260410Y-12588694D02*
X8269933Y-12550599D01*
X8269933Y-12550599D02*
X8279457Y-12531551D01*
X8279457Y-12531551D02*
X8288981Y-12522028D01*
X8288981Y-12522028D02*
X8308029Y-12512504D01*
X8460410Y-12712504D02*
X8460410Y-12579170D01*
X8460410Y-12598218D02*
X8469934Y-12588694D01*
X8469934Y-12588694D02*
X8488981Y-12579170D01*
X8488981Y-12579170D02*
X8517553Y-12579170D01*
X8517553Y-12579170D02*
X8536600Y-12588694D01*
X8536600Y-12588694D02*
X8546124Y-12607742D01*
X8546124Y-12607742D02*
X8546124Y-12712504D01*
X8546124Y-12607742D02*
X8555648Y-12588694D01*
X8555648Y-12588694D02*
X8574695Y-12579170D01*
X8574695Y-12579170D02*
X8603267Y-12579170D01*
X8603267Y-12579170D02*
X8622315Y-12588694D01*
X8622315Y-12588694D02*
X8631838Y-12607742D01*
X8631838Y-12607742D02*
X8631838Y-12712504D01*
X8727076Y-12712504D02*
X8727076Y-12579170D01*
X8727076Y-12598218D02*
X8736600Y-12588694D01*
X8736600Y-12588694D02*
X8755648Y-12579170D01*
X8755648Y-12579170D02*
X8784219Y-12579170D01*
X8784219Y-12579170D02*
X8803267Y-12588694D01*
X8803267Y-12588694D02*
X8812791Y-12607742D01*
X8812791Y-12607742D02*
X8812791Y-12712504D01*
X8812791Y-12607742D02*
X8822315Y-12588694D01*
X8822315Y-12588694D02*
X8841362Y-12579170D01*
X8841362Y-12579170D02*
X8869934Y-12579170D01*
X8869934Y-12579170D02*
X8888981Y-12588694D01*
X8888981Y-12588694D02*
X8898505Y-12607742D01*
X8898505Y-12607742D02*
X8898505Y-12712504D01*
X9288981Y-12502980D02*
X9117553Y-12760123D01*
X9546124Y-12512504D02*
X9565172Y-12512504D01*
X9565172Y-12512504D02*
X9584219Y-12522028D01*
X9584219Y-12522028D02*
X9593743Y-12531551D01*
X9593743Y-12531551D02*
X9603267Y-12550599D01*
X9603267Y-12550599D02*
X9612791Y-12588694D01*
X9612791Y-12588694D02*
X9612791Y-12636313D01*
X9612791Y-12636313D02*
X9603267Y-12674408D01*
X9603267Y-12674408D02*
X9593743Y-12693456D01*
X9593743Y-12693456D02*
X9584219Y-12702980D01*
X9584219Y-12702980D02*
X9565172Y-12712504D01*
X9565172Y-12712504D02*
X9546124Y-12712504D01*
X9546124Y-12712504D02*
X9527077Y-12702980D01*
X9527077Y-12702980D02*
X9517553Y-12693456D01*
X9517553Y-12693456D02*
X9508029Y-12674408D01*
X9508029Y-12674408D02*
X9498505Y-12636313D01*
X9498505Y-12636313D02*
X9498505Y-12588694D01*
X9498505Y-12588694D02*
X9508029Y-12550599D01*
X9508029Y-12550599D02*
X9517553Y-12531551D01*
X9517553Y-12531551D02*
X9527077Y-12522028D01*
X9527077Y-12522028D02*
X9546124Y-12512504D01*
X9698505Y-12693456D02*
X9708029Y-12702980D01*
X9708029Y-12702980D02*
X9698505Y-12712504D01*
X9698505Y-12712504D02*
X9688981Y-12702980D01*
X9688981Y-12702980D02*
X9698505Y-12693456D01*
X9698505Y-12693456D02*
X9698505Y-12712504D01*
X9831838Y-12512504D02*
X9850886Y-12512504D01*
X9850886Y-12512504D02*
X9869934Y-12522028D01*
X9869934Y-12522028D02*
X9879458Y-12531551D01*
X9879458Y-12531551D02*
X9888981Y-12550599D01*
X9888981Y-12550599D02*
X9898505Y-12588694D01*
X9898505Y-12588694D02*
X9898505Y-12636313D01*
X9898505Y-12636313D02*
X9888981Y-12674408D01*
X9888981Y-12674408D02*
X9879458Y-12693456D01*
X9879458Y-12693456D02*
X9869934Y-12702980D01*
X9869934Y-12702980D02*
X9850886Y-12712504D01*
X9850886Y-12712504D02*
X9831838Y-12712504D01*
X9831838Y-12712504D02*
X9812791Y-12702980D01*
X9812791Y-12702980D02*
X9803267Y-12693456D01*
X9803267Y-12693456D02*
X9793743Y-12674408D01*
X9793743Y-12674408D02*
X9784219Y-12636313D01*
X9784219Y-12636313D02*
X9784219Y-12588694D01*
X9784219Y-12588694D02*
X9793743Y-12550599D01*
X9793743Y-12550599D02*
X9803267Y-12531551D01*
X9803267Y-12531551D02*
X9812791Y-12522028D01*
X9812791Y-12522028D02*
X9831838Y-12512504D01*
X10088981Y-12712504D02*
X9974696Y-12712504D01*
X10031838Y-12712504D02*
X10031838Y-12512504D01*
X10031838Y-12512504D02*
X10012791Y-12541075D01*
X10012791Y-12541075D02*
X9993743Y-12560123D01*
X9993743Y-12560123D02*
X9974696Y-12569647D01*
X10269934Y-12512504D02*
X10174696Y-12512504D01*
X10174696Y-12512504D02*
X10165172Y-12607742D01*
X10165172Y-12607742D02*
X10174696Y-12598218D01*
X10174696Y-12598218D02*
X10193743Y-12588694D01*
X10193743Y-12588694D02*
X10241362Y-12588694D01*
X10241362Y-12588694D02*
X10260410Y-12598218D01*
X10260410Y-12598218D02*
X10269934Y-12607742D01*
X10269934Y-12607742D02*
X10279458Y-12626789D01*
X10279458Y-12626789D02*
X10279458Y-12674408D01*
X10279458Y-12674408D02*
X10269934Y-12693456D01*
X10269934Y-12693456D02*
X10260410Y-12702980D01*
X10260410Y-12702980D02*
X10241362Y-12712504D01*
X10241362Y-12712504D02*
X10193743Y-12712504D01*
X10193743Y-12712504D02*
X10174696Y-12702980D01*
X10174696Y-12702980D02*
X10165172Y-12693456D01*
X10346124Y-12512504D02*
X10479458Y-12512504D01*
X10479458Y-12512504D02*
X10393743Y-12712504D01*
X10546124Y-12512504D02*
X10546124Y-12550599D01*
X10622315Y-12512504D02*
X10622315Y-12550599D01*
X10917553Y-12788694D02*
X10908029Y-12779170D01*
X10908029Y-12779170D02*
X10888981Y-12750599D01*
X10888981Y-12750599D02*
X10879458Y-12731551D01*
X10879458Y-12731551D02*
X10869934Y-12702980D01*
X10869934Y-12702980D02*
X10860410Y-12655361D01*
X10860410Y-12655361D02*
X10860410Y-12617266D01*
X10860410Y-12617266D02*
X10869934Y-12569647D01*
X10869934Y-12569647D02*
X10879458Y-12541075D01*
X10879458Y-12541075D02*
X10888981Y-12522028D01*
X10888981Y-12522028D02*
X10908029Y-12493456D01*
X10908029Y-12493456D02*
X10917553Y-12483932D01*
X11098505Y-12712504D02*
X10984220Y-12712504D01*
X11041362Y-12712504D02*
X11041362Y-12512504D01*
X11041362Y-12512504D02*
X11022315Y-12541075D01*
X11022315Y-12541075D02*
X11003267Y-12560123D01*
X11003267Y-12560123D02*
X10984220Y-12569647D01*
X11336600Y-12712504D02*
X11336600Y-12512504D01*
X11422315Y-12712504D02*
X11422315Y-12607742D01*
X11422315Y-12607742D02*
X11412791Y-12588694D01*
X11412791Y-12588694D02*
X11393743Y-12579170D01*
X11393743Y-12579170D02*
X11365172Y-12579170D01*
X11365172Y-12579170D02*
X11346124Y-12588694D01*
X11346124Y-12588694D02*
X11336600Y-12598218D01*
X11546124Y-12712504D02*
X11527077Y-12702980D01*
X11527077Y-12702980D02*
X11517553Y-12693456D01*
X11517553Y-12693456D02*
X11508029Y-12674408D01*
X11508029Y-12674408D02*
X11508029Y-12617266D01*
X11508029Y-12617266D02*
X11517553Y-12598218D01*
X11517553Y-12598218D02*
X11527077Y-12588694D01*
X11527077Y-12588694D02*
X11546124Y-12579170D01*
X11546124Y-12579170D02*
X11574696Y-12579170D01*
X11574696Y-12579170D02*
X11593743Y-12588694D01*
X11593743Y-12588694D02*
X11603267Y-12598218D01*
X11603267Y-12598218D02*
X11612791Y-12617266D01*
X11612791Y-12617266D02*
X11612791Y-12674408D01*
X11612791Y-12674408D02*
X11603267Y-12693456D01*
X11603267Y-12693456D02*
X11593743Y-12702980D01*
X11593743Y-12702980D02*
X11574696Y-12712504D01*
X11574696Y-12712504D02*
X11546124Y-12712504D01*
X11727077Y-12712504D02*
X11708029Y-12702980D01*
X11708029Y-12702980D02*
X11698505Y-12683932D01*
X11698505Y-12683932D02*
X11698505Y-12512504D01*
X11879458Y-12702980D02*
X11860410Y-12712504D01*
X11860410Y-12712504D02*
X11822315Y-12712504D01*
X11822315Y-12712504D02*
X11803267Y-12702980D01*
X11803267Y-12702980D02*
X11793743Y-12683932D01*
X11793743Y-12683932D02*
X11793743Y-12607742D01*
X11793743Y-12607742D02*
X11803267Y-12588694D01*
X11803267Y-12588694D02*
X11822315Y-12579170D01*
X11822315Y-12579170D02*
X11860410Y-12579170D01*
X11860410Y-12579170D02*
X11879458Y-12588694D01*
X11879458Y-12588694D02*
X11888981Y-12607742D01*
X11888981Y-12607742D02*
X11888981Y-12626789D01*
X11888981Y-12626789D02*
X11793743Y-12645837D01*
X11955648Y-12788694D02*
X11965172Y-12779170D01*
X11965172Y-12779170D02*
X11984220Y-12750599D01*
X11984220Y-12750599D02*
X11993743Y-12731551D01*
X11993743Y-12731551D02*
X12003267Y-12702980D01*
X12003267Y-12702980D02*
X12012791Y-12655361D01*
X12012791Y-12655361D02*
X12012791Y-12617266D01*
X12012791Y-12617266D02*
X12003267Y-12569647D01*
X12003267Y-12569647D02*
X11993743Y-12541075D01*
X11993743Y-12541075D02*
X11984220Y-12522028D01*
X11984220Y-12522028D02*
X11965172Y-12493456D01*
X11965172Y-12493456D02*
X11955648Y-12483932D01*
D15*
X7302490Y-12845020D02*
X7302490Y-12925020D01*
X7262490Y-12885020D02*
X7342490Y-12885020D01*
D12*
X7641362Y-12776504D02*
X7660410Y-12776504D01*
X7660410Y-12776504D02*
X7679457Y-12786028D01*
X7679457Y-12786028D02*
X7688981Y-12795551D01*
X7688981Y-12795551D02*
X7698505Y-12814599D01*
X7698505Y-12814599D02*
X7708029Y-12852694D01*
X7708029Y-12852694D02*
X7708029Y-12900313D01*
X7708029Y-12900313D02*
X7698505Y-12938408D01*
X7698505Y-12938408D02*
X7688981Y-12957456D01*
X7688981Y-12957456D02*
X7679457Y-12966980D01*
X7679457Y-12966980D02*
X7660410Y-12976504D01*
X7660410Y-12976504D02*
X7641362Y-12976504D01*
X7641362Y-12976504D02*
X7622314Y-12966980D01*
X7622314Y-12966980D02*
X7612791Y-12957456D01*
X7612791Y-12957456D02*
X7603267Y-12938408D01*
X7603267Y-12938408D02*
X7593743Y-12900313D01*
X7593743Y-12900313D02*
X7593743Y-12852694D01*
X7593743Y-12852694D02*
X7603267Y-12814599D01*
X7603267Y-12814599D02*
X7612791Y-12795551D01*
X7612791Y-12795551D02*
X7622314Y-12786028D01*
X7622314Y-12786028D02*
X7641362Y-12776504D01*
X7793743Y-12957456D02*
X7803267Y-12966980D01*
X7803267Y-12966980D02*
X7793743Y-12976504D01*
X7793743Y-12976504D02*
X7784219Y-12966980D01*
X7784219Y-12966980D02*
X7793743Y-12957456D01*
X7793743Y-12957456D02*
X7793743Y-12976504D01*
X7917552Y-12862218D02*
X7898505Y-12852694D01*
X7898505Y-12852694D02*
X7888981Y-12843170D01*
X7888981Y-12843170D02*
X7879457Y-12824123D01*
X7879457Y-12824123D02*
X7879457Y-12814599D01*
X7879457Y-12814599D02*
X7888981Y-12795551D01*
X7888981Y-12795551D02*
X7898505Y-12786028D01*
X7898505Y-12786028D02*
X7917552Y-12776504D01*
X7917552Y-12776504D02*
X7955648Y-12776504D01*
X7955648Y-12776504D02*
X7974695Y-12786028D01*
X7974695Y-12786028D02*
X7984219Y-12795551D01*
X7984219Y-12795551D02*
X7993743Y-12814599D01*
X7993743Y-12814599D02*
X7993743Y-12824123D01*
X7993743Y-12824123D02*
X7984219Y-12843170D01*
X7984219Y-12843170D02*
X7974695Y-12852694D01*
X7974695Y-12852694D02*
X7955648Y-12862218D01*
X7955648Y-12862218D02*
X7917552Y-12862218D01*
X7917552Y-12862218D02*
X7898505Y-12871742D01*
X7898505Y-12871742D02*
X7888981Y-12881266D01*
X7888981Y-12881266D02*
X7879457Y-12900313D01*
X7879457Y-12900313D02*
X7879457Y-12938408D01*
X7879457Y-12938408D02*
X7888981Y-12957456D01*
X7888981Y-12957456D02*
X7898505Y-12966980D01*
X7898505Y-12966980D02*
X7917552Y-12976504D01*
X7917552Y-12976504D02*
X7955648Y-12976504D01*
X7955648Y-12976504D02*
X7974695Y-12966980D01*
X7974695Y-12966980D02*
X7984219Y-12957456D01*
X7984219Y-12957456D02*
X7993743Y-12938408D01*
X7993743Y-12938408D02*
X7993743Y-12900313D01*
X7993743Y-12900313D02*
X7984219Y-12881266D01*
X7984219Y-12881266D02*
X7974695Y-12871742D01*
X7974695Y-12871742D02*
X7955648Y-12862218D01*
X8117552Y-12776504D02*
X8136600Y-12776504D01*
X8136600Y-12776504D02*
X8155648Y-12786028D01*
X8155648Y-12786028D02*
X8165172Y-12795551D01*
X8165172Y-12795551D02*
X8174695Y-12814599D01*
X8174695Y-12814599D02*
X8184219Y-12852694D01*
X8184219Y-12852694D02*
X8184219Y-12900313D01*
X8184219Y-12900313D02*
X8174695Y-12938408D01*
X8174695Y-12938408D02*
X8165172Y-12957456D01*
X8165172Y-12957456D02*
X8155648Y-12966980D01*
X8155648Y-12966980D02*
X8136600Y-12976504D01*
X8136600Y-12976504D02*
X8117552Y-12976504D01*
X8117552Y-12976504D02*
X8098505Y-12966980D01*
X8098505Y-12966980D02*
X8088981Y-12957456D01*
X8088981Y-12957456D02*
X8079457Y-12938408D01*
X8079457Y-12938408D02*
X8069933Y-12900313D01*
X8069933Y-12900313D02*
X8069933Y-12852694D01*
X8069933Y-12852694D02*
X8079457Y-12814599D01*
X8079457Y-12814599D02*
X8088981Y-12795551D01*
X8088981Y-12795551D02*
X8098505Y-12786028D01*
X8098505Y-12786028D02*
X8117552Y-12776504D01*
X8308029Y-12776504D02*
X8327076Y-12776504D01*
X8327076Y-12776504D02*
X8346124Y-12786028D01*
X8346124Y-12786028D02*
X8355648Y-12795551D01*
X8355648Y-12795551D02*
X8365172Y-12814599D01*
X8365172Y-12814599D02*
X8374695Y-12852694D01*
X8374695Y-12852694D02*
X8374695Y-12900313D01*
X8374695Y-12900313D02*
X8365172Y-12938408D01*
X8365172Y-12938408D02*
X8355648Y-12957456D01*
X8355648Y-12957456D02*
X8346124Y-12966980D01*
X8346124Y-12966980D02*
X8327076Y-12976504D01*
X8327076Y-12976504D02*
X8308029Y-12976504D01*
X8308029Y-12976504D02*
X8288981Y-12966980D01*
X8288981Y-12966980D02*
X8279457Y-12957456D01*
X8279457Y-12957456D02*
X8269933Y-12938408D01*
X8269933Y-12938408D02*
X8260410Y-12900313D01*
X8260410Y-12900313D02*
X8260410Y-12852694D01*
X8260410Y-12852694D02*
X8269933Y-12814599D01*
X8269933Y-12814599D02*
X8279457Y-12795551D01*
X8279457Y-12795551D02*
X8288981Y-12786028D01*
X8288981Y-12786028D02*
X8308029Y-12776504D01*
X8460410Y-12976504D02*
X8460410Y-12843170D01*
X8460410Y-12862218D02*
X8469934Y-12852694D01*
X8469934Y-12852694D02*
X8488981Y-12843170D01*
X8488981Y-12843170D02*
X8517553Y-12843170D01*
X8517553Y-12843170D02*
X8536600Y-12852694D01*
X8536600Y-12852694D02*
X8546124Y-12871742D01*
X8546124Y-12871742D02*
X8546124Y-12976504D01*
X8546124Y-12871742D02*
X8555648Y-12852694D01*
X8555648Y-12852694D02*
X8574695Y-12843170D01*
X8574695Y-12843170D02*
X8603267Y-12843170D01*
X8603267Y-12843170D02*
X8622315Y-12852694D01*
X8622315Y-12852694D02*
X8631838Y-12871742D01*
X8631838Y-12871742D02*
X8631838Y-12976504D01*
X8727076Y-12976504D02*
X8727076Y-12843170D01*
X8727076Y-12862218D02*
X8736600Y-12852694D01*
X8736600Y-12852694D02*
X8755648Y-12843170D01*
X8755648Y-12843170D02*
X8784219Y-12843170D01*
X8784219Y-12843170D02*
X8803267Y-12852694D01*
X8803267Y-12852694D02*
X8812791Y-12871742D01*
X8812791Y-12871742D02*
X8812791Y-12976504D01*
X8812791Y-12871742D02*
X8822315Y-12852694D01*
X8822315Y-12852694D02*
X8841362Y-12843170D01*
X8841362Y-12843170D02*
X8869934Y-12843170D01*
X8869934Y-12843170D02*
X8888981Y-12852694D01*
X8888981Y-12852694D02*
X8898505Y-12871742D01*
X8898505Y-12871742D02*
X8898505Y-12976504D01*
X9288981Y-12766980D02*
X9117553Y-13024123D01*
X9546124Y-12776504D02*
X9565172Y-12776504D01*
X9565172Y-12776504D02*
X9584219Y-12786028D01*
X9584219Y-12786028D02*
X9593743Y-12795551D01*
X9593743Y-12795551D02*
X9603267Y-12814599D01*
X9603267Y-12814599D02*
X9612791Y-12852694D01*
X9612791Y-12852694D02*
X9612791Y-12900313D01*
X9612791Y-12900313D02*
X9603267Y-12938408D01*
X9603267Y-12938408D02*
X9593743Y-12957456D01*
X9593743Y-12957456D02*
X9584219Y-12966980D01*
X9584219Y-12966980D02*
X9565172Y-12976504D01*
X9565172Y-12976504D02*
X9546124Y-12976504D01*
X9546124Y-12976504D02*
X9527077Y-12966980D01*
X9527077Y-12966980D02*
X9517553Y-12957456D01*
X9517553Y-12957456D02*
X9508029Y-12938408D01*
X9508029Y-12938408D02*
X9498505Y-12900313D01*
X9498505Y-12900313D02*
X9498505Y-12852694D01*
X9498505Y-12852694D02*
X9508029Y-12814599D01*
X9508029Y-12814599D02*
X9517553Y-12795551D01*
X9517553Y-12795551D02*
X9527077Y-12786028D01*
X9527077Y-12786028D02*
X9546124Y-12776504D01*
X9698505Y-12957456D02*
X9708029Y-12966980D01*
X9708029Y-12966980D02*
X9698505Y-12976504D01*
X9698505Y-12976504D02*
X9688981Y-12966980D01*
X9688981Y-12966980D02*
X9698505Y-12957456D01*
X9698505Y-12957456D02*
X9698505Y-12976504D01*
X9831838Y-12776504D02*
X9850886Y-12776504D01*
X9850886Y-12776504D02*
X9869934Y-12786028D01*
X9869934Y-12786028D02*
X9879458Y-12795551D01*
X9879458Y-12795551D02*
X9888981Y-12814599D01*
X9888981Y-12814599D02*
X9898505Y-12852694D01*
X9898505Y-12852694D02*
X9898505Y-12900313D01*
X9898505Y-12900313D02*
X9888981Y-12938408D01*
X9888981Y-12938408D02*
X9879458Y-12957456D01*
X9879458Y-12957456D02*
X9869934Y-12966980D01*
X9869934Y-12966980D02*
X9850886Y-12976504D01*
X9850886Y-12976504D02*
X9831838Y-12976504D01*
X9831838Y-12976504D02*
X9812791Y-12966980D01*
X9812791Y-12966980D02*
X9803267Y-12957456D01*
X9803267Y-12957456D02*
X9793743Y-12938408D01*
X9793743Y-12938408D02*
X9784219Y-12900313D01*
X9784219Y-12900313D02*
X9784219Y-12852694D01*
X9784219Y-12852694D02*
X9793743Y-12814599D01*
X9793743Y-12814599D02*
X9803267Y-12795551D01*
X9803267Y-12795551D02*
X9812791Y-12786028D01*
X9812791Y-12786028D02*
X9831838Y-12776504D01*
X9965172Y-12776504D02*
X10088981Y-12776504D01*
X10088981Y-12776504D02*
X10022315Y-12852694D01*
X10022315Y-12852694D02*
X10050886Y-12852694D01*
X10050886Y-12852694D02*
X10069934Y-12862218D01*
X10069934Y-12862218D02*
X10079458Y-12871742D01*
X10079458Y-12871742D02*
X10088981Y-12890789D01*
X10088981Y-12890789D02*
X10088981Y-12938408D01*
X10088981Y-12938408D02*
X10079458Y-12957456D01*
X10079458Y-12957456D02*
X10069934Y-12966980D01*
X10069934Y-12966980D02*
X10050886Y-12976504D01*
X10050886Y-12976504D02*
X9993743Y-12976504D01*
X9993743Y-12976504D02*
X9974696Y-12966980D01*
X9974696Y-12966980D02*
X9965172Y-12957456D01*
X10279458Y-12976504D02*
X10165172Y-12976504D01*
X10222315Y-12976504D02*
X10222315Y-12776504D01*
X10222315Y-12776504D02*
X10203267Y-12805075D01*
X10203267Y-12805075D02*
X10184219Y-12824123D01*
X10184219Y-12824123D02*
X10165172Y-12833647D01*
X10460410Y-12776504D02*
X10365172Y-12776504D01*
X10365172Y-12776504D02*
X10355648Y-12871742D01*
X10355648Y-12871742D02*
X10365172Y-12862218D01*
X10365172Y-12862218D02*
X10384219Y-12852694D01*
X10384219Y-12852694D02*
X10431839Y-12852694D01*
X10431839Y-12852694D02*
X10450886Y-12862218D01*
X10450886Y-12862218D02*
X10460410Y-12871742D01*
X10460410Y-12871742D02*
X10469934Y-12890789D01*
X10469934Y-12890789D02*
X10469934Y-12938408D01*
X10469934Y-12938408D02*
X10460410Y-12957456D01*
X10460410Y-12957456D02*
X10450886Y-12966980D01*
X10450886Y-12966980D02*
X10431839Y-12976504D01*
X10431839Y-12976504D02*
X10384219Y-12976504D01*
X10384219Y-12976504D02*
X10365172Y-12966980D01*
X10365172Y-12966980D02*
X10355648Y-12957456D01*
X10546124Y-12776504D02*
X10546124Y-12814599D01*
X10622315Y-12776504D02*
X10622315Y-12814599D01*
X10917553Y-13052694D02*
X10908029Y-13043170D01*
X10908029Y-13043170D02*
X10888981Y-13014599D01*
X10888981Y-13014599D02*
X10879458Y-12995551D01*
X10879458Y-12995551D02*
X10869934Y-12966980D01*
X10869934Y-12966980D02*
X10860410Y-12919361D01*
X10860410Y-12919361D02*
X10860410Y-12881266D01*
X10860410Y-12881266D02*
X10869934Y-12833647D01*
X10869934Y-12833647D02*
X10879458Y-12805075D01*
X10879458Y-12805075D02*
X10888981Y-12786028D01*
X10888981Y-12786028D02*
X10908029Y-12757456D01*
X10908029Y-12757456D02*
X10917553Y-12747932D01*
X11098505Y-12976504D02*
X10984220Y-12976504D01*
X11041362Y-12976504D02*
X11041362Y-12776504D01*
X11041362Y-12776504D02*
X11022315Y-12805075D01*
X11022315Y-12805075D02*
X11003267Y-12824123D01*
X11003267Y-12824123D02*
X10984220Y-12833647D01*
X11269934Y-12776504D02*
X11231838Y-12776504D01*
X11231838Y-12776504D02*
X11212791Y-12786028D01*
X11212791Y-12786028D02*
X11203267Y-12795551D01*
X11203267Y-12795551D02*
X11184220Y-12824123D01*
X11184220Y-12824123D02*
X11174696Y-12862218D01*
X11174696Y-12862218D02*
X11174696Y-12938408D01*
X11174696Y-12938408D02*
X11184220Y-12957456D01*
X11184220Y-12957456D02*
X11193743Y-12966980D01*
X11193743Y-12966980D02*
X11212791Y-12976504D01*
X11212791Y-12976504D02*
X11250886Y-12976504D01*
X11250886Y-12976504D02*
X11269934Y-12966980D01*
X11269934Y-12966980D02*
X11279458Y-12957456D01*
X11279458Y-12957456D02*
X11288981Y-12938408D01*
X11288981Y-12938408D02*
X11288981Y-12890789D01*
X11288981Y-12890789D02*
X11279458Y-12871742D01*
X11279458Y-12871742D02*
X11269934Y-12862218D01*
X11269934Y-12862218D02*
X11250886Y-12852694D01*
X11250886Y-12852694D02*
X11212791Y-12852694D01*
X11212791Y-12852694D02*
X11193743Y-12862218D01*
X11193743Y-12862218D02*
X11184220Y-12871742D01*
X11184220Y-12871742D02*
X11174696Y-12890789D01*
X11403267Y-12862218D02*
X11384219Y-12852694D01*
X11384219Y-12852694D02*
X11374696Y-12843170D01*
X11374696Y-12843170D02*
X11365172Y-12824123D01*
X11365172Y-12824123D02*
X11365172Y-12814599D01*
X11365172Y-12814599D02*
X11374696Y-12795551D01*
X11374696Y-12795551D02*
X11384219Y-12786028D01*
X11384219Y-12786028D02*
X11403267Y-12776504D01*
X11403267Y-12776504D02*
X11441362Y-12776504D01*
X11441362Y-12776504D02*
X11460410Y-12786028D01*
X11460410Y-12786028D02*
X11469934Y-12795551D01*
X11469934Y-12795551D02*
X11479458Y-12814599D01*
X11479458Y-12814599D02*
X11479458Y-12824123D01*
X11479458Y-12824123D02*
X11469934Y-12843170D01*
X11469934Y-12843170D02*
X11460410Y-12852694D01*
X11460410Y-12852694D02*
X11441362Y-12862218D01*
X11441362Y-12862218D02*
X11403267Y-12862218D01*
X11403267Y-12862218D02*
X11384219Y-12871742D01*
X11384219Y-12871742D02*
X11374696Y-12881266D01*
X11374696Y-12881266D02*
X11365172Y-12900313D01*
X11365172Y-12900313D02*
X11365172Y-12938408D01*
X11365172Y-12938408D02*
X11374696Y-12957456D01*
X11374696Y-12957456D02*
X11384219Y-12966980D01*
X11384219Y-12966980D02*
X11403267Y-12976504D01*
X11403267Y-12976504D02*
X11441362Y-12976504D01*
X11441362Y-12976504D02*
X11460410Y-12966980D01*
X11460410Y-12966980D02*
X11469934Y-12957456D01*
X11469934Y-12957456D02*
X11479458Y-12938408D01*
X11479458Y-12938408D02*
X11479458Y-12900313D01*
X11479458Y-12900313D02*
X11469934Y-12881266D01*
X11469934Y-12881266D02*
X11460410Y-12871742D01*
X11460410Y-12871742D02*
X11441362Y-12862218D01*
X11717553Y-12976504D02*
X11717553Y-12776504D01*
X11803267Y-12976504D02*
X11803267Y-12871742D01*
X11803267Y-12871742D02*
X11793743Y-12852694D01*
X11793743Y-12852694D02*
X11774696Y-12843170D01*
X11774696Y-12843170D02*
X11746124Y-12843170D01*
X11746124Y-12843170D02*
X11727077Y-12852694D01*
X11727077Y-12852694D02*
X11717553Y-12862218D01*
X11927077Y-12976504D02*
X11908029Y-12966980D01*
X11908029Y-12966980D02*
X11898505Y-12957456D01*
X11898505Y-12957456D02*
X11888981Y-12938408D01*
X11888981Y-12938408D02*
X11888981Y-12881266D01*
X11888981Y-12881266D02*
X11898505Y-12862218D01*
X11898505Y-12862218D02*
X11908029Y-12852694D01*
X11908029Y-12852694D02*
X11927077Y-12843170D01*
X11927077Y-12843170D02*
X11955648Y-12843170D01*
X11955648Y-12843170D02*
X11974696Y-12852694D01*
X11974696Y-12852694D02*
X11984220Y-12862218D01*
X11984220Y-12862218D02*
X11993743Y-12881266D01*
X11993743Y-12881266D02*
X11993743Y-12938408D01*
X11993743Y-12938408D02*
X11984220Y-12957456D01*
X11984220Y-12957456D02*
X11974696Y-12966980D01*
X11974696Y-12966980D02*
X11955648Y-12976504D01*
X11955648Y-12976504D02*
X11927077Y-12976504D01*
X12108029Y-12976504D02*
X12088981Y-12966980D01*
X12088981Y-12966980D02*
X12079458Y-12947932D01*
X12079458Y-12947932D02*
X12079458Y-12776504D01*
X12260410Y-12966980D02*
X12241362Y-12976504D01*
X12241362Y-12976504D02*
X12203267Y-12976504D01*
X12203267Y-12976504D02*
X12184220Y-12966980D01*
X12184220Y-12966980D02*
X12174696Y-12947932D01*
X12174696Y-12947932D02*
X12174696Y-12871742D01*
X12174696Y-12871742D02*
X12184220Y-12852694D01*
X12184220Y-12852694D02*
X12203267Y-12843170D01*
X12203267Y-12843170D02*
X12241362Y-12843170D01*
X12241362Y-12843170D02*
X12260410Y-12852694D01*
X12260410Y-12852694D02*
X12269934Y-12871742D01*
X12269934Y-12871742D02*
X12269934Y-12890789D01*
X12269934Y-12890789D02*
X12174696Y-12909837D01*
X12346124Y-12966980D02*
X12365172Y-12976504D01*
X12365172Y-12976504D02*
X12403267Y-12976504D01*
X12403267Y-12976504D02*
X12422315Y-12966980D01*
X12422315Y-12966980D02*
X12431839Y-12947932D01*
X12431839Y-12947932D02*
X12431839Y-12938408D01*
X12431839Y-12938408D02*
X12422315Y-12919361D01*
X12422315Y-12919361D02*
X12403267Y-12909837D01*
X12403267Y-12909837D02*
X12374696Y-12909837D01*
X12374696Y-12909837D02*
X12355648Y-12900313D01*
X12355648Y-12900313D02*
X12346124Y-12881266D01*
X12346124Y-12881266D02*
X12346124Y-12871742D01*
X12346124Y-12871742D02*
X12355648Y-12852694D01*
X12355648Y-12852694D02*
X12374696Y-12843170D01*
X12374696Y-12843170D02*
X12403267Y-12843170D01*
X12403267Y-12843170D02*
X12422315Y-12852694D01*
X12498505Y-13052694D02*
X12508029Y-13043170D01*
X12508029Y-13043170D02*
X12527077Y-13014599D01*
X12527077Y-13014599D02*
X12536601Y-12995551D01*
X12536601Y-12995551D02*
X12546124Y-12966980D01*
X12546124Y-12966980D02*
X12555648Y-12919361D01*
X12555648Y-12919361D02*
X12555648Y-12881266D01*
X12555648Y-12881266D02*
X12546124Y-12833647D01*
X12546124Y-12833647D02*
X12536601Y-12805075D01*
X12536601Y-12805075D02*
X12527077Y-12786028D01*
X12527077Y-12786028D02*
X12508029Y-12757456D01*
X12508029Y-12757456D02*
X12498505Y-12747932D01*
D16*
X7327846Y-13184376D02*
X7327846Y-13113664D01*
X7257134Y-13113664D01*
X7257134Y-13184376D01*
X7327846Y-13184376D01*
D12*
X7708029Y-13240504D02*
X7593743Y-13240504D01*
X7650886Y-13240504D02*
X7650886Y-13040504D01*
X7650886Y-13040504D02*
X7631838Y-13069075D01*
X7631838Y-13069075D02*
X7612791Y-13088123D01*
X7612791Y-13088123D02*
X7593743Y-13097647D01*
X7793743Y-13221456D02*
X7803267Y-13230980D01*
X7803267Y-13230980D02*
X7793743Y-13240504D01*
X7793743Y-13240504D02*
X7784219Y-13230980D01*
X7784219Y-13230980D02*
X7793743Y-13221456D01*
X7793743Y-13221456D02*
X7793743Y-13240504D01*
X7927076Y-13040504D02*
X7946124Y-13040504D01*
X7946124Y-13040504D02*
X7965172Y-13050028D01*
X7965172Y-13050028D02*
X7974695Y-13059551D01*
X7974695Y-13059551D02*
X7984219Y-13078599D01*
X7984219Y-13078599D02*
X7993743Y-13116694D01*
X7993743Y-13116694D02*
X7993743Y-13164313D01*
X7993743Y-13164313D02*
X7984219Y-13202408D01*
X7984219Y-13202408D02*
X7974695Y-13221456D01*
X7974695Y-13221456D02*
X7965172Y-13230980D01*
X7965172Y-13230980D02*
X7946124Y-13240504D01*
X7946124Y-13240504D02*
X7927076Y-13240504D01*
X7927076Y-13240504D02*
X7908029Y-13230980D01*
X7908029Y-13230980D02*
X7898505Y-13221456D01*
X7898505Y-13221456D02*
X7888981Y-13202408D01*
X7888981Y-13202408D02*
X7879457Y-13164313D01*
X7879457Y-13164313D02*
X7879457Y-13116694D01*
X7879457Y-13116694D02*
X7888981Y-13078599D01*
X7888981Y-13078599D02*
X7898505Y-13059551D01*
X7898505Y-13059551D02*
X7908029Y-13050028D01*
X7908029Y-13050028D02*
X7927076Y-13040504D01*
X8117552Y-13040504D02*
X8136600Y-13040504D01*
X8136600Y-13040504D02*
X8155648Y-13050028D01*
X8155648Y-13050028D02*
X8165172Y-13059551D01*
X8165172Y-13059551D02*
X8174695Y-13078599D01*
X8174695Y-13078599D02*
X8184219Y-13116694D01*
X8184219Y-13116694D02*
X8184219Y-13164313D01*
X8184219Y-13164313D02*
X8174695Y-13202408D01*
X8174695Y-13202408D02*
X8165172Y-13221456D01*
X8165172Y-13221456D02*
X8155648Y-13230980D01*
X8155648Y-13230980D02*
X8136600Y-13240504D01*
X8136600Y-13240504D02*
X8117552Y-13240504D01*
X8117552Y-13240504D02*
X8098505Y-13230980D01*
X8098505Y-13230980D02*
X8088981Y-13221456D01*
X8088981Y-13221456D02*
X8079457Y-13202408D01*
X8079457Y-13202408D02*
X8069933Y-13164313D01*
X8069933Y-13164313D02*
X8069933Y-13116694D01*
X8069933Y-13116694D02*
X8079457Y-13078599D01*
X8079457Y-13078599D02*
X8088981Y-13059551D01*
X8088981Y-13059551D02*
X8098505Y-13050028D01*
X8098505Y-13050028D02*
X8117552Y-13040504D01*
X8308029Y-13040504D02*
X8327076Y-13040504D01*
X8327076Y-13040504D02*
X8346124Y-13050028D01*
X8346124Y-13050028D02*
X8355648Y-13059551D01*
X8355648Y-13059551D02*
X8365172Y-13078599D01*
X8365172Y-13078599D02*
X8374695Y-13116694D01*
X8374695Y-13116694D02*
X8374695Y-13164313D01*
X8374695Y-13164313D02*
X8365172Y-13202408D01*
X8365172Y-13202408D02*
X8355648Y-13221456D01*
X8355648Y-13221456D02*
X8346124Y-13230980D01*
X8346124Y-13230980D02*
X8327076Y-13240504D01*
X8327076Y-13240504D02*
X8308029Y-13240504D01*
X8308029Y-13240504D02*
X8288981Y-13230980D01*
X8288981Y-13230980D02*
X8279457Y-13221456D01*
X8279457Y-13221456D02*
X8269933Y-13202408D01*
X8269933Y-13202408D02*
X8260410Y-13164313D01*
X8260410Y-13164313D02*
X8260410Y-13116694D01*
X8260410Y-13116694D02*
X8269933Y-13078599D01*
X8269933Y-13078599D02*
X8279457Y-13059551D01*
X8279457Y-13059551D02*
X8288981Y-13050028D01*
X8288981Y-13050028D02*
X8308029Y-13040504D01*
X8460410Y-13240504D02*
X8460410Y-13107170D01*
X8460410Y-13126218D02*
X8469934Y-13116694D01*
X8469934Y-13116694D02*
X8488981Y-13107170D01*
X8488981Y-13107170D02*
X8517553Y-13107170D01*
X8517553Y-13107170D02*
X8536600Y-13116694D01*
X8536600Y-13116694D02*
X8546124Y-13135742D01*
X8546124Y-13135742D02*
X8546124Y-13240504D01*
X8546124Y-13135742D02*
X8555648Y-13116694D01*
X8555648Y-13116694D02*
X8574695Y-13107170D01*
X8574695Y-13107170D02*
X8603267Y-13107170D01*
X8603267Y-13107170D02*
X8622315Y-13116694D01*
X8622315Y-13116694D02*
X8631838Y-13135742D01*
X8631838Y-13135742D02*
X8631838Y-13240504D01*
X8727076Y-13240504D02*
X8727076Y-13107170D01*
X8727076Y-13126218D02*
X8736600Y-13116694D01*
X8736600Y-13116694D02*
X8755648Y-13107170D01*
X8755648Y-13107170D02*
X8784219Y-13107170D01*
X8784219Y-13107170D02*
X8803267Y-13116694D01*
X8803267Y-13116694D02*
X8812791Y-13135742D01*
X8812791Y-13135742D02*
X8812791Y-13240504D01*
X8812791Y-13135742D02*
X8822315Y-13116694D01*
X8822315Y-13116694D02*
X8841362Y-13107170D01*
X8841362Y-13107170D02*
X8869934Y-13107170D01*
X8869934Y-13107170D02*
X8888981Y-13116694D01*
X8888981Y-13116694D02*
X8898505Y-13135742D01*
X8898505Y-13135742D02*
X8898505Y-13240504D01*
X9288981Y-13030980D02*
X9117553Y-13288123D01*
X9546124Y-13040504D02*
X9565172Y-13040504D01*
X9565172Y-13040504D02*
X9584219Y-13050028D01*
X9584219Y-13050028D02*
X9593743Y-13059551D01*
X9593743Y-13059551D02*
X9603267Y-13078599D01*
X9603267Y-13078599D02*
X9612791Y-13116694D01*
X9612791Y-13116694D02*
X9612791Y-13164313D01*
X9612791Y-13164313D02*
X9603267Y-13202408D01*
X9603267Y-13202408D02*
X9593743Y-13221456D01*
X9593743Y-13221456D02*
X9584219Y-13230980D01*
X9584219Y-13230980D02*
X9565172Y-13240504D01*
X9565172Y-13240504D02*
X9546124Y-13240504D01*
X9546124Y-13240504D02*
X9527077Y-13230980D01*
X9527077Y-13230980D02*
X9517553Y-13221456D01*
X9517553Y-13221456D02*
X9508029Y-13202408D01*
X9508029Y-13202408D02*
X9498505Y-13164313D01*
X9498505Y-13164313D02*
X9498505Y-13116694D01*
X9498505Y-13116694D02*
X9508029Y-13078599D01*
X9508029Y-13078599D02*
X9517553Y-13059551D01*
X9517553Y-13059551D02*
X9527077Y-13050028D01*
X9527077Y-13050028D02*
X9546124Y-13040504D01*
X9698505Y-13221456D02*
X9708029Y-13230980D01*
X9708029Y-13230980D02*
X9698505Y-13240504D01*
X9698505Y-13240504D02*
X9688981Y-13230980D01*
X9688981Y-13230980D02*
X9698505Y-13221456D01*
X9698505Y-13221456D02*
X9698505Y-13240504D01*
X9831838Y-13040504D02*
X9850886Y-13040504D01*
X9850886Y-13040504D02*
X9869934Y-13050028D01*
X9869934Y-13050028D02*
X9879458Y-13059551D01*
X9879458Y-13059551D02*
X9888981Y-13078599D01*
X9888981Y-13078599D02*
X9898505Y-13116694D01*
X9898505Y-13116694D02*
X9898505Y-13164313D01*
X9898505Y-13164313D02*
X9888981Y-13202408D01*
X9888981Y-13202408D02*
X9879458Y-13221456D01*
X9879458Y-13221456D02*
X9869934Y-13230980D01*
X9869934Y-13230980D02*
X9850886Y-13240504D01*
X9850886Y-13240504D02*
X9831838Y-13240504D01*
X9831838Y-13240504D02*
X9812791Y-13230980D01*
X9812791Y-13230980D02*
X9803267Y-13221456D01*
X9803267Y-13221456D02*
X9793743Y-13202408D01*
X9793743Y-13202408D02*
X9784219Y-13164313D01*
X9784219Y-13164313D02*
X9784219Y-13116694D01*
X9784219Y-13116694D02*
X9793743Y-13078599D01*
X9793743Y-13078599D02*
X9803267Y-13059551D01*
X9803267Y-13059551D02*
X9812791Y-13050028D01*
X9812791Y-13050028D02*
X9831838Y-13040504D01*
X9965172Y-13040504D02*
X10088981Y-13040504D01*
X10088981Y-13040504D02*
X10022315Y-13116694D01*
X10022315Y-13116694D02*
X10050886Y-13116694D01*
X10050886Y-13116694D02*
X10069934Y-13126218D01*
X10069934Y-13126218D02*
X10079458Y-13135742D01*
X10079458Y-13135742D02*
X10088981Y-13154789D01*
X10088981Y-13154789D02*
X10088981Y-13202408D01*
X10088981Y-13202408D02*
X10079458Y-13221456D01*
X10079458Y-13221456D02*
X10069934Y-13230980D01*
X10069934Y-13230980D02*
X10050886Y-13240504D01*
X10050886Y-13240504D02*
X9993743Y-13240504D01*
X9993743Y-13240504D02*
X9974696Y-13230980D01*
X9974696Y-13230980D02*
X9965172Y-13221456D01*
X10184219Y-13240504D02*
X10222315Y-13240504D01*
X10222315Y-13240504D02*
X10241362Y-13230980D01*
X10241362Y-13230980D02*
X10250886Y-13221456D01*
X10250886Y-13221456D02*
X10269934Y-13192885D01*
X10269934Y-13192885D02*
X10279458Y-13154789D01*
X10279458Y-13154789D02*
X10279458Y-13078599D01*
X10279458Y-13078599D02*
X10269934Y-13059551D01*
X10269934Y-13059551D02*
X10260410Y-13050028D01*
X10260410Y-13050028D02*
X10241362Y-13040504D01*
X10241362Y-13040504D02*
X10203267Y-13040504D01*
X10203267Y-13040504D02*
X10184219Y-13050028D01*
X10184219Y-13050028D02*
X10174696Y-13059551D01*
X10174696Y-13059551D02*
X10165172Y-13078599D01*
X10165172Y-13078599D02*
X10165172Y-13126218D01*
X10165172Y-13126218D02*
X10174696Y-13145266D01*
X10174696Y-13145266D02*
X10184219Y-13154789D01*
X10184219Y-13154789D02*
X10203267Y-13164313D01*
X10203267Y-13164313D02*
X10241362Y-13164313D01*
X10241362Y-13164313D02*
X10260410Y-13154789D01*
X10260410Y-13154789D02*
X10269934Y-13145266D01*
X10269934Y-13145266D02*
X10279458Y-13126218D01*
X10450886Y-13107170D02*
X10450886Y-13240504D01*
X10403267Y-13030980D02*
X10355648Y-13173837D01*
X10355648Y-13173837D02*
X10479458Y-13173837D01*
X10546124Y-13040504D02*
X10546124Y-13078599D01*
X10622315Y-13040504D02*
X10622315Y-13078599D01*
X10917553Y-13316694D02*
X10908029Y-13307170D01*
X10908029Y-13307170D02*
X10888981Y-13278599D01*
X10888981Y-13278599D02*
X10879458Y-13259551D01*
X10879458Y-13259551D02*
X10869934Y-13230980D01*
X10869934Y-13230980D02*
X10860410Y-13183361D01*
X10860410Y-13183361D02*
X10860410Y-13145266D01*
X10860410Y-13145266D02*
X10869934Y-13097647D01*
X10869934Y-13097647D02*
X10879458Y-13069075D01*
X10879458Y-13069075D02*
X10888981Y-13050028D01*
X10888981Y-13050028D02*
X10908029Y-13021456D01*
X10908029Y-13021456D02*
X10917553Y-13011932D01*
X11022315Y-13126218D02*
X11003267Y-13116694D01*
X11003267Y-13116694D02*
X10993743Y-13107170D01*
X10993743Y-13107170D02*
X10984220Y-13088123D01*
X10984220Y-13088123D02*
X10984220Y-13078599D01*
X10984220Y-13078599D02*
X10993743Y-13059551D01*
X10993743Y-13059551D02*
X11003267Y-13050028D01*
X11003267Y-13050028D02*
X11022315Y-13040504D01*
X11022315Y-13040504D02*
X11060410Y-13040504D01*
X11060410Y-13040504D02*
X11079458Y-13050028D01*
X11079458Y-13050028D02*
X11088981Y-13059551D01*
X11088981Y-13059551D02*
X11098505Y-13078599D01*
X11098505Y-13078599D02*
X11098505Y-13088123D01*
X11098505Y-13088123D02*
X11088981Y-13107170D01*
X11088981Y-13107170D02*
X11079458Y-13116694D01*
X11079458Y-13116694D02*
X11060410Y-13126218D01*
X11060410Y-13126218D02*
X11022315Y-13126218D01*
X11022315Y-13126218D02*
X11003267Y-13135742D01*
X11003267Y-13135742D02*
X10993743Y-13145266D01*
X10993743Y-13145266D02*
X10984220Y-13164313D01*
X10984220Y-13164313D02*
X10984220Y-13202408D01*
X10984220Y-13202408D02*
X10993743Y-13221456D01*
X10993743Y-13221456D02*
X11003267Y-13230980D01*
X11003267Y-13230980D02*
X11022315Y-13240504D01*
X11022315Y-13240504D02*
X11060410Y-13240504D01*
X11060410Y-13240504D02*
X11079458Y-13230980D01*
X11079458Y-13230980D02*
X11088981Y-13221456D01*
X11088981Y-13221456D02*
X11098505Y-13202408D01*
X11098505Y-13202408D02*
X11098505Y-13164313D01*
X11098505Y-13164313D02*
X11088981Y-13145266D01*
X11088981Y-13145266D02*
X11079458Y-13135742D01*
X11079458Y-13135742D02*
X11060410Y-13126218D01*
X11336600Y-13240504D02*
X11336600Y-13040504D01*
X11422315Y-13240504D02*
X11422315Y-13135742D01*
X11422315Y-13135742D02*
X11412791Y-13116694D01*
X11412791Y-13116694D02*
X11393743Y-13107170D01*
X11393743Y-13107170D02*
X11365172Y-13107170D01*
X11365172Y-13107170D02*
X11346124Y-13116694D01*
X11346124Y-13116694D02*
X11336600Y-13126218D01*
X11546124Y-13240504D02*
X11527077Y-13230980D01*
X11527077Y-13230980D02*
X11517553Y-13221456D01*
X11517553Y-13221456D02*
X11508029Y-13202408D01*
X11508029Y-13202408D02*
X11508029Y-13145266D01*
X11508029Y-13145266D02*
X11517553Y-13126218D01*
X11517553Y-13126218D02*
X11527077Y-13116694D01*
X11527077Y-13116694D02*
X11546124Y-13107170D01*
X11546124Y-13107170D02*
X11574696Y-13107170D01*
X11574696Y-13107170D02*
X11593743Y-13116694D01*
X11593743Y-13116694D02*
X11603267Y-13126218D01*
X11603267Y-13126218D02*
X11612791Y-13145266D01*
X11612791Y-13145266D02*
X11612791Y-13202408D01*
X11612791Y-13202408D02*
X11603267Y-13221456D01*
X11603267Y-13221456D02*
X11593743Y-13230980D01*
X11593743Y-13230980D02*
X11574696Y-13240504D01*
X11574696Y-13240504D02*
X11546124Y-13240504D01*
X11727077Y-13240504D02*
X11708029Y-13230980D01*
X11708029Y-13230980D02*
X11698505Y-13211932D01*
X11698505Y-13211932D02*
X11698505Y-13040504D01*
X11879458Y-13230980D02*
X11860410Y-13240504D01*
X11860410Y-13240504D02*
X11822315Y-13240504D01*
X11822315Y-13240504D02*
X11803267Y-13230980D01*
X11803267Y-13230980D02*
X11793743Y-13211932D01*
X11793743Y-13211932D02*
X11793743Y-13135742D01*
X11793743Y-13135742D02*
X11803267Y-13116694D01*
X11803267Y-13116694D02*
X11822315Y-13107170D01*
X11822315Y-13107170D02*
X11860410Y-13107170D01*
X11860410Y-13107170D02*
X11879458Y-13116694D01*
X11879458Y-13116694D02*
X11888981Y-13135742D01*
X11888981Y-13135742D02*
X11888981Y-13154789D01*
X11888981Y-13154789D02*
X11793743Y-13173837D01*
X11965172Y-13230980D02*
X11984220Y-13240504D01*
X11984220Y-13240504D02*
X12022315Y-13240504D01*
X12022315Y-13240504D02*
X12041362Y-13230980D01*
X12041362Y-13230980D02*
X12050886Y-13211932D01*
X12050886Y-13211932D02*
X12050886Y-13202408D01*
X12050886Y-13202408D02*
X12041362Y-13183361D01*
X12041362Y-13183361D02*
X12022315Y-13173837D01*
X12022315Y-13173837D02*
X11993743Y-13173837D01*
X11993743Y-13173837D02*
X11974696Y-13164313D01*
X11974696Y-13164313D02*
X11965172Y-13145266D01*
X11965172Y-13145266D02*
X11965172Y-13135742D01*
X11965172Y-13135742D02*
X11974696Y-13116694D01*
X11974696Y-13116694D02*
X11993743Y-13107170D01*
X11993743Y-13107170D02*
X12022315Y-13107170D01*
X12022315Y-13107170D02*
X12041362Y-13116694D01*
X12117553Y-13316694D02*
X12127077Y-13307170D01*
X12127077Y-13307170D02*
X12146124Y-13278599D01*
X12146124Y-13278599D02*
X12155648Y-13259551D01*
X12155648Y-13259551D02*
X12165172Y-13230980D01*
X12165172Y-13230980D02*
X12174696Y-13183361D01*
X12174696Y-13183361D02*
X12174696Y-13145266D01*
X12174696Y-13145266D02*
X12165172Y-13097647D01*
X12165172Y-13097647D02*
X12155648Y-13069075D01*
X12155648Y-13069075D02*
X12146124Y-13050028D01*
X12146124Y-13050028D02*
X12127077Y-13021456D01*
X12127077Y-13021456D02*
X12117553Y-13011932D01*
D17*
X7291690Y-13463820D02*
X7342490Y-13413020D01*
X7291690Y-13362220D01*
X7240890Y-13413020D01*
X7291690Y-13463820D01*
D12*
X7708029Y-13504504D02*
X7593743Y-13504504D01*
X7650886Y-13504504D02*
X7650886Y-13304504D01*
X7650886Y-13304504D02*
X7631838Y-13333075D01*
X7631838Y-13333075D02*
X7612791Y-13352123D01*
X7612791Y-13352123D02*
X7593743Y-13361647D01*
X7793743Y-13485456D02*
X7803267Y-13494980D01*
X7803267Y-13494980D02*
X7793743Y-13504504D01*
X7793743Y-13504504D02*
X7784219Y-13494980D01*
X7784219Y-13494980D02*
X7793743Y-13485456D01*
X7793743Y-13485456D02*
X7793743Y-13504504D01*
X7927076Y-13304504D02*
X7946124Y-13304504D01*
X7946124Y-13304504D02*
X7965172Y-13314028D01*
X7965172Y-13314028D02*
X7974695Y-13323551D01*
X7974695Y-13323551D02*
X7984219Y-13342599D01*
X7984219Y-13342599D02*
X7993743Y-13380694D01*
X7993743Y-13380694D02*
X7993743Y-13428313D01*
X7993743Y-13428313D02*
X7984219Y-13466408D01*
X7984219Y-13466408D02*
X7974695Y-13485456D01*
X7974695Y-13485456D02*
X7965172Y-13494980D01*
X7965172Y-13494980D02*
X7946124Y-13504504D01*
X7946124Y-13504504D02*
X7927076Y-13504504D01*
X7927076Y-13504504D02*
X7908029Y-13494980D01*
X7908029Y-13494980D02*
X7898505Y-13485456D01*
X7898505Y-13485456D02*
X7888981Y-13466408D01*
X7888981Y-13466408D02*
X7879457Y-13428313D01*
X7879457Y-13428313D02*
X7879457Y-13380694D01*
X7879457Y-13380694D02*
X7888981Y-13342599D01*
X7888981Y-13342599D02*
X7898505Y-13323551D01*
X7898505Y-13323551D02*
X7908029Y-13314028D01*
X7908029Y-13314028D02*
X7927076Y-13304504D01*
X8184219Y-13504504D02*
X8069933Y-13504504D01*
X8127076Y-13504504D02*
X8127076Y-13304504D01*
X8127076Y-13304504D02*
X8108029Y-13333075D01*
X8108029Y-13333075D02*
X8088981Y-13352123D01*
X8088981Y-13352123D02*
X8069933Y-13361647D01*
X8355648Y-13304504D02*
X8317552Y-13304504D01*
X8317552Y-13304504D02*
X8298505Y-13314028D01*
X8298505Y-13314028D02*
X8288981Y-13323551D01*
X8288981Y-13323551D02*
X8269933Y-13352123D01*
X8269933Y-13352123D02*
X8260410Y-13390218D01*
X8260410Y-13390218D02*
X8260410Y-13466408D01*
X8260410Y-13466408D02*
X8269933Y-13485456D01*
X8269933Y-13485456D02*
X8279457Y-13494980D01*
X8279457Y-13494980D02*
X8298505Y-13504504D01*
X8298505Y-13504504D02*
X8336600Y-13504504D01*
X8336600Y-13504504D02*
X8355648Y-13494980D01*
X8355648Y-13494980D02*
X8365172Y-13485456D01*
X8365172Y-13485456D02*
X8374695Y-13466408D01*
X8374695Y-13466408D02*
X8374695Y-13418789D01*
X8374695Y-13418789D02*
X8365172Y-13399742D01*
X8365172Y-13399742D02*
X8355648Y-13390218D01*
X8355648Y-13390218D02*
X8336600Y-13380694D01*
X8336600Y-13380694D02*
X8298505Y-13380694D01*
X8298505Y-13380694D02*
X8279457Y-13390218D01*
X8279457Y-13390218D02*
X8269933Y-13399742D01*
X8269933Y-13399742D02*
X8260410Y-13418789D01*
X8460410Y-13504504D02*
X8460410Y-13371170D01*
X8460410Y-13390218D02*
X8469934Y-13380694D01*
X8469934Y-13380694D02*
X8488981Y-13371170D01*
X8488981Y-13371170D02*
X8517553Y-13371170D01*
X8517553Y-13371170D02*
X8536600Y-13380694D01*
X8536600Y-13380694D02*
X8546124Y-13399742D01*
X8546124Y-13399742D02*
X8546124Y-13504504D01*
X8546124Y-13399742D02*
X8555648Y-13380694D01*
X8555648Y-13380694D02*
X8574695Y-13371170D01*
X8574695Y-13371170D02*
X8603267Y-13371170D01*
X8603267Y-13371170D02*
X8622315Y-13380694D01*
X8622315Y-13380694D02*
X8631838Y-13399742D01*
X8631838Y-13399742D02*
X8631838Y-13504504D01*
X8727076Y-13504504D02*
X8727076Y-13371170D01*
X8727076Y-13390218D02*
X8736600Y-13380694D01*
X8736600Y-13380694D02*
X8755648Y-13371170D01*
X8755648Y-13371170D02*
X8784219Y-13371170D01*
X8784219Y-13371170D02*
X8803267Y-13380694D01*
X8803267Y-13380694D02*
X8812791Y-13399742D01*
X8812791Y-13399742D02*
X8812791Y-13504504D01*
X8812791Y-13399742D02*
X8822315Y-13380694D01*
X8822315Y-13380694D02*
X8841362Y-13371170D01*
X8841362Y-13371170D02*
X8869934Y-13371170D01*
X8869934Y-13371170D02*
X8888981Y-13380694D01*
X8888981Y-13380694D02*
X8898505Y-13399742D01*
X8898505Y-13399742D02*
X8898505Y-13504504D01*
X9288981Y-13294980D02*
X9117553Y-13552123D01*
X9546124Y-13304504D02*
X9565172Y-13304504D01*
X9565172Y-13304504D02*
X9584219Y-13314028D01*
X9584219Y-13314028D02*
X9593743Y-13323551D01*
X9593743Y-13323551D02*
X9603267Y-13342599D01*
X9603267Y-13342599D02*
X9612791Y-13380694D01*
X9612791Y-13380694D02*
X9612791Y-13428313D01*
X9612791Y-13428313D02*
X9603267Y-13466408D01*
X9603267Y-13466408D02*
X9593743Y-13485456D01*
X9593743Y-13485456D02*
X9584219Y-13494980D01*
X9584219Y-13494980D02*
X9565172Y-13504504D01*
X9565172Y-13504504D02*
X9546124Y-13504504D01*
X9546124Y-13504504D02*
X9527077Y-13494980D01*
X9527077Y-13494980D02*
X9517553Y-13485456D01*
X9517553Y-13485456D02*
X9508029Y-13466408D01*
X9508029Y-13466408D02*
X9498505Y-13428313D01*
X9498505Y-13428313D02*
X9498505Y-13380694D01*
X9498505Y-13380694D02*
X9508029Y-13342599D01*
X9508029Y-13342599D02*
X9517553Y-13323551D01*
X9517553Y-13323551D02*
X9527077Y-13314028D01*
X9527077Y-13314028D02*
X9546124Y-13304504D01*
X9698505Y-13485456D02*
X9708029Y-13494980D01*
X9708029Y-13494980D02*
X9698505Y-13504504D01*
X9698505Y-13504504D02*
X9688981Y-13494980D01*
X9688981Y-13494980D02*
X9698505Y-13485456D01*
X9698505Y-13485456D02*
X9698505Y-13504504D01*
X9831838Y-13304504D02*
X9850886Y-13304504D01*
X9850886Y-13304504D02*
X9869934Y-13314028D01*
X9869934Y-13314028D02*
X9879458Y-13323551D01*
X9879458Y-13323551D02*
X9888981Y-13342599D01*
X9888981Y-13342599D02*
X9898505Y-13380694D01*
X9898505Y-13380694D02*
X9898505Y-13428313D01*
X9898505Y-13428313D02*
X9888981Y-13466408D01*
X9888981Y-13466408D02*
X9879458Y-13485456D01*
X9879458Y-13485456D02*
X9869934Y-13494980D01*
X9869934Y-13494980D02*
X9850886Y-13504504D01*
X9850886Y-13504504D02*
X9831838Y-13504504D01*
X9831838Y-13504504D02*
X9812791Y-13494980D01*
X9812791Y-13494980D02*
X9803267Y-13485456D01*
X9803267Y-13485456D02*
X9793743Y-13466408D01*
X9793743Y-13466408D02*
X9784219Y-13428313D01*
X9784219Y-13428313D02*
X9784219Y-13380694D01*
X9784219Y-13380694D02*
X9793743Y-13342599D01*
X9793743Y-13342599D02*
X9803267Y-13323551D01*
X9803267Y-13323551D02*
X9812791Y-13314028D01*
X9812791Y-13314028D02*
X9831838Y-13304504D01*
X10069934Y-13371170D02*
X10069934Y-13504504D01*
X10022315Y-13294980D02*
X9974696Y-13437837D01*
X9974696Y-13437837D02*
X10098505Y-13437837D01*
X10212791Y-13304504D02*
X10231839Y-13304504D01*
X10231839Y-13304504D02*
X10250886Y-13314028D01*
X10250886Y-13314028D02*
X10260410Y-13323551D01*
X10260410Y-13323551D02*
X10269934Y-13342599D01*
X10269934Y-13342599D02*
X10279458Y-13380694D01*
X10279458Y-13380694D02*
X10279458Y-13428313D01*
X10279458Y-13428313D02*
X10269934Y-13466408D01*
X10269934Y-13466408D02*
X10260410Y-13485456D01*
X10260410Y-13485456D02*
X10250886Y-13494980D01*
X10250886Y-13494980D02*
X10231839Y-13504504D01*
X10231839Y-13504504D02*
X10212791Y-13504504D01*
X10212791Y-13504504D02*
X10193743Y-13494980D01*
X10193743Y-13494980D02*
X10184219Y-13485456D01*
X10184219Y-13485456D02*
X10174696Y-13466408D01*
X10174696Y-13466408D02*
X10165172Y-13428313D01*
X10165172Y-13428313D02*
X10165172Y-13380694D01*
X10165172Y-13380694D02*
X10174696Y-13342599D01*
X10174696Y-13342599D02*
X10184219Y-13323551D01*
X10184219Y-13323551D02*
X10193743Y-13314028D01*
X10193743Y-13314028D02*
X10212791Y-13304504D01*
X10403267Y-13304504D02*
X10422315Y-13304504D01*
X10422315Y-13304504D02*
X10441362Y-13314028D01*
X10441362Y-13314028D02*
X10450886Y-13323551D01*
X10450886Y-13323551D02*
X10460410Y-13342599D01*
X10460410Y-13342599D02*
X10469934Y-13380694D01*
X10469934Y-13380694D02*
X10469934Y-13428313D01*
X10469934Y-13428313D02*
X10460410Y-13466408D01*
X10460410Y-13466408D02*
X10450886Y-13485456D01*
X10450886Y-13485456D02*
X10441362Y-13494980D01*
X10441362Y-13494980D02*
X10422315Y-13504504D01*
X10422315Y-13504504D02*
X10403267Y-13504504D01*
X10403267Y-13504504D02*
X10384219Y-13494980D01*
X10384219Y-13494980D02*
X10374696Y-13485456D01*
X10374696Y-13485456D02*
X10365172Y-13466408D01*
X10365172Y-13466408D02*
X10355648Y-13428313D01*
X10355648Y-13428313D02*
X10355648Y-13380694D01*
X10355648Y-13380694D02*
X10365172Y-13342599D01*
X10365172Y-13342599D02*
X10374696Y-13323551D01*
X10374696Y-13323551D02*
X10384219Y-13314028D01*
X10384219Y-13314028D02*
X10403267Y-13304504D01*
X10546124Y-13304504D02*
X10546124Y-13342599D01*
X10622315Y-13304504D02*
X10622315Y-13342599D01*
X10917553Y-13580694D02*
X10908029Y-13571170D01*
X10908029Y-13571170D02*
X10888981Y-13542599D01*
X10888981Y-13542599D02*
X10879458Y-13523551D01*
X10879458Y-13523551D02*
X10869934Y-13494980D01*
X10869934Y-13494980D02*
X10860410Y-13447361D01*
X10860410Y-13447361D02*
X10860410Y-13409266D01*
X10860410Y-13409266D02*
X10869934Y-13361647D01*
X10869934Y-13361647D02*
X10879458Y-13333075D01*
X10879458Y-13333075D02*
X10888981Y-13314028D01*
X10888981Y-13314028D02*
X10908029Y-13285456D01*
X10908029Y-13285456D02*
X10917553Y-13275932D01*
X11088981Y-13304504D02*
X10993743Y-13304504D01*
X10993743Y-13304504D02*
X10984220Y-13399742D01*
X10984220Y-13399742D02*
X10993743Y-13390218D01*
X10993743Y-13390218D02*
X11012791Y-13380694D01*
X11012791Y-13380694D02*
X11060410Y-13380694D01*
X11060410Y-13380694D02*
X11079458Y-13390218D01*
X11079458Y-13390218D02*
X11088981Y-13399742D01*
X11088981Y-13399742D02*
X11098505Y-13418789D01*
X11098505Y-13418789D02*
X11098505Y-13466408D01*
X11098505Y-13466408D02*
X11088981Y-13485456D01*
X11088981Y-13485456D02*
X11079458Y-13494980D01*
X11079458Y-13494980D02*
X11060410Y-13504504D01*
X11060410Y-13504504D02*
X11012791Y-13504504D01*
X11012791Y-13504504D02*
X10993743Y-13494980D01*
X10993743Y-13494980D02*
X10984220Y-13485456D01*
X11336600Y-13504504D02*
X11336600Y-13304504D01*
X11422315Y-13504504D02*
X11422315Y-13399742D01*
X11422315Y-13399742D02*
X11412791Y-13380694D01*
X11412791Y-13380694D02*
X11393743Y-13371170D01*
X11393743Y-13371170D02*
X11365172Y-13371170D01*
X11365172Y-13371170D02*
X11346124Y-13380694D01*
X11346124Y-13380694D02*
X11336600Y-13390218D01*
X11546124Y-13504504D02*
X11527077Y-13494980D01*
X11527077Y-13494980D02*
X11517553Y-13485456D01*
X11517553Y-13485456D02*
X11508029Y-13466408D01*
X11508029Y-13466408D02*
X11508029Y-13409266D01*
X11508029Y-13409266D02*
X11517553Y-13390218D01*
X11517553Y-13390218D02*
X11527077Y-13380694D01*
X11527077Y-13380694D02*
X11546124Y-13371170D01*
X11546124Y-13371170D02*
X11574696Y-13371170D01*
X11574696Y-13371170D02*
X11593743Y-13380694D01*
X11593743Y-13380694D02*
X11603267Y-13390218D01*
X11603267Y-13390218D02*
X11612791Y-13409266D01*
X11612791Y-13409266D02*
X11612791Y-13466408D01*
X11612791Y-13466408D02*
X11603267Y-13485456D01*
X11603267Y-13485456D02*
X11593743Y-13494980D01*
X11593743Y-13494980D02*
X11574696Y-13504504D01*
X11574696Y-13504504D02*
X11546124Y-13504504D01*
X11727077Y-13504504D02*
X11708029Y-13494980D01*
X11708029Y-13494980D02*
X11698505Y-13475932D01*
X11698505Y-13475932D02*
X11698505Y-13304504D01*
X11879458Y-13494980D02*
X11860410Y-13504504D01*
X11860410Y-13504504D02*
X11822315Y-13504504D01*
X11822315Y-13504504D02*
X11803267Y-13494980D01*
X11803267Y-13494980D02*
X11793743Y-13475932D01*
X11793743Y-13475932D02*
X11793743Y-13399742D01*
X11793743Y-13399742D02*
X11803267Y-13380694D01*
X11803267Y-13380694D02*
X11822315Y-13371170D01*
X11822315Y-13371170D02*
X11860410Y-13371170D01*
X11860410Y-13371170D02*
X11879458Y-13380694D01*
X11879458Y-13380694D02*
X11888981Y-13399742D01*
X11888981Y-13399742D02*
X11888981Y-13418789D01*
X11888981Y-13418789D02*
X11793743Y-13437837D01*
X11965172Y-13494980D02*
X11984220Y-13504504D01*
X11984220Y-13504504D02*
X12022315Y-13504504D01*
X12022315Y-13504504D02*
X12041362Y-13494980D01*
X12041362Y-13494980D02*
X12050886Y-13475932D01*
X12050886Y-13475932D02*
X12050886Y-13466408D01*
X12050886Y-13466408D02*
X12041362Y-13447361D01*
X12041362Y-13447361D02*
X12022315Y-13437837D01*
X12022315Y-13437837D02*
X11993743Y-13437837D01*
X11993743Y-13437837D02*
X11974696Y-13428313D01*
X11974696Y-13428313D02*
X11965172Y-13409266D01*
X11965172Y-13409266D02*
X11965172Y-13399742D01*
X11965172Y-13399742D02*
X11974696Y-13380694D01*
X11974696Y-13380694D02*
X11993743Y-13371170D01*
X11993743Y-13371170D02*
X12022315Y-13371170D01*
X12022315Y-13371170D02*
X12041362Y-13380694D01*
X12117553Y-13580694D02*
X12127077Y-13571170D01*
X12127077Y-13571170D02*
X12146124Y-13542599D01*
X12146124Y-13542599D02*
X12155648Y-13523551D01*
X12155648Y-13523551D02*
X12165172Y-13494980D01*
X12165172Y-13494980D02*
X12174696Y-13447361D01*
X12174696Y-13447361D02*
X12174696Y-13409266D01*
X12174696Y-13409266D02*
X12165172Y-13361647D01*
X12165172Y-13361647D02*
X12155648Y-13333075D01*
X12155648Y-13333075D02*
X12146124Y-13314028D01*
X12146124Y-13314028D02*
X12127077Y-13285456D01*
X12127077Y-13285456D02*
X12117553Y-13275932D01*
D18*
X7182490Y-13597020D02*
X7342490Y-13757020D01*
X7342490Y-13597020D02*
X7182490Y-13757020D01*
X7342490Y-13677020D02*
G75*
G03*
X7342490Y-13677020I-80000J0D01*
G01*
D12*
X7708029Y-13768504D02*
X7593743Y-13768504D01*
X7650886Y-13768504D02*
X7650886Y-13568504D01*
X7650886Y-13568504D02*
X7631838Y-13597075D01*
X7631838Y-13597075D02*
X7612791Y-13616123D01*
X7612791Y-13616123D02*
X7593743Y-13625647D01*
X7793743Y-13749456D02*
X7803267Y-13758980D01*
X7803267Y-13758980D02*
X7793743Y-13768504D01*
X7793743Y-13768504D02*
X7784219Y-13758980D01*
X7784219Y-13758980D02*
X7793743Y-13749456D01*
X7793743Y-13749456D02*
X7793743Y-13768504D01*
X7974695Y-13568504D02*
X7936600Y-13568504D01*
X7936600Y-13568504D02*
X7917552Y-13578028D01*
X7917552Y-13578028D02*
X7908029Y-13587551D01*
X7908029Y-13587551D02*
X7888981Y-13616123D01*
X7888981Y-13616123D02*
X7879457Y-13654218D01*
X7879457Y-13654218D02*
X7879457Y-13730408D01*
X7879457Y-13730408D02*
X7888981Y-13749456D01*
X7888981Y-13749456D02*
X7898505Y-13758980D01*
X7898505Y-13758980D02*
X7917552Y-13768504D01*
X7917552Y-13768504D02*
X7955648Y-13768504D01*
X7955648Y-13768504D02*
X7974695Y-13758980D01*
X7974695Y-13758980D02*
X7984219Y-13749456D01*
X7984219Y-13749456D02*
X7993743Y-13730408D01*
X7993743Y-13730408D02*
X7993743Y-13682789D01*
X7993743Y-13682789D02*
X7984219Y-13663742D01*
X7984219Y-13663742D02*
X7974695Y-13654218D01*
X7974695Y-13654218D02*
X7955648Y-13644694D01*
X7955648Y-13644694D02*
X7917552Y-13644694D01*
X7917552Y-13644694D02*
X7898505Y-13654218D01*
X7898505Y-13654218D02*
X7888981Y-13663742D01*
X7888981Y-13663742D02*
X7879457Y-13682789D01*
X8117552Y-13568504D02*
X8136600Y-13568504D01*
X8136600Y-13568504D02*
X8155648Y-13578028D01*
X8155648Y-13578028D02*
X8165172Y-13587551D01*
X8165172Y-13587551D02*
X8174695Y-13606599D01*
X8174695Y-13606599D02*
X8184219Y-13644694D01*
X8184219Y-13644694D02*
X8184219Y-13692313D01*
X8184219Y-13692313D02*
X8174695Y-13730408D01*
X8174695Y-13730408D02*
X8165172Y-13749456D01*
X8165172Y-13749456D02*
X8155648Y-13758980D01*
X8155648Y-13758980D02*
X8136600Y-13768504D01*
X8136600Y-13768504D02*
X8117552Y-13768504D01*
X8117552Y-13768504D02*
X8098505Y-13758980D01*
X8098505Y-13758980D02*
X8088981Y-13749456D01*
X8088981Y-13749456D02*
X8079457Y-13730408D01*
X8079457Y-13730408D02*
X8069933Y-13692313D01*
X8069933Y-13692313D02*
X8069933Y-13644694D01*
X8069933Y-13644694D02*
X8079457Y-13606599D01*
X8079457Y-13606599D02*
X8088981Y-13587551D01*
X8088981Y-13587551D02*
X8098505Y-13578028D01*
X8098505Y-13578028D02*
X8117552Y-13568504D01*
X8308029Y-13568504D02*
X8327076Y-13568504D01*
X8327076Y-13568504D02*
X8346124Y-13578028D01*
X8346124Y-13578028D02*
X8355648Y-13587551D01*
X8355648Y-13587551D02*
X8365172Y-13606599D01*
X8365172Y-13606599D02*
X8374695Y-13644694D01*
X8374695Y-13644694D02*
X8374695Y-13692313D01*
X8374695Y-13692313D02*
X8365172Y-13730408D01*
X8365172Y-13730408D02*
X8355648Y-13749456D01*
X8355648Y-13749456D02*
X8346124Y-13758980D01*
X8346124Y-13758980D02*
X8327076Y-13768504D01*
X8327076Y-13768504D02*
X8308029Y-13768504D01*
X8308029Y-13768504D02*
X8288981Y-13758980D01*
X8288981Y-13758980D02*
X8279457Y-13749456D01*
X8279457Y-13749456D02*
X8269933Y-13730408D01*
X8269933Y-13730408D02*
X8260410Y-13692313D01*
X8260410Y-13692313D02*
X8260410Y-13644694D01*
X8260410Y-13644694D02*
X8269933Y-13606599D01*
X8269933Y-13606599D02*
X8279457Y-13587551D01*
X8279457Y-13587551D02*
X8288981Y-13578028D01*
X8288981Y-13578028D02*
X8308029Y-13568504D01*
X8460410Y-13768504D02*
X8460410Y-13635170D01*
X8460410Y-13654218D02*
X8469934Y-13644694D01*
X8469934Y-13644694D02*
X8488981Y-13635170D01*
X8488981Y-13635170D02*
X8517553Y-13635170D01*
X8517553Y-13635170D02*
X8536600Y-13644694D01*
X8536600Y-13644694D02*
X8546124Y-13663742D01*
X8546124Y-13663742D02*
X8546124Y-13768504D01*
X8546124Y-13663742D02*
X8555648Y-13644694D01*
X8555648Y-13644694D02*
X8574695Y-13635170D01*
X8574695Y-13635170D02*
X8603267Y-13635170D01*
X8603267Y-13635170D02*
X8622315Y-13644694D01*
X8622315Y-13644694D02*
X8631838Y-13663742D01*
X8631838Y-13663742D02*
X8631838Y-13768504D01*
X8727076Y-13768504D02*
X8727076Y-13635170D01*
X8727076Y-13654218D02*
X8736600Y-13644694D01*
X8736600Y-13644694D02*
X8755648Y-13635170D01*
X8755648Y-13635170D02*
X8784219Y-13635170D01*
X8784219Y-13635170D02*
X8803267Y-13644694D01*
X8803267Y-13644694D02*
X8812791Y-13663742D01*
X8812791Y-13663742D02*
X8812791Y-13768504D01*
X8812791Y-13663742D02*
X8822315Y-13644694D01*
X8822315Y-13644694D02*
X8841362Y-13635170D01*
X8841362Y-13635170D02*
X8869934Y-13635170D01*
X8869934Y-13635170D02*
X8888981Y-13644694D01*
X8888981Y-13644694D02*
X8898505Y-13663742D01*
X8898505Y-13663742D02*
X8898505Y-13768504D01*
X9288981Y-13558980D02*
X9117553Y-13816123D01*
X9546124Y-13568504D02*
X9565172Y-13568504D01*
X9565172Y-13568504D02*
X9584219Y-13578028D01*
X9584219Y-13578028D02*
X9593743Y-13587551D01*
X9593743Y-13587551D02*
X9603267Y-13606599D01*
X9603267Y-13606599D02*
X9612791Y-13644694D01*
X9612791Y-13644694D02*
X9612791Y-13692313D01*
X9612791Y-13692313D02*
X9603267Y-13730408D01*
X9603267Y-13730408D02*
X9593743Y-13749456D01*
X9593743Y-13749456D02*
X9584219Y-13758980D01*
X9584219Y-13758980D02*
X9565172Y-13768504D01*
X9565172Y-13768504D02*
X9546124Y-13768504D01*
X9546124Y-13768504D02*
X9527077Y-13758980D01*
X9527077Y-13758980D02*
X9517553Y-13749456D01*
X9517553Y-13749456D02*
X9508029Y-13730408D01*
X9508029Y-13730408D02*
X9498505Y-13692313D01*
X9498505Y-13692313D02*
X9498505Y-13644694D01*
X9498505Y-13644694D02*
X9508029Y-13606599D01*
X9508029Y-13606599D02*
X9517553Y-13587551D01*
X9517553Y-13587551D02*
X9527077Y-13578028D01*
X9527077Y-13578028D02*
X9546124Y-13568504D01*
X9698505Y-13749456D02*
X9708029Y-13758980D01*
X9708029Y-13758980D02*
X9698505Y-13768504D01*
X9698505Y-13768504D02*
X9688981Y-13758980D01*
X9688981Y-13758980D02*
X9698505Y-13749456D01*
X9698505Y-13749456D02*
X9698505Y-13768504D01*
X9831838Y-13568504D02*
X9850886Y-13568504D01*
X9850886Y-13568504D02*
X9869934Y-13578028D01*
X9869934Y-13578028D02*
X9879458Y-13587551D01*
X9879458Y-13587551D02*
X9888981Y-13606599D01*
X9888981Y-13606599D02*
X9898505Y-13644694D01*
X9898505Y-13644694D02*
X9898505Y-13692313D01*
X9898505Y-13692313D02*
X9888981Y-13730408D01*
X9888981Y-13730408D02*
X9879458Y-13749456D01*
X9879458Y-13749456D02*
X9869934Y-13758980D01*
X9869934Y-13758980D02*
X9850886Y-13768504D01*
X9850886Y-13768504D02*
X9831838Y-13768504D01*
X9831838Y-13768504D02*
X9812791Y-13758980D01*
X9812791Y-13758980D02*
X9803267Y-13749456D01*
X9803267Y-13749456D02*
X9793743Y-13730408D01*
X9793743Y-13730408D02*
X9784219Y-13692313D01*
X9784219Y-13692313D02*
X9784219Y-13644694D01*
X9784219Y-13644694D02*
X9793743Y-13606599D01*
X9793743Y-13606599D02*
X9803267Y-13587551D01*
X9803267Y-13587551D02*
X9812791Y-13578028D01*
X9812791Y-13578028D02*
X9831838Y-13568504D01*
X10069934Y-13568504D02*
X10031838Y-13568504D01*
X10031838Y-13568504D02*
X10012791Y-13578028D01*
X10012791Y-13578028D02*
X10003267Y-13587551D01*
X10003267Y-13587551D02*
X9984219Y-13616123D01*
X9984219Y-13616123D02*
X9974696Y-13654218D01*
X9974696Y-13654218D02*
X9974696Y-13730408D01*
X9974696Y-13730408D02*
X9984219Y-13749456D01*
X9984219Y-13749456D02*
X9993743Y-13758980D01*
X9993743Y-13758980D02*
X10012791Y-13768504D01*
X10012791Y-13768504D02*
X10050886Y-13768504D01*
X10050886Y-13768504D02*
X10069934Y-13758980D01*
X10069934Y-13758980D02*
X10079458Y-13749456D01*
X10079458Y-13749456D02*
X10088981Y-13730408D01*
X10088981Y-13730408D02*
X10088981Y-13682789D01*
X10088981Y-13682789D02*
X10079458Y-13663742D01*
X10079458Y-13663742D02*
X10069934Y-13654218D01*
X10069934Y-13654218D02*
X10050886Y-13644694D01*
X10050886Y-13644694D02*
X10012791Y-13644694D01*
X10012791Y-13644694D02*
X9993743Y-13654218D01*
X9993743Y-13654218D02*
X9984219Y-13663742D01*
X9984219Y-13663742D02*
X9974696Y-13682789D01*
X10155648Y-13568504D02*
X10279458Y-13568504D01*
X10279458Y-13568504D02*
X10212791Y-13644694D01*
X10212791Y-13644694D02*
X10241362Y-13644694D01*
X10241362Y-13644694D02*
X10260410Y-13654218D01*
X10260410Y-13654218D02*
X10269934Y-13663742D01*
X10269934Y-13663742D02*
X10279458Y-13682789D01*
X10279458Y-13682789D02*
X10279458Y-13730408D01*
X10279458Y-13730408D02*
X10269934Y-13749456D01*
X10269934Y-13749456D02*
X10260410Y-13758980D01*
X10260410Y-13758980D02*
X10241362Y-13768504D01*
X10241362Y-13768504D02*
X10184219Y-13768504D01*
X10184219Y-13768504D02*
X10165172Y-13758980D01*
X10165172Y-13758980D02*
X10155648Y-13749456D01*
X10403267Y-13568504D02*
X10422315Y-13568504D01*
X10422315Y-13568504D02*
X10441362Y-13578028D01*
X10441362Y-13578028D02*
X10450886Y-13587551D01*
X10450886Y-13587551D02*
X10460410Y-13606599D01*
X10460410Y-13606599D02*
X10469934Y-13644694D01*
X10469934Y-13644694D02*
X10469934Y-13692313D01*
X10469934Y-13692313D02*
X10460410Y-13730408D01*
X10460410Y-13730408D02*
X10450886Y-13749456D01*
X10450886Y-13749456D02*
X10441362Y-13758980D01*
X10441362Y-13758980D02*
X10422315Y-13768504D01*
X10422315Y-13768504D02*
X10403267Y-13768504D01*
X10403267Y-13768504D02*
X10384219Y-13758980D01*
X10384219Y-13758980D02*
X10374696Y-13749456D01*
X10374696Y-13749456D02*
X10365172Y-13730408D01*
X10365172Y-13730408D02*
X10355648Y-13692313D01*
X10355648Y-13692313D02*
X10355648Y-13644694D01*
X10355648Y-13644694D02*
X10365172Y-13606599D01*
X10365172Y-13606599D02*
X10374696Y-13587551D01*
X10374696Y-13587551D02*
X10384219Y-13578028D01*
X10384219Y-13578028D02*
X10403267Y-13568504D01*
X10546124Y-13568504D02*
X10546124Y-13606599D01*
X10622315Y-13568504D02*
X10622315Y-13606599D01*
X10917553Y-13844694D02*
X10908029Y-13835170D01*
X10908029Y-13835170D02*
X10888981Y-13806599D01*
X10888981Y-13806599D02*
X10879458Y-13787551D01*
X10879458Y-13787551D02*
X10869934Y-13758980D01*
X10869934Y-13758980D02*
X10860410Y-13711361D01*
X10860410Y-13711361D02*
X10860410Y-13673266D01*
X10860410Y-13673266D02*
X10869934Y-13625647D01*
X10869934Y-13625647D02*
X10879458Y-13597075D01*
X10879458Y-13597075D02*
X10888981Y-13578028D01*
X10888981Y-13578028D02*
X10908029Y-13549456D01*
X10908029Y-13549456D02*
X10917553Y-13539932D01*
X10974696Y-13568504D02*
X11108029Y-13568504D01*
X11108029Y-13568504D02*
X11022315Y-13768504D01*
X11174696Y-13587551D02*
X11184220Y-13578028D01*
X11184220Y-13578028D02*
X11203267Y-13568504D01*
X11203267Y-13568504D02*
X11250886Y-13568504D01*
X11250886Y-13568504D02*
X11269934Y-13578028D01*
X11269934Y-13578028D02*
X11279458Y-13587551D01*
X11279458Y-13587551D02*
X11288981Y-13606599D01*
X11288981Y-13606599D02*
X11288981Y-13625647D01*
X11288981Y-13625647D02*
X11279458Y-13654218D01*
X11279458Y-13654218D02*
X11165172Y-13768504D01*
X11165172Y-13768504D02*
X11288981Y-13768504D01*
X11527077Y-13768504D02*
X11527077Y-13568504D01*
X11612791Y-13768504D02*
X11612791Y-13663742D01*
X11612791Y-13663742D02*
X11603267Y-13644694D01*
X11603267Y-13644694D02*
X11584220Y-13635170D01*
X11584220Y-13635170D02*
X11555648Y-13635170D01*
X11555648Y-13635170D02*
X11536600Y-13644694D01*
X11536600Y-13644694D02*
X11527077Y-13654218D01*
X11736600Y-13768504D02*
X11717553Y-13758980D01*
X11717553Y-13758980D02*
X11708029Y-13749456D01*
X11708029Y-13749456D02*
X11698505Y-13730408D01*
X11698505Y-13730408D02*
X11698505Y-13673266D01*
X11698505Y-13673266D02*
X11708029Y-13654218D01*
X11708029Y-13654218D02*
X11717553Y-13644694D01*
X11717553Y-13644694D02*
X11736600Y-13635170D01*
X11736600Y-13635170D02*
X11765172Y-13635170D01*
X11765172Y-13635170D02*
X11784220Y-13644694D01*
X11784220Y-13644694D02*
X11793743Y-13654218D01*
X11793743Y-13654218D02*
X11803267Y-13673266D01*
X11803267Y-13673266D02*
X11803267Y-13730408D01*
X11803267Y-13730408D02*
X11793743Y-13749456D01*
X11793743Y-13749456D02*
X11784220Y-13758980D01*
X11784220Y-13758980D02*
X11765172Y-13768504D01*
X11765172Y-13768504D02*
X11736600Y-13768504D01*
X11917553Y-13768504D02*
X11898505Y-13758980D01*
X11898505Y-13758980D02*
X11888981Y-13739932D01*
X11888981Y-13739932D02*
X11888981Y-13568504D01*
X12069934Y-13758980D02*
X12050886Y-13768504D01*
X12050886Y-13768504D02*
X12012791Y-13768504D01*
X12012791Y-13768504D02*
X11993743Y-13758980D01*
X11993743Y-13758980D02*
X11984220Y-13739932D01*
X11984220Y-13739932D02*
X11984220Y-13663742D01*
X11984220Y-13663742D02*
X11993743Y-13644694D01*
X11993743Y-13644694D02*
X12012791Y-13635170D01*
X12012791Y-13635170D02*
X12050886Y-13635170D01*
X12050886Y-13635170D02*
X12069934Y-13644694D01*
X12069934Y-13644694D02*
X12079458Y-13663742D01*
X12079458Y-13663742D02*
X12079458Y-13682789D01*
X12079458Y-13682789D02*
X11984220Y-13701837D01*
X12155648Y-13758980D02*
X12174696Y-13768504D01*
X12174696Y-13768504D02*
X12212791Y-13768504D01*
X12212791Y-13768504D02*
X12231839Y-13758980D01*
X12231839Y-13758980D02*
X12241362Y-13739932D01*
X12241362Y-13739932D02*
X12241362Y-13730408D01*
X12241362Y-13730408D02*
X12231839Y-13711361D01*
X12231839Y-13711361D02*
X12212791Y-13701837D01*
X12212791Y-13701837D02*
X12184220Y-13701837D01*
X12184220Y-13701837D02*
X12165172Y-13692313D01*
X12165172Y-13692313D02*
X12155648Y-13673266D01*
X12155648Y-13673266D02*
X12155648Y-13663742D01*
X12155648Y-13663742D02*
X12165172Y-13644694D01*
X12165172Y-13644694D02*
X12184220Y-13635170D01*
X12184220Y-13635170D02*
X12212791Y-13635170D01*
X12212791Y-13635170D02*
X12231839Y-13644694D01*
X12308029Y-13844694D02*
X12317553Y-13835170D01*
X12317553Y-13835170D02*
X12336601Y-13806599D01*
X12336601Y-13806599D02*
X12346124Y-13787551D01*
X12346124Y-13787551D02*
X12355648Y-13758980D01*
X12355648Y-13758980D02*
X12365172Y-13711361D01*
X12365172Y-13711361D02*
X12365172Y-13673266D01*
X12365172Y-13673266D02*
X12355648Y-13625647D01*
X12355648Y-13625647D02*
X12346124Y-13597075D01*
X12346124Y-13597075D02*
X12336601Y-13578028D01*
X12336601Y-13578028D02*
X12317553Y-13549456D01*
X12317553Y-13549456D02*
X12308029Y-13539932D01*
M02*
